<?xml version="1.0" encoding="UTF-8"?>
<svg width="34px" height="34px" viewBox="0 0 34 34" version="1.1" xmlns="http://www.w3.org/2000/svg" xmlns:xlink="http://www.w3.org/1999/xlink">
    <title>background_6</title>
    <g id="页面-1" stroke="none" stroke-width="1" fill="none" fill-rule="evenodd">
        <g id="My-Fish" transform="translate(-45.000000, -313.000000)">
            <g id="Backgrounds" transform="translate(6.000000, 275.000000)">
                <g id="6" transform="translate(39.000000, 38.000000)">
                    <g id="编组-3">
                        <g id="编组" fill="#429FFD">
                            <rect id="矩形备份-4" x="0" y="0" width="34" height="34"></rect>
                        </g>
                        <g id="编组-2" transform="translate(3.000000, 3.000000)">
                            <rect id="矩形备份-3" fill="#FF65CB" x="1" y="3" width="1" height="1"></rect>
                            <rect id="矩形备份-6" fill="#FF65CB" x="1" y="4" width="1" height="1"></rect>
                            <rect id="矩形备份-7" fill="#FF65CB" x="1" y="5" width="1" height="1"></rect>
                            <rect id="矩形备份-2" fill="#FF65CB" transform="translate(1.500000, 2.500000) scale(-1, 1) translate(-1.500000, -2.500000) " x="1" y="2" width="1" height="1"></rect>
                            <rect id="矩形备份-26" fill="#FF65CB" x="3" y="1" width="1" height="1"></rect>
                            <rect id="矩形备份-30" fill="#FF65CB" x="4" y="1" width="1" height="1"></rect>
                            <rect id="矩形备份-41" fill="#FF65CB" x="10" y="1" width="1" height="1"></rect>
                            <rect id="矩形备份-125" fill="#1A1A1A" x="10" y="0" width="1" height="1"></rect>
                            <rect id="矩形备份-126" fill="#1A1A1A" x="11" y="1" width="1" height="1"></rect>
                            <rect id="矩形备份-149" fill="#1A1A1A" x="14" y="1" width="1" height="1"></rect>
                            <rect id="矩形备份-150" fill="#1A1A1A" x="15" y="0" width="1" height="1"></rect>
                            <rect id="矩形备份-151" fill="#1A1A1A" x="16" y="0" width="1" height="1"></rect>
                            <rect id="矩形备份-152" fill="#1A1A1A" x="17" y="0" width="1" height="1"></rect>
                            <rect id="矩形备份-153" fill="#1A1A1A" x="18" y="0" width="1" height="1"></rect>
                            <rect id="矩形备份-154" fill="#1A1A1A" x="19" y="1" width="1" height="1"></rect>
                            <rect id="矩形备份-176" fill="#1A1A1A" x="22" y="0" width="1" height="1"></rect>
                            <rect id="矩形备份-178" fill="#1A1A1A" x="23" y="1" width="1" height="1"></rect>
                            <rect id="矩形备份-193" fill="#1A1A1A" x="23" y="2" width="1" height="1"></rect>
                            <rect id="矩形备份-194" fill="#1A1A1A" x="23" y="3" width="1" height="1"></rect>
                            <rect id="矩形备份-195" fill="#1A1A1A" x="23" y="4" width="1" height="1"></rect>
                            <rect id="矩形备份-196" fill="#1A1A1A" x="23" y="5" width="1" height="1"></rect>
                            <rect id="矩形备份-197" fill="#1A1A1A" x="24" y="4" width="1" height="1"></rect>
                            <rect id="矩形备份-198" fill="#1A1A1A" x="25" y="5" width="1" height="1"></rect>
                            <rect id="矩形备份-199" fill="#1A1A1A" x="25" y="4" width="1" height="1"></rect>
                            <rect id="矩形备份-200" fill="#1A1A1A" x="25" y="3" width="1" height="1"></rect>
                            <rect id="矩形备份-201" fill="#1A1A1A" x="25" y="2" width="1" height="1"></rect>
                            <rect id="矩形备份-202" fill="#1A1A1A" x="25" y="1" width="1" height="1"></rect>
                            <rect id="矩形备份-203" fill="#1A1A1A" x="26" y="0" width="1" height="1"></rect>
                            <rect id="矩形备份-204" fill="#1A1A1A" x="27" y="1" width="1" height="1"></rect>
                            <rect id="矩形备份-205" fill="#1A1A1A" x="27" y="2" width="1" height="1"></rect>
                            <rect id="矩形备份-206" fill="#1A1A1A" x="27" y="3" width="1" height="1"></rect>
                            <rect id="矩形备份-207" fill="#1A1A1A" x="27" y="4" width="1" height="1"></rect>
                            <rect id="矩形备份-208" fill="#1A1A1A" x="27" y="5" width="1" height="1"></rect>
                            <rect id="矩形备份-209" fill="#1A1A1A" x="27" y="6" width="1" height="1"></rect>
                            <rect id="矩形备份-210" fill="#1A1A1A" x="27" y="7" width="1" height="1"></rect>
                            <rect id="矩形备份-211" fill="#1A1A1A" x="27" y="8" width="1" height="1"></rect>
                            <rect id="矩形备份-212" fill="#1A1A1A" x="27" y="9" width="1" height="1"></rect>
                            <rect id="矩形备份-213" fill="#1A1A1A" x="27" y="10" width="1" height="1"></rect>
                            <rect id="矩形备份-214" fill="#1A1A1A" x="27" y="11" width="1" height="1"></rect>
                            <rect id="矩形备份-215" fill="#1A1A1A" x="26" y="12" width="1" height="1"></rect>
                            <rect id="矩形备份-216" fill="#1A1A1A" x="25" y="11" width="1" height="1"></rect>
                            <rect id="矩形备份-217" fill="#1A1A1A" x="25" y="10" width="1" height="1"></rect>
                            <rect id="矩形备份-218" fill="#1A1A1A" x="25" y="9" width="1" height="1"></rect>
                            <rect id="矩形备份-219" fill="#1A1A1A" x="25" y="8" width="1" height="1"></rect>
                            <rect id="矩形备份-220" fill="#1A1A1A" x="25" y="7" width="1" height="1"></rect>
                            <rect id="矩形备份-221" fill="#1A1A1A" x="24" y="6" width="1" height="1"></rect>
                            <rect id="矩形备份-222" fill="#1A1A1A" x="23" y="7" width="1" height="1"></rect>
                            <rect id="矩形备份-223" fill="#1A1A1A" x="23" y="8" width="1" height="1"></rect>
                            <rect id="矩形备份-224" fill="#1A1A1A" x="23" y="9" width="1" height="1"></rect>
                            <rect id="矩形备份-225" fill="#1A1A1A" x="23" y="10" width="1" height="1"></rect>
                            <rect id="矩形备份-226" fill="#1A1A1A" x="23" y="11" width="1" height="1"></rect>
                            <rect id="矩形备份-227" fill="#1A1A1A" x="22" y="12" width="1" height="1"></rect>
                            <rect id="矩形备份-228" fill="#1A1A1A" x="21" y="11" width="1" height="1"></rect>
                            <rect id="矩形备份-229" fill="#1A1A1A" x="21" y="10" width="1" height="1"></rect>
                            <rect id="矩形备份-230" fill="#1A1A1A" x="21" y="9" width="1" height="1"></rect>
                            <rect id="矩形备份-231" fill="#1A1A1A" x="21" y="8" width="1" height="1"></rect>
                            <rect id="矩形备份-232" fill="#1A1A1A" x="21" y="7" width="1" height="1"></rect>
                            <rect id="矩形备份-233" fill="#1A1A1A" x="21" y="6" width="1" height="1"></rect>
                            <rect id="矩形备份-234" fill="#1A1A1A" x="21" y="5" width="1" height="1"></rect>
                            <rect id="矩形备份-235" fill="#1A1A1A" x="21" y="4" width="1" height="1"></rect>
                            <rect id="矩形备份-236" fill="#1A1A1A" x="21" y="3" width="1" height="1"></rect>
                            <rect id="矩形备份-237" fill="#1A1A1A" x="21" y="2" width="1" height="1"></rect>
                            <rect id="矩形备份-238" fill="#1A1A1A" x="21" y="1" width="1" height="1"></rect>
                            <rect id="矩形备份-155" fill="#1A1A1A" x="19" y="2" width="1" height="1"></rect>
                            <rect id="矩形备份-156" fill="#1A1A1A" x="18" y="2" width="1" height="1"></rect>
                            <rect id="矩形备份-157" fill="#1A1A1A" x="17" y="2" width="1" height="1"></rect>
                            <rect id="矩形备份-158" fill="#1A1A1A" x="16" y="2" width="1" height="1"></rect>
                            <rect id="矩形备份-159" fill="#1A1A1A" x="15" y="2" width="1" height="1"></rect>
                            <rect id="矩形备份-160" fill="#1A1A1A" x="15" y="3" width="1" height="1"></rect>
                            <rect id="矩形备份-161" fill="#1A1A1A" x="15" y="4" width="1" height="1"></rect>
                            <rect id="矩形备份-162" fill="#1A1A1A" x="15" y="5" width="1" height="1"></rect>
                            <rect id="矩形备份-163" fill="#1A1A1A" x="16" y="5" width="1" height="1"></rect>
                            <rect id="矩形备份-164" fill="#1A1A1A" x="17" y="5" width="1" height="1"></rect>
                            <rect id="矩形备份-165" fill="#1A1A1A" x="18" y="5" width="1" height="1"></rect>
                            <rect id="矩形备份-166" fill="#1A1A1A" x="18" y="6" width="1" height="1"></rect>
                            <rect id="矩形备份-167" fill="#1A1A1A" x="19" y="7" width="1" height="1"></rect>
                            <rect id="矩形备份-168" fill="#1A1A1A" x="19" y="8" width="1" height="1"></rect>
                            <rect id="矩形备份-169" fill="#1A1A1A" x="19" y="9" width="1" height="1"></rect>
                            <rect id="矩形备份-170" fill="#1A1A1A" x="19" y="10" width="1" height="1"></rect>
                            <rect id="矩形备份-171" fill="#1A1A1A" x="18" y="11" width="1" height="1"></rect>
                            <rect id="矩形备份-172" fill="#1A1A1A" x="17" y="12" width="1" height="1"></rect>
                            <rect id="矩形备份-173" fill="#1A1A1A" x="16" y="12" width="1" height="1"></rect>
                            <rect id="矩形备份-174" fill="#1A1A1A" x="15" y="12" width="1" height="1"></rect>
                            <rect id="矩形备份-175" fill="#1A1A1A" x="14" y="12" width="1" height="1"></rect>
                            <rect id="矩形备份-177" fill="#1A1A1A" x="13" y="11" width="1" height="1"></rect>
                            <rect id="矩形备份-179" fill="#1A1A1A" x="14" y="10" width="1" height="1"></rect>
                            <rect id="矩形备份-180" fill="#1A1A1A" x="15" y="10" width="1" height="1"></rect>
                            <rect id="矩形备份-181" fill="#1A1A1A" x="16" y="10" width="1" height="1"></rect>
                            <rect id="矩形备份-182" fill="#1A1A1A" x="17" y="10" width="1" height="1"></rect>
                            <rect id="矩形备份-183" fill="#1A1A1A" x="17" y="9" width="1" height="1"></rect>
                            <rect id="矩形备份-184" fill="#1A1A1A" x="17" y="8" width="1" height="1"></rect>
                            <rect id="矩形备份-185" fill="#1A1A1A" x="17" y="7" width="1" height="1"></rect>
                            <rect id="矩形备份-186" fill="#1A1A1A" x="16" y="7" width="1" height="1"></rect>
                            <rect id="矩形备份-187" fill="#1A1A1A" x="15" y="7" width="1" height="1"></rect>
                            <rect id="矩形备份-188" fill="#1A1A1A" x="14" y="6" width="1" height="1"></rect>
                            <rect id="矩形备份-189" fill="#1A1A1A" x="13" y="5" width="1" height="1"></rect>
                            <rect id="矩形备份-190" fill="#1A1A1A" x="13" y="4" width="1" height="1"></rect>
                            <rect id="矩形备份-191" fill="#1A1A1A" x="13" y="3" width="1" height="1"></rect>
                            <rect id="矩形备份-192" fill="#1A1A1A" x="13" y="2" width="1" height="1"></rect>
                            <rect id="矩形备份-127" fill="#1A1A1A" x="9" y="1" width="1" height="1"></rect>
                            <rect id="矩形备份-128" fill="#1A1A1A" x="8" y="2" width="1" height="1"></rect>
                            <rect id="矩形备份-129" fill="#1A1A1A" x="8" y="3" width="1" height="1"></rect>
                            <rect id="矩形备份-130" fill="#1A1A1A" x="8" y="4" width="1" height="1"></rect>
                            <rect id="矩形备份-131" fill="#1A1A1A" x="8" y="5" width="1" height="1"></rect>
                            <rect id="矩形备份-132" fill="#1A1A1A" x="8" y="6" width="1" height="1"></rect>
                            <rect id="矩形备份-133" fill="#1A1A1A" x="8" y="7" width="1" height="1"></rect>
                            <rect id="矩形备份-134" fill="#1A1A1A" x="8" y="8" width="1" height="1"></rect>
                            <rect id="矩形备份-135" fill="#1A1A1A" x="8" y="9" width="1" height="1"></rect>
                            <rect id="矩形备份-136" fill="#1A1A1A" x="8" y="10" width="1" height="1"></rect>
                            <rect id="矩形备份-137" fill="#1A1A1A" x="7" y="11" width="1" height="1"></rect>
                            <rect id="矩形备份-138" fill="#1A1A1A" x="8" y="12" width="1" height="1"></rect>
                            <rect id="矩形备份-139" fill="#1A1A1A" x="9" y="11" width="1" height="1"></rect>
                            <rect id="矩形备份-140" fill="#1A1A1A" x="10" y="10" width="1" height="1"></rect>
                            <rect id="矩形备份-141" fill="#1A1A1A" x="10" y="9" width="1" height="1"></rect>
                            <rect id="矩形备份-142" fill="#1A1A1A" x="10" y="8" width="1" height="1"></rect>
                            <rect id="矩形备份-143" fill="#1A1A1A" x="10" y="7" width="1" height="1"></rect>
                            <rect id="矩形备份-144" fill="#1A1A1A" x="10" y="6" width="1" height="1"></rect>
                            <rect id="矩形备份-145" fill="#1A1A1A" x="10" y="5" width="1" height="1"></rect>
                            <rect id="矩形备份-146" fill="#1A1A1A" x="10" y="4" width="1" height="1"></rect>
                            <rect id="矩形备份-147" fill="#1A1A1A" x="10" y="3" width="1" height="1"></rect>
                            <rect id="矩形备份-148" fill="#1A1A1A" x="10" y="2" width="1" height="1"></rect>
                            <rect id="矩形备份-32" fill="#FF65CB" x="9" y="2" width="1" height="1"></rect>
                            <rect id="矩形备份-43" fill="#FF65CB" x="17" y="1" width="1" height="1"></rect>
                            <rect id="矩形备份-53" fill="#FF65CB" x="18" y="1" width="1" height="1"></rect>
                            <rect id="矩形备份-63" fill="#FF65CB" x="22" y="1" width="1" height="1"></rect>
                            <rect id="矩形备份-64" fill="#FF65CB" x="22" y="2" width="1" height="1"></rect>
                            <rect id="矩形备份-65" fill="#FF65CB" x="22" y="3" width="1" height="1"></rect>
                            <rect id="矩形备份-66" fill="#FF65CB" x="22" y="4" width="1" height="1"></rect>
                            <rect id="矩形备份-67" fill="#FF65CB" x="22" y="5" width="1" height="1"></rect>
                            <rect id="矩形备份-68" fill="#FF65CB" x="22" y="6" width="1" height="1"></rect>
                            <rect id="矩形备份-74" fill="#FF65CB" x="23" y="6" width="1" height="1"></rect>
                            <rect id="矩形备份-75" fill="#FF65CB" x="24" y="5" width="1" height="1"></rect>
                            <rect id="矩形备份-76" fill="#FF65CB" x="25" y="6" width="1" height="1"></rect>
                            <rect id="矩形备份-77" fill="#FF65CB" x="26" y="1" width="1" height="1"></rect>
                            <rect id="矩形备份-78" fill="#FF65CB" x="26" y="2" width="1" height="1"></rect>
                            <rect id="矩形备份-79" fill="#FF65CB" x="26" y="3" width="1" height="1"></rect>
                            <rect id="矩形备份-80" fill="#FF65CB" x="26" y="4" width="1" height="1"></rect>
                            <rect id="矩形备份-81" fill="#FF65CB" x="26" y="5" width="1" height="1"></rect>
                            <rect id="矩形备份-82" fill="#FF65CB" x="26" y="6" width="1" height="1"></rect>
                            <rect id="矩形备份-83" fill="#FF65CB" x="26" y="7" width="1" height="1"></rect>
                            <rect id="矩形备份-84" fill="#FF65CB" x="26" y="8" width="1" height="1"></rect>
                            <rect id="矩形备份-85" fill="#FF65CB" x="26" y="9" width="1" height="1"></rect>
                            <rect id="矩形备份-86" fill="#FF65CB" x="26" y="10" width="1" height="1"></rect>
                            <rect id="矩形备份-87" fill="#FF65CB" x="26" y="11" width="1" height="1"></rect>
                            <rect id="矩形备份-69" fill="#FF65CB" x="22" y="7" width="1" height="1"></rect>
                            <rect id="矩形备份-70" fill="#FF65CB" x="22" y="8" width="1" height="1"></rect>
                            <rect id="矩形备份-71" fill="#FF65CB" x="22" y="9" width="1" height="1"></rect>
                            <rect id="矩形备份-72" fill="#FF65CB" x="22" y="10" width="1" height="1"></rect>
                            <rect id="矩形备份-73" fill="#FF65CB" x="22" y="11" width="1" height="1"></rect>
                            <rect id="矩形备份-58" fill="#FF65CB" x="16" y="1" width="1" height="1"></rect>
                            <rect id="矩形备份-59" fill="#FF65CB" x="16" y="1" width="1" height="1"></rect>
                            <rect id="矩形备份-61" fill="#FF65CB" x="15" y="1" width="1" height="1"></rect>
                            <rect id="矩形备份-44" fill="#FF65CB" x="14" y="3" width="1" height="1"></rect>
                            <rect id="矩形备份-45" fill="#FF65CB" x="14" y="2" width="1" height="1"></rect>
                            <rect id="矩形备份-46" fill="#FF65CB" x="14" y="4" width="1" height="1"></rect>
                            <rect id="矩形备份-50" fill="#FF65CB" x="14" y="5" width="1" height="1"></rect>
                            <rect id="矩形备份-47" fill="#FF65CB" x="15" y="6" width="1" height="1"></rect>
                            <rect id="矩形备份-48" fill="#FF65CB" x="18" y="8" width="1" height="1"></rect>
                            <rect id="矩形备份-49" fill="#FF65CB" x="18" y="10" width="1" height="1"></rect>
                            <rect id="矩形备份-62" fill="#FF65CB" x="17" y="11" width="1" height="1"></rect>
                            <rect id="矩形备份-51" fill="#FF65CB" x="16" y="6" width="1" height="1"></rect>
                            <rect id="矩形备份-60" fill="#FF65CB" x="17" y="6" width="1" height="1"></rect>
                            <rect id="矩形备份-52" fill="#FF65CB" x="18" y="7" width="1" height="1"></rect>
                            <rect id="矩形备份-54" fill="#FF65CB" x="18" y="9" width="1" height="1"></rect>
                            <rect id="矩形备份-55" fill="#FF65CB" x="14" y="11" width="1" height="1"></rect>
                            <rect id="矩形备份-56" fill="#FF65CB" x="15" y="11" width="1" height="1"></rect>
                            <rect id="矩形备份-57" fill="#FF65CB" x="16" y="11" width="1" height="1"></rect>
                            <rect id="矩形备份-33" fill="#FF65CB" x="9" y="3" width="1" height="1"></rect>
                            <rect id="矩形备份-34" fill="#FF65CB" x="9" y="4" width="1" height="1"></rect>
                            <rect id="矩形备份-35" fill="#FF65CB" x="9" y="5" width="1" height="1"></rect>
                            <rect id="矩形备份-36" fill="#FF65CB" x="9" y="6" width="1" height="1"></rect>
                            <rect id="矩形备份-37" fill="#FF65CB" x="9" y="7" width="1" height="1"></rect>
                            <rect id="矩形备份-38" fill="#FF65CB" x="9" y="8" width="1" height="1"></rect>
                            <rect id="矩形备份-39" fill="#FF65CB" x="9" y="9" width="1" height="1"></rect>
                            <rect id="矩形备份-40" fill="#FF65CB" x="9" y="10" width="1" height="1"></rect>
                            <rect id="矩形备份-42" fill="#FF65CB" x="8" y="11" width="1" height="1"></rect>
                            <rect id="矩形备份-5" fill="#FF65CB" x="2" y="1" width="1" height="1"></rect>
                            <rect id="矩形备份-28" fill="#FF65CB" x="1" y="1" width="1" height="1"></rect>
                            <rect id="矩形备份-29" fill="#1A1A1A" x="1" y="0" width="1" height="1"></rect>
                            <rect id="矩形备份-88" fill="#1A1A1A" x="2" y="0" width="1" height="1"></rect>
                            <rect id="矩形备份-89" fill="#1A1A1A" x="3" y="0" width="1" height="1"></rect>
                            <rect id="矩形备份-90" fill="#1A1A1A" x="4" y="0" width="1" height="1"></rect>
                            <rect id="矩形备份-91" fill="#1A1A1A" x="5" y="0" width="1" height="1"></rect>
                            <rect id="矩形备份-92" fill="#1A1A1A" x="5" y="1" width="1" height="1"></rect>
                            <rect id="矩形备份-93" fill="#1A1A1A" x="5" y="2" width="1" height="1"></rect>
                            <rect id="矩形备份-94" fill="#1A1A1A" x="4" y="2" width="1" height="1"></rect>
                            <rect id="矩形备份-95" fill="#1A1A1A" x="3" y="2" width="1" height="1"></rect>
                            <rect id="矩形备份-96" fill="#1A1A1A" x="2" y="2" width="1" height="1"></rect>
                            <rect id="矩形备份-97" fill="#1A1A1A" x="2" y="3" width="1" height="1"></rect>
                            <rect id="矩形备份-98" fill="#1A1A1A" x="2" y="4" width="1" height="1"></rect>
                            <rect id="矩形备份-99" fill="#1A1A1A" x="2" y="5" width="1" height="1"></rect>
                            <rect id="矩形备份-100" fill="#1A1A1A" x="3" y="5" width="1" height="1"></rect>
                            <rect id="矩形备份-101" fill="#1A1A1A" x="4" y="4" width="1" height="1"></rect>
                            <rect id="矩形备份-102" fill="#1A1A1A" x="5" y="5" width="1" height="1"></rect>
                            <rect id="矩形备份-103" fill="#1A1A1A" x="4" y="6" width="1" height="1"></rect>
                            <rect id="矩形备份-104" fill="#1A1A1A" x="3" y="7" width="1" height="1"></rect>
                            <rect id="矩形备份-105" fill="#1A1A1A" x="2" y="7" width="1" height="1"></rect>
                            <rect id="矩形备份-106" fill="#1A1A1A" x="2" y="8" width="1" height="1"></rect>
                            <rect id="矩形备份-107" fill="#1A1A1A" x="2" y="9" width="1" height="1"></rect>
                            <rect id="矩形备份-108" fill="#1A1A1A" x="2" y="10" width="1" height="1"></rect>
                            <rect id="矩形备份-109" fill="#1A1A1A" x="2" y="11" width="1" height="1"></rect>
                            <rect id="矩形备份-110" fill="#1A1A1A" x="2" y="12" width="1" height="1"></rect>
                            <rect id="矩形备份-111" fill="#1A1A1A" x="1" y="12" width="1" height="1"></rect>
                            <rect id="矩形备份-112" fill="#1A1A1A" x="0" y="12" width="1" height="1"></rect>
                            <rect id="矩形备份-113" fill="#1A1A1A" x="0" y="11" width="1" height="1"></rect>
                            <rect id="矩形备份-114" fill="#1A1A1A" x="0" y="10" width="1" height="1"></rect>
                            <rect id="矩形备份-115" fill="#1A1A1A" x="0" y="9" width="1" height="1"></rect>
                            <rect id="矩形备份-116" fill="#1A1A1A" x="0" y="8" width="1" height="1"></rect>
                            <rect id="矩形备份-117" fill="#1A1A1A" x="0" y="7" width="1" height="1"></rect>
                            <rect id="矩形备份-118" fill="#1A1A1A" x="0" y="6" width="1" height="1"></rect>
                            <rect id="矩形备份-119" fill="#1A1A1A" x="0" y="5" width="1" height="1"></rect>
                            <rect id="矩形备份-120" fill="#1A1A1A" x="0" y="4" width="1" height="1"></rect>
                            <rect id="矩形备份-121" fill="#1A1A1A" x="0" y="3" width="1" height="1"></rect>
                            <rect id="矩形备份-122" fill="#1A1A1A" x="0" y="2" width="1" height="1"></rect>
                            <rect id="矩形备份-123" fill="#1A1A1A" x="0" y="1" width="1" height="1"></rect>
                            <rect id="矩形备份-124" fill="#1A1A1A" x="0" y="0" width="1" height="1"></rect>
                            <rect id="矩形备份-31" fill="#FF65CB" x="1" y="11" width="1" height="1"></rect>
                            <rect id="矩形备份-10" fill="#FF65CB" x="1" y="6" width="1" height="1"></rect>
                            <rect id="矩形备份-18" fill="#FF65CB" x="2" y="6" width="1" height="1"></rect>
                            <rect id="矩形备份-17" fill="#FF65CB" x="3" y="6" width="1" height="1"></rect>
                            <rect id="矩形备份-19" fill="#FF65CB" x="4" y="5" width="1" height="1"></rect>
                            <rect id="矩形备份-12" fill="#FF65CB" x="1" y="7" width="1" height="1"></rect>
                            <rect id="矩形备份-14" fill="#FF65CB" x="1" y="8" width="1" height="1"></rect>
                            <rect id="矩形备份-16" fill="#FF65CB" x="1" y="9" width="1" height="1"></rect>
                            <rect id="矩形备份-21" fill="#FF65CB" x="1" y="10" width="1" height="1"></rect>
                        </g>
                    </g>
                    <rect id="矩形" fill="#FF65CB" x="5" y="30" width="24" height="1"></rect>
                    <rect id="矩形" fill="#1A1A1A" x="4" y="30" width="1" height="1"></rect>
                    <rect id="矩形备份-252" fill="#1A1A1A" x="5" y="29" width="1" height="1"></rect>
                    <rect id="矩形备份-253" fill="#1A1A1A" x="6" y="29" width="1" height="1"></rect>
                    <rect id="矩形备份-254" fill="#1A1A1A" x="7" y="29" width="1" height="1"></rect>
                    <rect id="矩形备份-255" fill="#1A1A1A" x="8" y="29" width="1" height="1"></rect>
                    <rect id="矩形备份-256" fill="#1A1A1A" x="9" y="29" width="1" height="1"></rect>
                    <rect id="矩形备份-257" fill="#1A1A1A" x="10" y="29" width="1" height="1"></rect>
                    <rect id="矩形备份-258" fill="#1A1A1A" x="11" y="29" width="1" height="1"></rect>
                    <rect id="矩形备份-259" fill="#1A1A1A" x="12" y="29" width="1" height="1"></rect>
                    <rect id="矩形备份-260" fill="#1A1A1A" x="13" y="29" width="1" height="1"></rect>
                    <rect id="矩形备份-261" fill="#1A1A1A" x="14" y="29" width="1" height="1"></rect>
                    <rect id="矩形备份-262" fill="#1A1A1A" x="15" y="29" width="1" height="1"></rect>
                    <rect id="矩形备份-263" fill="#1A1A1A" x="16" y="29" width="1" height="1"></rect>
                    <rect id="矩形备份-264" fill="#1A1A1A" x="17" y="29" width="1" height="1"></rect>
                    <rect id="矩形备份-265" fill="#1A1A1A" x="18" y="29" width="1" height="1"></rect>
                    <rect id="矩形备份-266" fill="#1A1A1A" x="19" y="29" width="1" height="1"></rect>
                    <rect id="矩形备份-267" fill="#1A1A1A" x="20" y="29" width="1" height="1"></rect>
                    <rect id="矩形备份-268" fill="#1A1A1A" x="21" y="29" width="1" height="1"></rect>
                    <rect id="矩形备份-269" fill="#1A1A1A" x="22" y="29" width="1" height="1"></rect>
                    <rect id="矩形备份-270" fill="#1A1A1A" x="23" y="29" width="1" height="1"></rect>
                    <rect id="矩形备份-271" fill="#1A1A1A" x="24" y="29" width="1" height="1"></rect>
                    <rect id="矩形备份-272" fill="#1A1A1A" x="25" y="29" width="1" height="1"></rect>
                    <rect id="矩形备份-273" fill="#1A1A1A" x="26" y="29" width="1" height="1"></rect>
                    <rect id="矩形备份-274" fill="#1A1A1A" x="27" y="29" width="1" height="1"></rect>
                    <rect id="矩形备份-275" fill="#1A1A1A" x="28" y="29" width="1" height="1"></rect>
                    <rect id="矩形备份" fill="#1A1A1A" x="5" y="31" width="1" height="1"></rect>
                    <rect id="矩形备份-8" fill="#1A1A1A" x="6" y="31" width="1" height="1"></rect>
                    <rect id="矩形备份-9" fill="#1A1A1A" x="7" y="31" width="1" height="1"></rect>
                    <rect id="矩形备份-11" fill="#1A1A1A" x="8" y="31" width="1" height="1"></rect>
                    <rect id="矩形备份-13" fill="#1A1A1A" x="9" y="31" width="1" height="1"></rect>
                    <rect id="矩形备份-15" fill="#1A1A1A" x="10" y="31" width="1" height="1"></rect>
                    <rect id="矩形备份-20" fill="#1A1A1A" x="11" y="31" width="1" height="1"></rect>
                    <rect id="矩形备份-22" fill="#1A1A1A" x="12" y="31" width="1" height="1"></rect>
                    <rect id="矩形备份-23" fill="#1A1A1A" x="13" y="31" width="1" height="1"></rect>
                    <rect id="矩形备份-24" fill="#1A1A1A" x="14" y="31" width="1" height="1"></rect>
                    <rect id="矩形备份-25" fill="#1A1A1A" x="15" y="31" width="1" height="1"></rect>
                    <rect id="矩形备份-27" fill="#1A1A1A" x="16" y="31" width="1" height="1"></rect>
                    <rect id="矩形备份-239" fill="#1A1A1A" x="17" y="31" width="1" height="1"></rect>
                    <rect id="矩形备份-240" fill="#1A1A1A" x="18" y="31" width="1" height="1"></rect>
                    <rect id="矩形备份-241" fill="#1A1A1A" x="19" y="31" width="1" height="1"></rect>
                    <rect id="矩形备份-242" fill="#1A1A1A" x="20" y="31" width="1" height="1"></rect>
                    <rect id="矩形备份-243" fill="#1A1A1A" x="21" y="31" width="1" height="1"></rect>
                    <rect id="矩形备份-244" fill="#1A1A1A" x="22" y="31" width="1" height="1"></rect>
                    <rect id="矩形备份-245" fill="#1A1A1A" x="23" y="31" width="1" height="1"></rect>
                    <rect id="矩形备份-246" fill="#1A1A1A" x="24" y="31" width="1" height="1"></rect>
                    <rect id="矩形备份-247" fill="#1A1A1A" x="25" y="31" width="1" height="1"></rect>
                    <rect id="矩形备份-248" fill="#1A1A1A" x="26" y="31" width="1" height="1"></rect>
                    <rect id="矩形备份-249" fill="#1A1A1A" x="27" y="31" width="1" height="1"></rect>
                    <rect id="矩形备份-250" fill="#1A1A1A" x="28" y="31" width="1" height="1"></rect>
                    <rect id="矩形备份-251" fill="#1A1A1A" x="29" y="30" width="1" height="1"></rect>
                </g>
            </g>
        </g>
    </g>
</svg>