<?xml version="1.0" encoding="UTF-8"?>
<svg width="34px" height="34px" viewBox="0 0 34 34" version="1.1" xmlns="http://www.w3.org/2000/svg" xmlns:xlink="http://www.w3.org/1999/xlink">
    <title>fin_5</title>
    <g id="页面-1" stroke="none" stroke-width="1" fill="none" fill-rule="evenodd">
        <g id="My-Fish" transform="translate(-6.000000, -460.000000)">
            <g id="Fins" transform="translate(6.000000, 421.000000)">
                <g id="5" transform="translate(0.000000, 39.000000)">
                    <rect id="矩形" x="0" y="0" width="34" height="34"></rect>
                    <g id="编组-2" transform="translate(7.000000, 9.000000)" fill="#1E2028">
                        <rect id="矩形备份-52" x="5" y="2" width="1" height="1"></rect>
                        <rect id="矩形备份-195" x="4" y="3" width="1" height="1"></rect>
                        <rect id="矩形备份-198" x="4" y="2" width="1" height="1"></rect>
                        <rect id="矩形备份-196" x="4" y="1" width="1" height="1"></rect>
                        <rect id="矩形备份-199" x="5" y="1" width="1" height="1"></rect>
                        <rect id="矩形备份-200" x="6" y="0" width="1" height="1"></rect>
                        <rect id="矩形备份-202" x="5" y="0" width="1" height="1"></rect>
                        <rect id="矩形备份-197" x="3" y="1" width="1" height="1"></rect>
                        <rect id="矩形备份-201" x="2" y="2" width="1" height="1"></rect>
                        <rect id="矩形备份-209" x="1" y="2" width="1" height="1"></rect>
                        <rect id="矩形备份-210" x="0" y="2" width="1" height="1"></rect>
                        <rect id="矩形备份-186" x="3" y="3" width="1" height="1"></rect>
                        <rect id="矩形备份-187" x="3" y="2" width="1" height="1"></rect>
                    </g>
                </g>
            </g>
        </g>
    </g>
</svg>