<?xml version="1.0" encoding="UTF-8"?>
<svg width="34px" height="34px" viewBox="0 0 34 34" version="1.1" xmlns="http://www.w3.org/2000/svg" xmlns:xlink="http://www.w3.org/1999/xlink">
    <title>frame_5</title>
    <g id="页面-1" stroke="none" stroke-width="1" fill="none" fill-rule="evenodd">
        <g id="My-Fish" transform="translate(-6.000000, -168.000000)">
            <g id="Frames" transform="translate(6.000000, 129.000000)">
                <g id="5" transform="translate(0.000000, 39.000000)">
                    <rect id="矩形" fill="#E8C199" x="0" y="0" width="1" height="1"></rect>
                    <rect id="矩形备份-8" fill="#E8C199" x="0" y="4" width="1" height="1"></rect>
                    <rect id="矩形备份" fill="#E8C199" x="0" y="2" width="1" height="1"></rect>
                    <rect id="矩形备份-9" fill="#E8C199" x="0" y="6" width="1" height="1"></rect>
                    <rect id="矩形备份-3" fill="#F4DBB7" x="0" y="3" width="1" height="1"></rect>
                    <rect id="矩形备份-10" fill="#F4DBB7" x="0" y="7" width="1" height="1"></rect>
                    <rect id="矩形备份-4" fill="#7B2B47" x="1" y="2" width="1" height="1"></rect>
                    <rect id="矩形备份-11" fill="#7B2B47" x="1" y="6" width="1" height="1"></rect>
                    <rect id="矩形备份-2" fill="#F4DBB7" x="0" y="1" width="1" height="1"></rect>
                    <rect id="矩形备份-12" fill="#F4DBB7" x="0" y="5" width="1" height="1"></rect>
                    <rect id="矩形备份-6" fill="#96664C" x="1" y="1" width="1" height="1"></rect>
                    <rect id="矩形备份-13" fill="#96664C" x="1" y="5" width="1" height="1"></rect>
                    <rect id="矩形备份-7" fill="#96664C" x="1" y="3" width="1" height="1"></rect>
                    <rect id="矩形备份-14" fill="#96664C" x="1" y="7" width="1" height="1"></rect>
                    <rect id="矩形备份-5" fill="#7B2B47" x="1" y="0" width="1" height="1"></rect>
                    <rect id="矩形备份-15" fill="#7B2B47" x="1" y="4" width="1" height="1"></rect>
                    <rect id="矩形备份-23" fill="#E8C199" x="0" y="8" width="1" height="1"></rect>
                    <rect id="矩形备份-22" fill="#E8C199" x="0" y="10" width="1" height="1"></rect>
                    <rect id="矩形备份-21" fill="#F4DBB7" x="0" y="11" width="1" height="1"></rect>
                    <rect id="矩形备份-20" fill="#7B2B47" x="1" y="10" width="1" height="1"></rect>
                    <rect id="矩形备份-19" fill="#F4DBB7" x="0" y="9" width="1" height="1"></rect>
                    <rect id="矩形备份-18" fill="#96664C" x="1" y="9" width="1" height="1"></rect>
                    <rect id="矩形备份-17" fill="#96664C" x="1" y="11" width="1" height="1"></rect>
                    <rect id="矩形备份-16" fill="#7B2B47" x="1" y="8" width="1" height="1"></rect>
                    <rect id="矩形备份-31" fill="#E8C199" x="0" y="12" width="1" height="1"></rect>
                    <rect id="矩形备份-30" fill="#E8C199" x="0" y="14" width="1" height="1"></rect>
                    <rect id="矩形备份-29" fill="#F4DBB7" x="0" y="15" width="1" height="1"></rect>
                    <rect id="矩形备份-28" fill="#7B2B47" x="1" y="14" width="1" height="1"></rect>
                    <rect id="矩形备份-27" fill="#F4DBB7" x="0" y="13" width="1" height="1"></rect>
                    <rect id="矩形备份-26" fill="#96664C" x="1" y="13" width="1" height="1"></rect>
                    <rect id="矩形备份-25" fill="#96664C" x="1" y="15" width="1" height="1"></rect>
                    <rect id="矩形备份-24" fill="#7B2B47" x="1" y="12" width="1" height="1"></rect>
                    <rect id="矩形备份-39" fill="#E8C199" x="0" y="16" width="1" height="1"></rect>
                    <rect id="矩形备份-38" fill="#E8C199" x="0" y="18" width="1" height="1"></rect>
                    <rect id="矩形备份-37" fill="#F4DBB7" x="0" y="19" width="1" height="1"></rect>
                    <rect id="矩形备份-36" fill="#7B2B47" x="1" y="18" width="1" height="1"></rect>
                    <rect id="矩形备份-35" fill="#F4DBB7" x="0" y="17" width="1" height="1"></rect>
                    <rect id="矩形备份-34" fill="#96664C" x="1" y="17" width="1" height="1"></rect>
                    <rect id="矩形备份-33" fill="#96664C" x="1" y="19" width="1" height="1"></rect>
                    <rect id="矩形备份-32" fill="#7B2B47" x="1" y="16" width="1" height="1"></rect>
                    <rect id="矩形备份-47" fill="#E8C199" x="0" y="20" width="1" height="1"></rect>
                    <rect id="矩形备份-46" fill="#E8C199" x="0" y="22" width="1" height="1"></rect>
                    <rect id="矩形备份-45" fill="#F4DBB7" x="0" y="23" width="1" height="1"></rect>
                    <rect id="矩形备份-44" fill="#7B2B47" x="1" y="22" width="1" height="1"></rect>
                    <rect id="矩形备份-43" fill="#F4DBB7" x="0" y="21" width="1" height="1"></rect>
                    <rect id="矩形备份-42" fill="#96664C" x="1" y="21" width="1" height="1"></rect>
                    <rect id="矩形备份-41" fill="#96664C" x="1" y="23" width="1" height="1"></rect>
                    <rect id="矩形备份-40" fill="#7B2B47" x="1" y="20" width="1" height="1"></rect>
                    <rect id="矩形备份-55" fill="#E8C199" x="0" y="24" width="1" height="1"></rect>
                    <rect id="矩形备份-54" fill="#E8C199" x="0" y="26" width="1" height="1"></rect>
                    <rect id="矩形备份-53" fill="#F4DBB7" x="0" y="27" width="1" height="1"></rect>
                    <rect id="矩形备份-52" fill="#7B2B47" x="1" y="26" width="1" height="1"></rect>
                    <rect id="矩形备份-51" fill="#F4DBB7" x="0" y="25" width="1" height="1"></rect>
                    <rect id="矩形备份-50" fill="#96664C" x="1" y="25" width="1" height="1"></rect>
                    <rect id="矩形备份-49" fill="#96664C" x="1" y="27" width="1" height="1"></rect>
                    <rect id="矩形备份-48" fill="#7B2B47" x="1" y="24" width="1" height="1"></rect>
                    <rect id="矩形备份-63" fill="#E8C199" x="0" y="28" width="1" height="1"></rect>
                    <rect id="矩形备份-62" fill="#E8C199" x="0" y="30" width="1" height="1"></rect>
                    <rect id="矩形备份-61" fill="#F4DBB7" x="0" y="31" width="1" height="1"></rect>
                    <rect id="矩形备份-60" fill="#7B2B47" x="1" y="30" width="1" height="1"></rect>
                    <rect id="矩形备份-59" fill="#F4DBB7" x="0" y="29" width="1" height="1"></rect>
                    <rect id="矩形备份-58" fill="#96664C" x="1" y="29" width="1" height="1"></rect>
                    <rect id="矩形备份-57" fill="#96664C" x="1" y="31" width="1" height="1"></rect>
                    <rect id="矩形备份-56" fill="#7B2B47" x="1" y="28" width="1" height="1"></rect>
                    <rect id="矩形备份-71" fill="#E8C199" x="0" y="32" width="1" height="1"></rect>
                    <rect id="矩形备份-72" fill="#E8C199" x="2" y="32" width="1" height="1"></rect>
                    <rect id="矩形备份-67" fill="#F4DBB7" x="0" y="33" width="1" height="1"></rect>
                    <rect id="矩形备份-68" fill="#F4DBB7" x="2" y="33" width="1" height="1"></rect>
                    <rect id="矩形备份-66" fill="#96664C" x="1" y="33" width="1" height="1"></rect>
                    <rect id="矩形备份-69" fill="#96664C" x="3" y="33" width="1" height="1"></rect>
                    <rect id="矩形备份-64" fill="#7B2B47" x="1" y="32" width="1" height="1"></rect>
                    <rect id="矩形备份-65" fill="#7B2B47" x="3" y="32" width="1" height="1"></rect>
                    <rect id="矩形备份-75" fill="#E8C199" x="4" y="32" width="1" height="1"></rect>
                    <rect id="矩形备份-74" fill="#F4DBB7" x="4" y="33" width="1" height="1"></rect>
                    <rect id="矩形备份-73" fill="#96664C" x="5" y="33" width="1" height="1"></rect>
                    <rect id="矩形备份-70" fill="#7B2B47" x="5" y="32" width="1" height="1"></rect>
                    <rect id="矩形备份-79" fill="#E8C199" x="6" y="32" width="1" height="1"></rect>
                    <rect id="矩形备份-78" fill="#F4DBB7" x="6" y="33" width="1" height="1"></rect>
                    <rect id="矩形备份-77" fill="#96664C" x="7" y="33" width="1" height="1"></rect>
                    <rect id="矩形备份-76" fill="#7B2B47" x="7" y="32" width="1" height="1"></rect>
                    <rect id="矩形备份-83" fill="#E8C199" x="8" y="32" width="1" height="1"></rect>
                    <rect id="矩形备份-82" fill="#F4DBB7" x="8" y="33" width="1" height="1"></rect>
                    <rect id="矩形备份-81" fill="#96664C" x="9" y="33" width="1" height="1"></rect>
                    <rect id="矩形备份-80" fill="#7B2B47" x="9" y="32" width="1" height="1"></rect>
                    <rect id="矩形备份-87" fill="#E8C199" x="10" y="32" width="1" height="1"></rect>
                    <rect id="矩形备份-86" fill="#F4DBB7" x="10" y="33" width="1" height="1"></rect>
                    <rect id="矩形备份-85" fill="#96664C" x="11" y="33" width="1" height="1"></rect>
                    <rect id="矩形备份-84" fill="#7B2B47" x="11" y="32" width="1" height="1"></rect>
                    <rect id="矩形备份-91" fill="#E8C199" x="12" y="32" width="1" height="1"></rect>
                    <rect id="矩形备份-90" fill="#F4DBB7" x="12" y="33" width="1" height="1"></rect>
                    <rect id="矩形备份-89" fill="#96664C" x="13" y="33" width="1" height="1"></rect>
                    <rect id="矩形备份-88" fill="#7B2B47" x="13" y="32" width="1" height="1"></rect>
                    <rect id="矩形备份-95" fill="#E8C199" x="14" y="32" width="1" height="1"></rect>
                    <rect id="矩形备份-94" fill="#F4DBB7" x="14" y="33" width="1" height="1"></rect>
                    <rect id="矩形备份-93" fill="#96664C" x="15" y="33" width="1" height="1"></rect>
                    <rect id="矩形备份-92" fill="#7B2B47" x="15" y="32" width="1" height="1"></rect>
                    <rect id="矩形备份-99" fill="#E8C199" x="16" y="32" width="1" height="1"></rect>
                    <rect id="矩形备份-98" fill="#F4DBB7" x="16" y="33" width="1" height="1"></rect>
                    <rect id="矩形备份-97" fill="#96664C" x="17" y="33" width="1" height="1"></rect>
                    <rect id="矩形备份-96" fill="#7B2B47" x="17" y="32" width="1" height="1"></rect>
                    <rect id="矩形备份-103" fill="#E8C199" x="18" y="32" width="1" height="1"></rect>
                    <rect id="矩形备份-102" fill="#F4DBB7" x="18" y="33" width="1" height="1"></rect>
                    <rect id="矩形备份-101" fill="#96664C" x="19" y="33" width="1" height="1"></rect>
                    <rect id="矩形备份-100" fill="#7B2B47" x="19" y="32" width="1" height="1"></rect>
                    <rect id="矩形备份-107" fill="#E8C199" x="20" y="32" width="1" height="1"></rect>
                    <rect id="矩形备份-106" fill="#F4DBB7" x="20" y="33" width="1" height="1"></rect>
                    <rect id="矩形备份-105" fill="#96664C" x="21" y="33" width="1" height="1"></rect>
                    <rect id="矩形备份-104" fill="#7B2B47" x="21" y="32" width="1" height="1"></rect>
                    <rect id="矩形备份-111" fill="#E8C199" x="22" y="32" width="1" height="1"></rect>
                    <rect id="矩形备份-110" fill="#F4DBB7" x="22" y="33" width="1" height="1"></rect>
                    <rect id="矩形备份-109" fill="#96664C" x="23" y="33" width="1" height="1"></rect>
                    <rect id="矩形备份-108" fill="#7B2B47" x="23" y="32" width="1" height="1"></rect>
                    <rect id="矩形备份-115" fill="#E8C199" x="24" y="32" width="1" height="1"></rect>
                    <rect id="矩形备份-114" fill="#F4DBB7" x="24" y="33" width="1" height="1"></rect>
                    <rect id="矩形备份-113" fill="#96664C" x="25" y="33" width="1" height="1"></rect>
                    <rect id="矩形备份-112" fill="#7B2B47" x="25" y="32" width="1" height="1"></rect>
                    <rect id="矩形备份-119" fill="#E8C199" x="26" y="32" width="1" height="1"></rect>
                    <rect id="矩形备份-118" fill="#F4DBB7" x="26" y="33" width="1" height="1"></rect>
                    <rect id="矩形备份-117" fill="#96664C" x="27" y="33" width="1" height="1"></rect>
                    <rect id="矩形备份-116" fill="#7B2B47" x="27" y="32" width="1" height="1"></rect>
                    <rect id="矩形备份-123" fill="#E8C199" x="28" y="32" width="1" height="1"></rect>
                    <rect id="矩形备份-122" fill="#F4DBB7" x="28" y="33" width="1" height="1"></rect>
                    <rect id="矩形备份-121" fill="#96664C" x="29" y="33" width="1" height="1"></rect>
                    <rect id="矩形备份-120" fill="#7B2B47" x="29" y="32" width="1" height="1"></rect>
                    <rect id="矩形备份-127" fill="#E8C199" x="30" y="32" width="1" height="1"></rect>
                    <rect id="矩形备份-126" fill="#F4DBB7" x="30" y="33" width="1" height="1"></rect>
                    <rect id="矩形备份-125" fill="#96664C" x="31" y="33" width="1" height="1"></rect>
                    <rect id="矩形备份-124" fill="#7B2B47" x="31" y="32" width="1" height="1"></rect>
                    <rect id="矩形备份-131" fill="#E8C199" x="32" y="32" width="1" height="1"></rect>
                    <rect id="矩形备份-136" fill="#E8C199" x="32" y="28" width="1" height="1"></rect>
                    <rect id="矩形备份-134" fill="#E8C199" x="32" y="30" width="1" height="1"></rect>
                    <rect id="矩形备份-137" fill="#E8C199" x="32" y="26" width="1" height="1"></rect>
                    <rect id="矩形备份-130" fill="#F4DBB7" x="32" y="33" width="1" height="1"></rect>
                    <rect id="矩形备份-138" fill="#F4DBB7" x="32" y="29" width="1" height="1"></rect>
                    <rect id="矩形备份-132" fill="#F4DBB7" x="32" y="31" width="1" height="1"></rect>
                    <rect id="矩形备份-139" fill="#F4DBB7" x="32" y="27" width="1" height="1"></rect>
                    <rect id="矩形备份-129" fill="#96664C" x="33" y="33" width="1" height="1"></rect>
                    <rect id="矩形备份-140" fill="#96664C" x="33" y="29" width="1" height="1"></rect>
                    <rect id="矩形备份-133" fill="#96664C" x="33" y="31" width="1" height="1"></rect>
                    <rect id="矩形备份-141" fill="#96664C" x="33" y="27" width="1" height="1"></rect>
                    <rect id="矩形备份-128" fill="#7B2B47" x="33" y="32" width="1" height="1"></rect>
                    <rect id="矩形备份-142" fill="#7B2B47" x="33" y="28" width="1" height="1"></rect>
                    <rect id="矩形备份-135" fill="#7B2B47" x="33" y="30" width="1" height="1"></rect>
                    <rect id="矩形备份-143" fill="#7B2B47" x="33" y="26" width="1" height="1"></rect>
                    <rect id="矩形备份-151" fill="#E8C199" x="32" y="24" width="1" height="1"></rect>
                    <rect id="矩形备份-150" fill="#E8C199" x="32" y="22" width="1" height="1"></rect>
                    <rect id="矩形备份-149" fill="#F4DBB7" x="32" y="25" width="1" height="1"></rect>
                    <rect id="矩形备份-148" fill="#F4DBB7" x="32" y="23" width="1" height="1"></rect>
                    <rect id="矩形备份-147" fill="#96664C" x="33" y="25" width="1" height="1"></rect>
                    <rect id="矩形备份-146" fill="#96664C" x="33" y="23" width="1" height="1"></rect>
                    <rect id="矩形备份-145" fill="#7B2B47" x="33" y="24" width="1" height="1"></rect>
                    <rect id="矩形备份-144" fill="#7B2B47" x="33" y="22" width="1" height="1"></rect>
                    <rect id="矩形备份-159" fill="#E8C199" x="32" y="20" width="1" height="1"></rect>
                    <rect id="矩形备份-158" fill="#E8C199" x="32" y="18" width="1" height="1"></rect>
                    <rect id="矩形备份-157" fill="#F4DBB7" x="32" y="21" width="1" height="1"></rect>
                    <rect id="矩形备份-156" fill="#F4DBB7" x="32" y="19" width="1" height="1"></rect>
                    <rect id="矩形备份-155" fill="#96664C" x="33" y="21" width="1" height="1"></rect>
                    <rect id="矩形备份-154" fill="#96664C" x="33" y="19" width="1" height="1"></rect>
                    <rect id="矩形备份-153" fill="#7B2B47" x="33" y="20" width="1" height="1"></rect>
                    <rect id="矩形备份-152" fill="#7B2B47" x="33" y="18" width="1" height="1"></rect>
                    <rect id="矩形备份-167" fill="#E8C199" x="32" y="16" width="1" height="1"></rect>
                    <rect id="矩形备份-166" fill="#E8C199" x="32" y="14" width="1" height="1"></rect>
                    <rect id="矩形备份-165" fill="#F4DBB7" x="32" y="17" width="1" height="1"></rect>
                    <rect id="矩形备份-164" fill="#F4DBB7" x="32" y="15" width="1" height="1"></rect>
                    <rect id="矩形备份-163" fill="#96664C" x="33" y="17" width="1" height="1"></rect>
                    <rect id="矩形备份-162" fill="#96664C" x="33" y="15" width="1" height="1"></rect>
                    <rect id="矩形备份-161" fill="#7B2B47" x="33" y="16" width="1" height="1"></rect>
                    <rect id="矩形备份-160" fill="#7B2B47" x="33" y="14" width="1" height="1"></rect>
                    <rect id="矩形备份-175" fill="#E8C199" x="32" y="12" width="1" height="1"></rect>
                    <rect id="矩形备份-174" fill="#E8C199" x="32" y="10" width="1" height="1"></rect>
                    <rect id="矩形备份-173" fill="#F4DBB7" x="32" y="13" width="1" height="1"></rect>
                    <rect id="矩形备份-172" fill="#F4DBB7" x="32" y="11" width="1" height="1"></rect>
                    <rect id="矩形备份-171" fill="#96664C" x="33" y="13" width="1" height="1"></rect>
                    <rect id="矩形备份-170" fill="#96664C" x="33" y="11" width="1" height="1"></rect>
                    <rect id="矩形备份-169" fill="#7B2B47" x="33" y="12" width="1" height="1"></rect>
                    <rect id="矩形备份-168" fill="#7B2B47" x="33" y="10" width="1" height="1"></rect>
                    <rect id="矩形备份-183" fill="#E8C199" x="32" y="8" width="1" height="1"></rect>
                    <rect id="矩形备份-182" fill="#E8C199" x="32" y="6" width="1" height="1"></rect>
                    <rect id="矩形备份-181" fill="#F4DBB7" x="32" y="9" width="1" height="1"></rect>
                    <rect id="矩形备份-180" fill="#F4DBB7" x="32" y="7" width="1" height="1"></rect>
                    <rect id="矩形备份-179" fill="#96664C" x="33" y="9" width="1" height="1"></rect>
                    <rect id="矩形备份-178" fill="#96664C" x="33" y="7" width="1" height="1"></rect>
                    <rect id="矩形备份-177" fill="#7B2B47" x="33" y="8" width="1" height="1"></rect>
                    <rect id="矩形备份-176" fill="#7B2B47" x="33" y="6" width="1" height="1"></rect>
                    <rect id="矩形备份-191" fill="#E8C199" x="32" y="4" width="1" height="1"></rect>
                    <rect id="矩形备份-190" fill="#E8C199" x="32" y="2" width="1" height="1"></rect>
                    <rect id="矩形备份-189" fill="#F4DBB7" x="32" y="5" width="1" height="1"></rect>
                    <rect id="矩形备份-188" fill="#F4DBB7" x="32" y="3" width="1" height="1"></rect>
                    <rect id="矩形备份-187" fill="#96664C" x="33" y="5" width="1" height="1"></rect>
                    <rect id="矩形备份-186" fill="#96664C" x="33" y="3" width="1" height="1"></rect>
                    <rect id="矩形备份-185" fill="#7B2B47" x="33" y="4" width="1" height="1"></rect>
                    <rect id="矩形备份-184" fill="#7B2B47" x="33" y="2" width="1" height="1"></rect>
                    <rect id="矩形备份-199" fill="#E8C199" x="32" y="0" width="1" height="1"></rect>
                    <rect id="矩形备份-200" fill="#E8C199" x="30" y="0" width="1" height="1"></rect>
                    <rect id="矩形备份-197" fill="#F4DBB7" x="32" y="1" width="1" height="1"></rect>
                    <rect id="矩形备份-198" fill="#F4DBB7" x="30" y="1" width="1" height="1"></rect>
                    <rect id="矩形备份-195" fill="#96664C" x="33" y="1" width="1" height="1"></rect>
                    <rect id="矩形备份-196" fill="#96664C" x="31" y="1" width="1" height="1"></rect>
                    <rect id="矩形备份-193" fill="#7B2B47" x="33" y="0" width="1" height="1"></rect>
                    <rect id="矩形备份-194" fill="#7B2B47" x="31" y="0" width="1" height="1"></rect>
                    <rect id="矩形备份-204" fill="#E8C199" x="28" y="0" width="1" height="1"></rect>
                    <rect id="矩形备份-203" fill="#F4DBB7" x="28" y="1" width="1" height="1"></rect>
                    <rect id="矩形备份-202" fill="#96664C" x="29" y="1" width="1" height="1"></rect>
                    <rect id="矩形备份-201" fill="#7B2B47" x="29" y="0" width="1" height="1"></rect>
                    <rect id="矩形备份-208" fill="#E8C199" x="26" y="0" width="1" height="1"></rect>
                    <rect id="矩形备份-207" fill="#F4DBB7" x="26" y="1" width="1" height="1"></rect>
                    <rect id="矩形备份-206" fill="#96664C" x="27" y="1" width="1" height="1"></rect>
                    <rect id="矩形备份-205" fill="#7B2B47" x="27" y="0" width="1" height="1"></rect>
                    <rect id="矩形备份-212" fill="#E8C199" x="24" y="0" width="1" height="1"></rect>
                    <rect id="矩形备份-211" fill="#F4DBB7" x="24" y="1" width="1" height="1"></rect>
                    <rect id="矩形备份-210" fill="#96664C" x="25" y="1" width="1" height="1"></rect>
                    <rect id="矩形备份-209" fill="#7B2B47" x="25" y="0" width="1" height="1"></rect>
                    <rect id="矩形备份-216" fill="#E8C199" x="22" y="0" width="1" height="1"></rect>
                    <rect id="矩形备份-215" fill="#F4DBB7" x="22" y="1" width="1" height="1"></rect>
                    <rect id="矩形备份-214" fill="#96664C" x="23" y="1" width="1" height="1"></rect>
                    <rect id="矩形备份-213" fill="#7B2B47" x="23" y="0" width="1" height="1"></rect>
                    <rect id="矩形备份-220" fill="#E8C199" x="20" y="0" width="1" height="1"></rect>
                    <rect id="矩形备份-219" fill="#F4DBB7" x="20" y="1" width="1" height="1"></rect>
                    <rect id="矩形备份-218" fill="#96664C" x="21" y="1" width="1" height="1"></rect>
                    <rect id="矩形备份-217" fill="#7B2B47" x="21" y="0" width="1" height="1"></rect>
                    <rect id="矩形备份-224" fill="#E8C199" x="18" y="0" width="1" height="1"></rect>
                    <rect id="矩形备份-223" fill="#F4DBB7" x="18" y="1" width="1" height="1"></rect>
                    <rect id="矩形备份-222" fill="#96664C" x="19" y="1" width="1" height="1"></rect>
                    <rect id="矩形备份-221" fill="#7B2B47" x="19" y="0" width="1" height="1"></rect>
                    <rect id="矩形备份-228" fill="#E8C199" x="16" y="0" width="1" height="1"></rect>
                    <rect id="矩形备份-227" fill="#F4DBB7" x="16" y="1" width="1" height="1"></rect>
                    <rect id="矩形备份-226" fill="#96664C" x="17" y="1" width="1" height="1"></rect>
                    <rect id="矩形备份-225" fill="#7B2B47" x="17" y="0" width="1" height="1"></rect>
                    <rect id="矩形备份-232" fill="#E8C199" x="14" y="0" width="1" height="1"></rect>
                    <rect id="矩形备份-231" fill="#F4DBB7" x="14" y="1" width="1" height="1"></rect>
                    <rect id="矩形备份-230" fill="#96664C" x="15" y="1" width="1" height="1"></rect>
                    <rect id="矩形备份-229" fill="#7B2B47" x="15" y="0" width="1" height="1"></rect>
                    <rect id="矩形备份-236" fill="#E8C199" x="12" y="0" width="1" height="1"></rect>
                    <rect id="矩形备份-235" fill="#F4DBB7" x="12" y="1" width="1" height="1"></rect>
                    <rect id="矩形备份-234" fill="#96664C" x="13" y="1" width="1" height="1"></rect>
                    <rect id="矩形备份-233" fill="#7B2B47" x="13" y="0" width="1" height="1"></rect>
                    <rect id="矩形备份-240" fill="#E8C199" x="10" y="0" width="1" height="1"></rect>
                    <rect id="矩形备份-239" fill="#F4DBB7" x="10" y="1" width="1" height="1"></rect>
                    <rect id="矩形备份-238" fill="#96664C" x="11" y="1" width="1" height="1"></rect>
                    <rect id="矩形备份-237" fill="#7B2B47" x="11" y="0" width="1" height="1"></rect>
                    <rect id="矩形备份-244" fill="#E8C199" x="8" y="0" width="1" height="1"></rect>
                    <rect id="矩形备份-243" fill="#F4DBB7" x="8" y="1" width="1" height="1"></rect>
                    <rect id="矩形备份-242" fill="#96664C" x="9" y="1" width="1" height="1"></rect>
                    <rect id="矩形备份-241" fill="#7B2B47" x="9" y="0" width="1" height="1"></rect>
                    <rect id="矩形备份-248" fill="#E8C199" x="6" y="0" width="1" height="1"></rect>
                    <rect id="矩形备份-247" fill="#F4DBB7" x="6" y="1" width="1" height="1"></rect>
                    <rect id="矩形备份-246" fill="#96664C" x="7" y="1" width="1" height="1"></rect>
                    <rect id="矩形备份-245" fill="#7B2B47" x="7" y="0" width="1" height="1"></rect>
                    <rect id="矩形备份-252" fill="#E8C199" x="4" y="0" width="1" height="1"></rect>
                    <rect id="矩形备份-251" fill="#F4DBB7" x="4" y="1" width="1" height="1"></rect>
                    <rect id="矩形备份-250" fill="#96664C" x="5" y="1" width="1" height="1"></rect>
                    <rect id="矩形备份-249" fill="#7B2B47" x="5" y="0" width="1" height="1"></rect>
                    <rect id="矩形备份-256" fill="#E8C199" x="2" y="0" width="1" height="1"></rect>
                    <rect id="矩形备份-255" fill="#F4DBB7" x="2" y="1" width="1" height="1"></rect>
                    <rect id="矩形备份-254" fill="#96664C" x="3" y="1" width="1" height="1"></rect>
                    <rect id="矩形备份-253" fill="#7B2B47" x="3" y="0" width="1" height="1"></rect>
                </g>
            </g>
        </g>
    </g>
</svg>