<?xml version="1.0" encoding="UTF-8"?>
<svg width="34px" height="34px" viewBox="0 0 34 34" version="1.1" xmlns="http://www.w3.org/2000/svg" xmlns:xlink="http://www.w3.org/1999/xlink">
    <title>skin_6</title>
    <g id="页面-1" stroke="none" stroke-width="1" fill="none" fill-rule="evenodd">
        <g id="My-Fish" transform="translate(-45.000000, -67.000000)">
            <g id="Skins" transform="translate(6.000000, 28.000000)">
                <g id="6" transform="translate(39.000000, 39.000000)">
                    <rect id="矩形" x="0" y="0" width="34" height="34"></rect>
                    <g id="编组-2" transform="translate(4.000000, 13.000000)">
                        <rect id="矩形" fill="#E63321" x="0" y="3" width="1" height="1"></rect>
                        <rect id="矩形备份" fill="#E63321" x="1" y="3" width="1" height="1"></rect>
                        <rect id="矩形备份-3" fill="#E63321" x="1" y="2" width="1" height="1"></rect>
                        <rect id="矩形备份-4" fill="#E63321" x="2" y="2" width="1" height="1"></rect>
                        <rect id="矩形备份-5" fill="#E63321" x="3" y="2" width="1" height="1"></rect>
                        <rect id="矩形备份-8" fill="#E63321" x="3" y="1" width="1" height="1"></rect>
                        <rect id="矩形备份-9" fill="#E63321" x="4" y="1" width="1" height="1"></rect>
                        <rect id="矩形备份-10" fill="#E63321" x="5" y="1" width="1" height="1"></rect>
                        <rect id="矩形备份-91" fill="#E63321" x="5" y="0" width="1" height="1"></rect>
                        <rect id="矩形备份-89" fill="#000000" x="6" y="1" width="1" height="1"></rect>
                        <rect id="矩形备份-90" fill="#000000" x="6" y="0" width="1" height="1"></rect>
                        <rect id="矩形备份-11" fill="#000000" x="6" y="2" width="1" height="1"></rect>
                        <rect id="矩形备份-136" fill="#000000" x="6" y="3" width="1" height="1"></rect>
                        <rect id="矩形备份-12" fill="#000000" x="7" y="2" width="1" height="1"></rect>
                        <rect id="矩形备份-149" fill="#000000" x="7" y="1" width="1" height="1"></rect>
                        <rect id="矩形备份-151" fill="#000000" x="9" y="1" width="1" height="1"></rect>
                        <rect id="矩形备份-137" fill="#000000" x="7" y="3" width="1" height="1"></rect>
                        <rect id="矩形备份-14" fill="#000000" x="8" y="2" width="1" height="1"></rect>
                        <rect id="矩形备份-154" fill="#000000" x="9" y="2" width="1" height="1"></rect>
                        <rect id="矩形备份-150" fill="#000000" x="8" y="1" width="1" height="1"></rect>
                        <rect id="矩形备份-152" fill="#000000" x="10" y="1" width="1" height="1"></rect>
                        <rect id="矩形备份-138" fill="#000000" x="8" y="3" width="1" height="1"></rect>
                        <rect id="矩形备份-155" fill="#000000" x="9" y="3" width="1" height="1"></rect>
                        <rect id="矩形备份-16" fill="#000000" x="12" y="1" width="1" height="1"></rect>
                        <rect id="矩形备份-153" fill="#000000" x="11" y="1" width="1" height="1"></rect>
                        <rect id="矩形备份-18" fill="#000000" x="11" y="0" width="1" height="1"></rect>
                        <rect id="矩形备份-22" fill="#FFB0A9" x="14" y="2" width="1" height="1"></rect>
                        <rect id="矩形备份-25" fill="#000000" x="15" y="2" width="1" height="1"></rect>
                        <rect id="矩形备份-23" fill="#000000" x="13" y="1" width="1" height="1"></rect>
                        <rect id="矩形备份-24" fill="#FFB0A9" x="16" y="3" width="1" height="1"></rect>
                        <rect id="矩形备份-183" fill="#000000" x="15" y="3" width="1" height="1"></rect>
                        <rect id="矩形备份-182" fill="#000000" x="14" y="3" width="1" height="1"></rect>
                        <rect id="矩形备份-26" fill="#000000" x="17" y="3" width="1" height="1"></rect>
                        <rect id="矩形备份-27" fill="#FFB0A9" x="18" y="4" width="1" height="1"></rect>
                        <rect id="矩形备份-59" fill="#000000" x="18" y="5" width="1" height="1"></rect>
                        <rect id="矩形备份-60" fill="#000000" x="18" y="6" width="1" height="1"></rect>
                        <rect id="矩形备份-61" fill="#000000" x="17" y="6" width="1" height="1"></rect>
                        <rect id="矩形备份-174" fill="#000000" x="17" y="5" width="1" height="1"></rect>
                        <rect id="矩形备份-62" fill="#000000" x="17" y="7" width="1" height="1"></rect>
                        <rect id="矩形备份-63" fill="#000000" x="16" y="7" width="1" height="1"></rect>
                        <rect id="矩形备份-109" fill="#000000" x="15" y="7" width="1" height="1"></rect>
                        <rect id="矩形备份-108" fill="#000000" x="16" y="6" width="1" height="1"></rect>
                        <rect id="矩形备份-175" fill="#000000" x="16" y="5" width="1" height="1"></rect>
                        <rect id="矩形备份-110" fill="#000000" x="15" y="6" width="1" height="1"></rect>
                        <rect id="矩形备份-176" fill="#000000" x="15" y="5" width="1" height="1"></rect>
                        <rect id="矩形备份-112" fill="#000000" x="14" y="7" width="1" height="1"></rect>
                        <rect id="矩形备份-111" fill="#000000" x="14" y="6" width="1" height="1"></rect>
                        <rect id="矩形备份-177" fill="#FFB0A9" x="14" y="5" width="1" height="1"></rect>
                        <rect id="矩形备份-181" fill="#000000" x="17" y="4" width="1" height="1"></rect>
                        <rect id="矩形备份-180" fill="#000000" x="16" y="4" width="1" height="1"></rect>
                        <rect id="矩形备份-179" fill="#FFB0A9" x="15" y="4" width="1" height="1"></rect>
                        <rect id="矩形备份-178" fill="#000000" x="14" y="4" width="1" height="1"></rect>
                        <rect id="矩形备份-114" fill="#000000" x="13" y="7" width="1" height="1"></rect>
                        <rect id="矩形备份-113" fill="#FFB0A9" x="13" y="6" width="1" height="1"></rect>
                        <rect id="矩形备份-116" fill="#000000" x="12" y="7" width="1" height="1"></rect>
                        <rect id="矩形备份-115" fill="#000000" x="12" y="6" width="1" height="1"></rect>
                        <rect id="矩形备份-118" fill="#000000" x="11" y="7" width="1" height="1"></rect>
                        <rect id="矩形备份-117" fill="#000000" x="11" y="6" width="1" height="1"></rect>
                        <rect id="矩形备份-120" fill="#000000" x="10" y="7" width="1" height="1"></rect>
                        <rect id="矩形备份-119" fill="#FFB0A9" x="10" y="6" width="1" height="1"></rect>
                        <rect id="矩形备份-122" fill="#000000" x="9" y="7" width="1" height="1"></rect>
                        <rect id="矩形备份-121" fill="#000000" x="9" y="6" width="1" height="1"></rect>
                        <rect id="矩形备份-124" fill="#000000" x="8" y="7" width="1" height="1"></rect>
                        <rect id="矩形备份-123" fill="#000000" x="8" y="6" width="1" height="1"></rect>
                        <rect id="矩形备份-126" fill="#E63321" x="7" y="7" width="1" height="1"></rect>
                        <rect id="矩形备份-125" fill="#E63321" x="7" y="6" width="1" height="1"></rect>
                        <rect id="矩形备份-128" fill="#E63321" x="6" y="7" width="1" height="1"></rect>
                        <rect id="矩形备份-127" fill="#E63321" x="6" y="6" width="1" height="1"></rect>
                        <rect id="矩形备份-64" fill="#000000" x="15" y="8" width="1" height="1"></rect>
                        <rect id="矩形备份-66" fill="#000000" x="14" y="9" width="1" height="1"></rect>
                        <rect id="矩形备份-94" fill="#000000" x="12" y="9" width="1" height="1"></rect>
                        <rect id="矩形备份-67" fill="#000000" x="13" y="9" width="1" height="1"></rect>
                        <rect id="矩形备份-95" fill="#000000" x="11" y="9" width="1" height="1"></rect>
                        <rect id="矩形备份-97" fill="#000000" x="10" y="9" width="1" height="1"></rect>
                        <rect id="矩形备份-96" fill="#000000" x="9" y="9" width="1" height="1"></rect>
                        <rect id="矩形备份-99" fill="#000000" x="8" y="9" width="1" height="1"></rect>
                        <rect id="矩形备份-100" fill="#000000" x="8" y="8" width="1" height="1"></rect>
                        <rect id="矩形备份-102" fill="#000000" x="10" y="8" width="1" height="1"></rect>
                        <rect id="矩形备份-98" fill="#000000" x="7" y="9" width="1" height="1"></rect>
                        <rect id="矩形备份-101" fill="#000000" x="7" y="8" width="1" height="1"></rect>
                        <rect id="矩形备份-103" fill="#000000" x="9" y="8" width="1" height="1"></rect>
                        <rect id="矩形备份-105" fill="#000000" x="12" y="8" width="1" height="1"></rect>
                        <rect id="矩形备份-104" fill="#000000" x="11" y="8" width="1" height="1"></rect>
                        <rect id="矩形备份-107" fill="#000000" x="14" y="8" width="1" height="1"></rect>
                        <rect id="矩形备份-106" fill="#000000" x="13" y="8" width="1" height="1"></rect>
                        <rect id="矩形备份-68" fill="#000000" x="12" y="10" width="1" height="1"></rect>
                        <rect id="矩形备份-191" fill="#000000" x="13" y="10" width="1" height="1"></rect>
                        <rect id="矩形备份-194" fill="#000000" x="13" y="11" width="1" height="1"></rect>
                        <rect id="矩形备份-93" fill="#000000" x="12" y="11" width="1" height="1"></rect>
                        <rect id="矩形备份-69" fill="#000000" x="11" y="10" width="1" height="1"></rect>
                        <rect id="矩形备份-70" fill="#000000" x="10" y="10" width="1" height="1"></rect>
                        <rect id="矩形备份-71" fill="#000000" x="9" y="10" width="1" height="1"></rect>
                        <rect id="矩形备份-192" fill="#000000" x="10" y="11" width="1" height="1"></rect>
                        <rect id="矩形备份-193" fill="#000000" x="11" y="11" width="1" height="1"></rect>
                        <rect id="矩形备份-72" fill="#000000" x="8" y="10" width="1" height="1"></rect>
                        <rect id="矩形备份-73" fill="#000000" x="7" y="10" width="1" height="1"></rect>
                        <rect id="矩形备份-74" fill="#000000" x="6" y="10" width="1" height="1"></rect>
                        <rect id="矩形备份-75" fill="#000000" x="5" y="10" width="1" height="1"></rect>
                        <rect id="矩形备份-76" fill="#E63321" x="4" y="9" width="1" height="1"></rect>
                        <rect id="矩形备份-83" fill="#E63321" x="4" y="8" width="1" height="1"></rect>
                        <rect id="矩形备份-84" fill="#E63321" x="5" y="8" width="1" height="1"></rect>
                        <rect id="矩形备份-85" fill="#E63321" x="6" y="8" width="1" height="1"></rect>
                        <rect id="矩形备份-86" fill="#000000" x="6" y="9" width="1" height="1"></rect>
                        <rect id="矩形备份-87" fill="#E63321" x="5" y="9" width="1" height="1"></rect>
                        <rect id="矩形备份-77" fill="#E63321" x="3" y="9" width="1" height="1"></rect>
                        <rect id="矩形备份-92" fill="#FFB0A9" x="3" y="8" width="1" height="1"></rect>
                        <rect id="矩形备份-78" fill="#E63321" x="2" y="9" width="1" height="1"></rect>
                        <rect id="矩形备份-79" fill="#E63321" x="2" y="8" width="1" height="1"></rect>
                        <rect id="矩形备份-80" fill="#E63321" x="1" y="8" width="1" height="1"></rect>
                        <rect id="矩形备份-81" fill="#E63321" x="0" y="8" width="1" height="1"></rect>
                        <rect id="矩形备份-65" fill="#000000" x="16" y="8" width="1" height="1"></rect>
                        <rect id="矩形备份-13" fill="#000000" x="7" y="0" width="1" height="1"></rect>
                        <rect id="矩形备份-15" fill="#000000" x="8" y="0" width="1" height="1"></rect>
                        <rect id="矩形备份-17" fill="#000000" x="9" y="0" width="1" height="1"></rect>
                        <rect id="矩形备份-19" fill="#000000" x="10" y="0" width="1" height="1"></rect>
                        <rect id="矩形备份-6" fill="#E63321" x="4" y="2" width="1" height="1"></rect>
                        <rect id="矩形备份-7" fill="#000000" x="5" y="2" width="1" height="1"></rect>
                        <rect id="矩形备份-139" fill="#000000" x="5" y="3" width="1" height="1"></rect>
                        <rect id="矩形备份-143" fill="#000000" x="6" y="4" width="1" height="1"></rect>
                        <rect id="矩形备份-142" fill="#000000" x="7" y="4" width="1" height="1"></rect>
                        <rect id="矩形备份-141" fill="#000000" x="8" y="4" width="1" height="1"></rect>
                        <rect id="矩形备份-156" fill="#000000" x="9" y="4" width="1" height="1"></rect>
                        <rect id="矩形备份-140" fill="#E63321" x="5" y="4" width="1" height="1"></rect>
                        <rect id="矩形备份-147" fill="#FFB0A9" x="6" y="5" width="1" height="1"></rect>
                        <rect id="矩形备份-146" fill="#000000" x="7" y="5" width="1" height="1"></rect>
                        <rect id="矩形备份-145" fill="#000000" x="8" y="5" width="1" height="1"></rect>
                        <rect id="矩形备份-157" fill="#000000" x="9" y="5" width="1" height="1"></rect>
                        <rect id="矩形备份-161" fill="#000000" x="10" y="2" width="1" height="1"></rect>
                        <rect id="矩形备份-160" fill="#000000" x="10" y="3" width="1" height="1"></rect>
                        <rect id="矩形备份-159" fill="#000000" x="10" y="4" width="1" height="1"></rect>
                        <rect id="矩形备份-158" fill="#000000" x="10" y="5" width="1" height="1"></rect>
                        <rect id="矩形备份-165" fill="#000000" x="11" y="2" width="1" height="1"></rect>
                        <rect id="矩形备份-164" fill="#000000" x="11" y="3" width="1" height="1"></rect>
                        <rect id="矩形备份-163" fill="#000000" x="11" y="4" width="1" height="1"></rect>
                        <rect id="矩形备份-162" fill="#FFB0A9" x="11" y="5" width="1" height="1"></rect>
                        <rect id="矩形备份-169" fill="#000000" x="12" y="2" width="1" height="1"></rect>
                        <rect id="矩形备份-168" fill="#000000" x="12" y="3" width="1" height="1"></rect>
                        <rect id="矩形备份-167" fill="#FFB0A9" x="12" y="4" width="1" height="1"></rect>
                        <rect id="矩形备份-166" fill="#000000" x="12" y="5" width="1" height="1"></rect>
                        <rect id="矩形备份-173" fill="#000000" x="13" y="2" width="1" height="1"></rect>
                        <rect id="矩形备份-172" fill="#FFB0A9" x="13" y="3" width="1" height="1"></rect>
                        <rect id="矩形备份-171" fill="#000000" x="13" y="4" width="1" height="1"></rect>
                        <rect id="矩形备份-170" fill="#000000" x="13" y="5" width="1" height="1"></rect>
                        <rect id="矩形备份-144" fill="#E63321" x="5" y="5" width="1" height="1"></rect>
                        <rect id="矩形备份-2" fill="#E63321" x="1" y="4" width="1" height="1"></rect>
                        <rect id="矩形备份-20" fill="#E63321" x="3" y="5" width="1" height="1"></rect>
                        <rect id="矩形备份-135" fill="#E63321" x="4" y="5" width="1" height="1"></rect>
                        <rect id="矩形备份-129" fill="#E63321" x="3" y="4" width="1" height="1"></rect>
                        <rect id="矩形备份-133" fill="#E63321" x="2" y="4" width="1" height="1"></rect>
                        <rect id="矩形备份-134" fill="#E63321" x="2" y="3" width="1" height="1"></rect>
                        <rect id="矩形备份-130" fill="#F9F9F9" x="4" y="4" width="1" height="1"></rect>
                        <rect id="矩形备份-131" fill="#E63321" x="4" y="3" width="1" height="1"></rect>
                        <rect id="矩形备份-132" fill="#E63321" x="3" y="3" width="1" height="1"></rect>
                        <rect id="矩形备份-88" fill="#E63321" x="2" y="5" width="1" height="1"></rect>
                        <rect id="矩形备份-21" fill="#E63321" x="4" y="6" width="1" height="1"></rect>
                        <rect id="矩形备份-189" fill="#FFB0A9" x="4" y="7" width="1" height="1"></rect>
                        <rect id="矩形备份-190" fill="#E63321" x="3" y="7" width="1" height="1"></rect>
                        <rect id="矩形备份-188" fill="#E63321" x="3" y="6" width="1" height="1"></rect>
                        <rect id="矩形备份-148" fill="#FFB0A9" x="5" y="6" width="1" height="1"></rect>
                        <rect id="矩形备份-82" fill="#E63321" x="5" y="7" width="1" height="1"></rect>
                    </g>
                </g>
            </g>
        </g>
    </g>
</svg>