<?xml version="1.0" encoding="UTF-8"?>
<svg width="34px" height="34px" viewBox="0 0 34 34" version="1.1" xmlns="http://www.w3.org/2000/svg" xmlns:xlink="http://www.w3.org/1999/xlink">
    <title>skin_8</title>
    <g id="页面-1" stroke="none" stroke-width="1" fill="none" fill-rule="evenodd">
        <g id="My-Fish" transform="translate(-123.000000, -67.000000)">
            <g id="Skins" transform="translate(6.000000, 28.000000)">
                <g id="8" transform="translate(117.000000, 39.000000)">
                    <rect id="矩形" x="0" y="0" width="34" height="34"></rect>
                    <g id="编组" transform="translate(4.000000, 13.000000)">
                        <rect id="矩形" fill="#FDC53B" x="0" y="3" width="1" height="1"></rect>
                        <rect id="矩形备份" fill="#FDC53B" x="1" y="3" width="1" height="1"></rect>
                        <rect id="矩形备份-3" fill="#FDC53B" x="1" y="2" width="1" height="1"></rect>
                        <rect id="矩形备份-4" fill="#FDC53B" x="2" y="2" width="1" height="1"></rect>
                        <rect id="矩形备份-5" fill="#FDC53B" x="3" y="2" width="1" height="1"></rect>
                        <rect id="矩形备份-8" fill="#FDC53B" x="3" y="1" width="1" height="1"></rect>
                        <rect id="矩形备份-9" fill="#FDC53B" x="4" y="1" width="1" height="1"></rect>
                        <rect id="矩形备份-10" fill="#F86128" x="5" y="1" width="1" height="1"></rect>
                        <rect id="矩形备份-91" fill="#FDC53B" x="5" y="0" width="1" height="1"></rect>
                        <rect id="矩形备份-89" fill="#FDC53B" x="6" y="1" width="1" height="1"></rect>
                        <rect id="矩形备份-90" fill="#FDC53B" x="6" y="0" width="1" height="1"></rect>
                        <rect id="矩形备份-11" fill="#FDC53B" x="6" y="2" width="1" height="1"></rect>
                        <rect id="矩形备份-136" fill="#FDC53B" x="6" y="3" width="1" height="1"></rect>
                        <rect id="矩形备份-12" fill="#FDC53B" x="7" y="2" width="1" height="1"></rect>
                        <rect id="矩形备份-149" fill="#FDC53B" x="7" y="1" width="1" height="1"></rect>
                        <rect id="矩形备份-151" fill="#FDC53B" x="9" y="1" width="1" height="1"></rect>
                        <rect id="矩形备份-137" fill="#FDC53B" x="7" y="3" width="1" height="1"></rect>
                        <rect id="矩形备份-14" fill="#FDC53B" x="8" y="2" width="1" height="1"></rect>
                        <rect id="矩形备份-154" fill="#FDC53B" x="9" y="2" width="1" height="1"></rect>
                        <rect id="矩形备份-150" fill="#F86128" x="8" y="1" width="1" height="1"></rect>
                        <rect id="矩形备份-152" fill="#FDC53B" x="10" y="1" width="1" height="1"></rect>
                        <rect id="矩形备份-138" fill="#FDC53B" x="8" y="3" width="1" height="1"></rect>
                        <rect id="矩形备份-155" fill="#FDC53B" x="9" y="3" width="1" height="1"></rect>
                        <rect id="矩形备份-16" fill="#F86128" x="12" y="1" width="1" height="1"></rect>
                        <rect id="矩形备份-153" fill="#FDC53B" x="11" y="1" width="1" height="1"></rect>
                        <rect id="矩形备份-18" fill="#FDC53B" x="11" y="0" width="1" height="1"></rect>
                        <rect id="矩形备份-22" fill="#F86128" x="14" y="2" width="1" height="1"></rect>
                        <rect id="矩形备份-25" fill="#FDC53B" x="15" y="2" width="1" height="1"></rect>
                        <rect id="矩形备份-23" fill="#FDC53B" x="13" y="1" width="1" height="1"></rect>
                        <rect id="矩形备份-24" fill="#FDC53B" x="16" y="3" width="1" height="1"></rect>
                        <rect id="矩形备份-183" fill="#FDC53B" x="15" y="3" width="1" height="1"></rect>
                        <rect id="矩形备份-182" fill="#FDC53B" x="14" y="3" width="1" height="1"></rect>
                        <rect id="矩形备份-26" fill="#FDC53B" x="17" y="3" width="1" height="1"></rect>
                        <rect id="矩形备份-27" fill="#FDC53B" x="18" y="4" width="1" height="1"></rect>
                        <rect id="矩形备份-59" fill="#FDC53B" x="18" y="5" width="1" height="1"></rect>
                        <rect id="矩形备份-60" fill="#FDC53B" x="18" y="6" width="1" height="1"></rect>
                        <rect id="矩形备份-61" fill="#FDC53B" x="17" y="6" width="1" height="1"></rect>
                        <rect id="矩形备份-174" fill="#FDC53B" x="17" y="5" width="1" height="1"></rect>
                        <rect id="矩形备份-62" fill="#FDC53B" x="17" y="7" width="1" height="1"></rect>
                        <rect id="矩形备份-63" fill="#FDC53B" x="16" y="7" width="1" height="1"></rect>
                        <rect id="矩形备份-109" fill="#FDC53B" x="15" y="7" width="1" height="1"></rect>
                        <rect id="矩形备份-108" fill="#FDC53B" x="16" y="6" width="1" height="1"></rect>
                        <rect id="矩形备份-175" fill="#FDC53B" x="16" y="5" width="1" height="1"></rect>
                        <rect id="矩形备份-110" fill="#FDC53B" x="15" y="6" width="1" height="1"></rect>
                        <rect id="矩形备份-176" fill="#F86128" x="15" y="5" width="1" height="1"></rect>
                        <rect id="矩形备份-112" fill="#FDC53B" x="14" y="7" width="1" height="1"></rect>
                        <rect id="矩形备份-111" fill="#FDC53B" x="14" y="6" width="1" height="1"></rect>
                        <rect id="矩形备份-177" fill="#FDC53B" x="14" y="5" width="1" height="1"></rect>
                        <rect id="矩形备份-181" fill="#F86128" x="17" y="4" width="1" height="1"></rect>
                        <rect id="矩形备份-180" fill="#FDC53B" x="16" y="4" width="1" height="1"></rect>
                        <rect id="矩形备份-179" fill="#F86128" x="15" y="4" width="1" height="1"></rect>
                        <rect id="矩形备份-178" fill="#FDC53B" x="14" y="4" width="1" height="1"></rect>
                        <rect id="矩形备份-114" fill="#F86128" x="13" y="7" width="1" height="1"></rect>
                        <rect id="矩形备份-113" fill="#FDC53B" x="13" y="6" width="1" height="1"></rect>
                        <rect id="矩形备份-116" fill="#FDC53B" x="12" y="7" width="1" height="1"></rect>
                        <rect id="矩形备份-115" fill="#FDC53B" x="12" y="6" width="1" height="1"></rect>
                        <rect id="矩形备份-118" fill="#FDC53B" x="11" y="7" width="1" height="1"></rect>
                        <rect id="矩形备份-117" fill="#FDC53B" x="11" y="6" width="1" height="1"></rect>
                        <rect id="矩形备份-120" fill="#FDC53B" x="10" y="7" width="1" height="1"></rect>
                        <rect id="矩形备份-119" fill="#FDC53B" x="10" y="6" width="1" height="1"></rect>
                        <rect id="矩形备份-122" fill="#FDC53B" x="9" y="7" width="1" height="1"></rect>
                        <rect id="矩形备份-121" fill="#FDC53B" x="9" y="6" width="1" height="1"></rect>
                        <rect id="矩形备份-124" fill="#F86128" x="8" y="7" width="1" height="1"></rect>
                        <rect id="矩形备份-123" fill="#FDC53B" x="8" y="6" width="1" height="1"></rect>
                        <rect id="矩形备份-126" fill="#FDC53B" x="7" y="7" width="1" height="1"></rect>
                        <rect id="矩形备份-125" fill="#FDC53B" x="7" y="6" width="1" height="1"></rect>
                        <rect id="矩形备份-128" fill="#FDC53B" x="6" y="7" width="1" height="1"></rect>
                        <rect id="矩形备份-127" fill="#FDC53B" x="6" y="6" width="1" height="1"></rect>
                        <rect id="矩形备份-64" fill="#FEA324" x="15" y="8" width="1" height="1"></rect>
                        <rect id="矩形备份-66" fill="#FEA324" x="14" y="9" width="1" height="1"></rect>
                        <rect id="矩形备份-94" fill="#FEA324" x="12" y="9" width="1" height="1"></rect>
                        <rect id="矩形备份-67" fill="#FEA324" x="13" y="9" width="1" height="1"></rect>
                        <rect id="矩形备份-95" fill="#FEA324" x="11" y="9" width="1" height="1"></rect>
                        <rect id="矩形备份-97" fill="#FEA324" x="10" y="9" width="1" height="1"></rect>
                        <rect id="矩形备份-96" fill="#FEA324" x="9" y="9" width="1" height="1"></rect>
                        <rect id="矩形备份-99" fill="#FEA324" x="8" y="9" width="1" height="1"></rect>
                        <rect id="矩形备份-100" fill="#FEA324" x="8" y="8" width="1" height="1"></rect>
                        <rect id="矩形备份-102" fill="#FEA324" x="10" y="8" width="1" height="1"></rect>
                        <rect id="矩形备份-98" fill="#FEA324" x="7" y="9" width="1" height="1"></rect>
                        <rect id="矩形备份-101" fill="#FEA324" x="7" y="8" width="1" height="1"></rect>
                        <rect id="矩形备份-103" fill="#FEA324" x="9" y="8" width="1" height="1"></rect>
                        <rect id="矩形备份-105" fill="#FEA324" x="12" y="8" width="1" height="1"></rect>
                        <rect id="矩形备份-104" fill="#FEA324" x="11" y="8" width="1" height="1"></rect>
                        <rect id="矩形备份-107" fill="#FEA324" x="14" y="8" width="1" height="1"></rect>
                        <rect id="矩形备份-106" fill="#FEA324" x="13" y="8" width="1" height="1"></rect>
                        <rect id="矩形备份-68" fill="#F86128" x="12" y="10" width="1" height="1"></rect>
                        <rect id="矩形备份-191" fill="#F86128" x="13" y="10" width="1" height="1"></rect>
                        <rect id="矩形备份-194" fill="#F86128" x="13" y="11" width="1" height="1"></rect>
                        <rect id="矩形备份-93" fill="#F86128" x="12" y="11" width="1" height="1"></rect>
                        <rect id="矩形备份-69" fill="#F86128" x="11" y="10" width="1" height="1"></rect>
                        <rect id="矩形备份-70" fill="#F86128" x="10" y="10" width="1" height="1"></rect>
                        <rect id="矩形备份-71" fill="#F86128" x="9" y="10" width="1" height="1"></rect>
                        <rect id="矩形备份-192" fill="#F86128" x="10" y="11" width="1" height="1"></rect>
                        <rect id="矩形备份-193" fill="#F86128" x="11" y="11" width="1" height="1"></rect>
                        <rect id="矩形备份-72" fill="#FEA324" x="8" y="10" width="1" height="1"></rect>
                        <rect id="矩形备份-73" fill="#F86128" x="7" y="10" width="1" height="1"></rect>
                        <rect id="矩形备份-74" fill="#FEA324" x="6" y="10" width="1" height="1"></rect>
                        <rect id="矩形备份-75" fill="#FEA324" x="5" y="10" width="1" height="1"></rect>
                        <rect id="矩形备份-76" fill="#FEA324" x="4" y="9" width="1" height="1"></rect>
                        <rect id="矩形备份-83" fill="#FEA324" x="4" y="8" width="1" height="1"></rect>
                        <rect id="矩形备份-84" fill="#FEA324" x="5" y="8" width="1" height="1"></rect>
                        <rect id="矩形备份-85" fill="#FEA324" x="6" y="8" width="1" height="1"></rect>
                        <rect id="矩形备份-86" fill="#FEA324" x="6" y="9" width="1" height="1"></rect>
                        <rect id="矩形备份-87" fill="#FEA324" x="5" y="9" width="1" height="1"></rect>
                        <rect id="矩形备份-77" fill="#FEA324" x="3" y="9" width="1" height="1"></rect>
                        <rect id="矩形备份-92" fill="#FEA324" x="3" y="8" width="1" height="1"></rect>
                        <rect id="矩形备份-78" fill="#FEA324" x="2" y="9" width="1" height="1"></rect>
                        <rect id="矩形备份-79" fill="#FEA324" x="2" y="8" width="1" height="1"></rect>
                        <rect id="矩形备份-80" fill="#FEA324" x="1" y="8" width="1" height="1"></rect>
                        <rect id="矩形备份-81" fill="#FEA324" x="0" y="8" width="1" height="1"></rect>
                        <rect id="矩形备份-65" fill="#FEA324" x="16" y="8" width="1" height="1"></rect>
                        <rect id="矩形备份-13" fill="#FDC53B" x="7" y="0" width="1" height="1"></rect>
                        <rect id="矩形备份-15" fill="#FDC53B" x="8" y="0" width="1" height="1"></rect>
                        <rect id="矩形备份-17" fill="#FDC53B" x="9" y="0" width="1" height="1"></rect>
                        <rect id="矩形备份-19" fill="#FDC53B" x="10" y="0" width="1" height="1"></rect>
                        <rect id="矩形备份-6" fill="#FDC53B" x="4" y="2" width="1" height="1"></rect>
                        <rect id="矩形备份-7" fill="#FDC53B" x="5" y="2" width="1" height="1"></rect>
                        <rect id="矩形备份-139" fill="#FDC53B" x="5" y="3" width="1" height="1"></rect>
                        <rect id="矩形备份-143" fill="#FDC53B" x="6" y="4" width="1" height="1"></rect>
                        <rect id="矩形备份-142" fill="#F86128" x="7" y="4" width="1" height="1"></rect>
                        <rect id="矩形备份-141" fill="#FDC53B" x="8" y="4" width="1" height="1"></rect>
                        <rect id="矩形备份-156" fill="#FDC53B" x="9" y="4" width="1" height="1"></rect>
                        <rect id="矩形备份-140" fill="#FDC53B" x="5" y="4" width="1" height="1"></rect>
                        <rect id="矩形备份-147" fill="#FDC53B" x="6" y="5" width="1" height="1"></rect>
                        <rect id="矩形备份-146" fill="#FDC53B" x="7" y="5" width="1" height="1"></rect>
                        <rect id="矩形备份-145" fill="#FDC53B" x="8" y="5" width="1" height="1"></rect>
                        <rect id="矩形备份-157" fill="#FDC53B" x="9" y="5" width="1" height="1"></rect>
                        <rect id="矩形备份-161" fill="#FDC53B" x="10" y="2" width="1" height="1"></rect>
                        <rect id="矩形备份-160" fill="#FDC53B" x="10" y="3" width="1" height="1"></rect>
                        <rect id="矩形备份-159" fill="#F86128" x="10" y="4" width="1" height="1"></rect>
                        <rect id="矩形备份-158" fill="#F86128" x="10" y="5" width="1" height="1"></rect>
                        <rect id="矩形备份-165" fill="#FDC53B" x="11" y="2" width="1" height="1"></rect>
                        <rect id="矩形备份-164" fill="#FDC53B" x="11" y="3" width="1" height="1"></rect>
                        <rect id="矩形备份-163" fill="#F86128" x="11" y="4" width="1" height="1"></rect>
                        <rect id="矩形备份-162" fill="#F86128" x="11" y="5" width="1" height="1"></rect>
                        <rect id="矩形备份-169" fill="#FDC53B" x="12" y="2" width="1" height="1"></rect>
                        <rect id="矩形备份-168" fill="#FDC53B" x="12" y="3" width="1" height="1"></rect>
                        <rect id="矩形备份-167" fill="#FDC53B" x="12" y="4" width="1" height="1"></rect>
                        <rect id="矩形备份-166" fill="#FDC53B" x="12" y="5" width="1" height="1"></rect>
                        <rect id="矩形备份-173" fill="#FDC53B" x="13" y="2" width="1" height="1"></rect>
                        <rect id="矩形备份-172" fill="#FDC53B" x="13" y="3" width="1" height="1"></rect>
                        <rect id="矩形备份-171" fill="#FDC53B" x="13" y="4" width="1" height="1"></rect>
                        <rect id="矩形备份-170" fill="#FDC53B" x="13" y="5" width="1" height="1"></rect>
                        <rect id="矩形备份-144" fill="#FDC53B" x="5" y="5" width="1" height="1"></rect>
                        <rect id="矩形备份-184" fill="#FDC53B" x="5" y="4" width="1" height="1"></rect>
                        <rect id="矩形备份-2" fill="#FDC53B" x="1" y="4" width="1" height="1"></rect>
                        <rect id="矩形备份-20" fill="#FDC53B" x="3" y="5" width="1" height="1"></rect>
                        <rect id="矩形备份-135" fill="#FDC53B" x="4" y="5" width="1" height="1"></rect>
                        <rect id="矩形备份-129" fill="#FDC53B" x="3" y="4" width="1" height="1"></rect>
                        <rect id="矩形备份-133" fill="#FDC53B" x="2" y="4" width="1" height="1"></rect>
                        <rect id="矩形备份-134" fill="#F86128" x="2" y="3" width="1" height="1"></rect>
                        <rect id="矩形备份-130" fill="#FFFFFF" x="4" y="4" width="1" height="1"></rect>
                        <rect id="矩形备份-131" fill="#FDC53B" x="4" y="3" width="1" height="1"></rect>
                        <rect id="矩形备份-132" fill="#FDC53B" x="3" y="3" width="1" height="1"></rect>
                        <rect id="矩形备份-88" fill="#FDC53B" x="2" y="5" width="1" height="1"></rect>
                        <rect id="矩形备份-21" fill="#FDC53B" x="4" y="6" width="1" height="1"></rect>
                        <rect id="矩形备份-189" fill="#FDC53B" x="4" y="7" width="1" height="1"></rect>
                        <rect id="矩形备份-190" fill="#F86128" x="3" y="7" width="1" height="1"></rect>
                        <rect id="矩形备份-188" fill="#FDC53B" x="3" y="6" width="1" height="1"></rect>
                        <rect id="矩形备份-148" fill="#FDC53B" x="5" y="6" width="1" height="1"></rect>
                        <rect id="矩形备份-82" fill="#FDC53B" x="5" y="7" width="1" height="1"></rect>
                    </g>
                </g>
            </g>
        </g>
    </g>
</svg>