<?xml version="1.0" encoding="UTF-8"?>
<svg width="34px" height="34px" viewBox="0 0 34 34" version="1.1" xmlns="http://www.w3.org/2000/svg" xmlns:xlink="http://www.w3.org/1999/xlink">
    <title>tail_3</title>
    <g id="页面-1" stroke="none" stroke-width="1" fill="none" fill-rule="evenodd">
        <g id="My-Fish" transform="translate(-123.000000, -629.000000)">
            <g id="Tails" transform="translate(6.000000, 629.000000)">
                <g id="3" transform="translate(117.000000, 0.000000)">
                    <rect id="矩形" x="0" y="0" width="34" height="34"></rect>
                    <g id="编组" transform="translate(23.000000, 16.000000)" fill="#F86128">
                        <rect id="矩形备份-28" x="0" y="2" width="1" height="1"></rect>
                        <rect id="矩形备份-29" x="1" y="2" width="1" height="1"></rect>
                        <rect id="矩形备份-31" x="2" y="1" width="1" height="1"></rect>
                        <rect id="矩形备份-44" x="2" y="2" width="1" height="1"></rect>
                        <rect id="矩形备份-45" x="2" y="3" width="1" height="1"></rect>
                        <rect id="矩形备份-46" x="3" y="4" width="1" height="1"></rect>
                        <rect id="矩形备份-32" x="3" y="1" width="1" height="1"></rect>
                        <rect id="矩形备份-47" x="3" y="2" width="1" height="1"></rect>
                        <rect id="矩形备份-56" x="5" y="4" width="1" height="1"></rect>
                        <rect id="矩形备份-58" x="5" y="3" width="1" height="1"></rect>
                        <rect id="矩形备份-48" x="3" y="3" width="1" height="1"></rect>
                        <rect id="矩形备份-57" x="4" y="4" width="1" height="1"></rect>
                        <rect id="矩形备份-33" x="3" y="0" width="1" height="1"></rect>
                        <rect id="矩形备份-34" x="4" y="0" width="1" height="1"></rect>
                        <rect id="矩形备份-35" x="5" y="0" width="1" height="1"></rect>
                        <rect id="矩形备份-36" x="5" y="1" width="1" height="1"></rect>
                    </g>
                </g>
            </g>
        </g>
    </g>
</svg>