<?xml version="1.0" encoding="UTF-8"?>
<svg width="34px" height="34px" viewBox="0 0 34 34" version="1.1" xmlns="http://www.w3.org/2000/svg" xmlns:xlink="http://www.w3.org/1999/xlink">
    <title>tail_0</title>
    <g id="页面-1" stroke="none" stroke-width="1" fill="none" fill-rule="evenodd">
        <g id="My-Fish" transform="translate(-6.000000, -629.000000)">
            <g id="0" transform="translate(6.000000, 629.000000)">
                <rect id="矩形" x="0" y="0" width="34" height="34"></rect>
                <g id="编组" transform="translate(23.000000, 14.000000)">
                    <rect id="矩形备份-29" fill="#000000" x="1" y="3" width="1" height="1"></rect>
                    <rect id="矩形备份-774" fill="#000000" x="0" y="3" width="1" height="1"></rect>
                    <rect id="矩形备份-30" fill="#000000" x="1" y="2" width="1" height="1"></rect>
                    <rect id="矩形备份-43" fill="#BDBDBD" x="1" y="4" width="1" height="1"></rect>
                    <rect id="矩形备份-31" fill="#000000" x="2" y="2" width="1" height="1"></rect>
                    <rect id="矩形备份-44" fill="#000000" x="2" y="3" width="1" height="1"></rect>
                    <rect id="矩形备份-45" fill="#BDBDBD" x="2" y="4" width="1" height="1"></rect>
                    <rect id="矩形备份-46" fill="#BDBDBD" x="3" y="5" width="1" height="1"></rect>
                    <rect id="矩形备份-32" fill="#000000" x="3" y="2" width="1" height="1"></rect>
                    <rect id="矩形备份-50" fill="#000000" x="4" y="2" width="1" height="1"></rect>
                    <rect id="矩形备份-52" fill="#000000" x="5" y="2" width="1" height="1"></rect>
                    <rect id="矩形备份-47" fill="#000000" x="3" y="3" width="1" height="1"></rect>
                    <rect id="矩形备份-51" fill="#000000" x="4" y="3" width="1" height="1"></rect>
                    <rect id="矩形备份-53" fill="#000000" x="5" y="3" width="1" height="1"></rect>
                    <rect id="矩形备份-54" fill="#BDBDBD" x="5" y="4" width="1" height="1"></rect>
                    <rect id="矩形备份-56" fill="#BDBDBD" x="5" y="5" width="1" height="1"></rect>
                    <rect id="矩形备份-48" fill="#BDBDBD" x="3" y="4" width="1" height="1"></rect>
                    <rect id="矩形备份-49" fill="#BDBDBD" x="4" y="4" width="1" height="1"></rect>
                    <rect id="矩形备份-57" fill="#BDBDBD" x="4" y="5" width="1" height="1"></rect>
                    <rect id="矩形备份-58" fill="#BDBDBD" x="5" y="6" width="1" height="1"></rect>
                    <rect id="矩形备份-33" fill="#000000" x="3" y="1" width="1" height="1"></rect>
                    <rect id="矩形备份-34" fill="#000000" x="4" y="1" width="1" height="1"></rect>
                    <rect id="矩形备份-35" fill="#000000" x="5" y="1" width="1" height="1"></rect>
                    <rect id="矩形备份-55" fill="#000000" x="5" y="0" width="1" height="1"></rect>
                </g>
            </g>
        </g>
    </g>
</svg>