<?xml version="1.0" encoding="UTF-8"?>
<svg width="34px" height="34px" viewBox="0 0 34 34" version="1.1" xmlns="http://www.w3.org/2000/svg" xmlns:xlink="http://www.w3.org/1999/xlink">
    <title>background_9</title>
    <g id="页面-1" stroke="none" stroke-width="1" fill="none" fill-rule="evenodd">
        <g id="My-Fish" transform="translate(-162.000000, -313.000000)">
            <g id="Backgrounds" transform="translate(6.000000, 275.000000)">
                <g id="9" transform="translate(156.000000, 38.000000)">
                    <rect id="矩形" fill="#4054C4" x="0" y="0" width="34" height="34"></rect>
                    <rect id="矩形" fill="#7F91F7" x="3" y="2" width="1" height="1"></rect>
                    <rect id="矩形备份" fill="#9EA8DD" x="5" y="4" width="1" height="1"></rect>
                    <rect id="矩形备份-2" fill="#BCC5F5" x="6" y="3" width="1" height="1"></rect>
                    <rect id="矩形备份-3" fill="#7F91F7" x="6" y="2" width="1" height="1"></rect>
                    <rect id="矩形备份-4" fill="#7F91F7" x="7" y="3" width="1" height="1"></rect>
                    <rect id="矩形备份-5" fill="#7F91F7" x="7" y="5" width="1" height="1"></rect>
                    <rect id="矩形备份-6" fill="#7F91F7" x="6" y="6" width="1" height="1"></rect>
                    <rect id="矩形备份-7" fill="#7F91F7" x="3" y="7" width="1" height="1"></rect>
                    <rect id="矩形备份-8" fill="#7F91F7" x="3" y="8" width="1" height="1"></rect>
                    <rect id="矩形备份-9" fill="#9EA8DD" x="4" y="8" width="1" height="1"></rect>
                    <rect id="矩形备份-10" fill="#7F91F7" x="7" y="10" width="1" height="1"></rect>
                    <rect id="矩形备份-11" fill="#7F91F7" x="6" y="10" width="1" height="1"></rect>
                    <rect id="矩形备份-12" fill="#7F91F7" x="3" y="11" width="1" height="1"></rect>
                    <rect id="矩形备份-13" fill="#9EA8DD" x="4" y="11" width="1" height="1"></rect>
                    <rect id="矩形备份-14" fill="#7F91F7" x="4" y="12" width="1" height="1"></rect>
                    <rect id="矩形备份-15" fill="#7F91F7" x="5" y="12" width="1" height="1"></rect>
                    <rect id="矩形备份-16" fill="#9EA8DD" x="6" y="13" width="1" height="1"></rect>
                    <rect id="矩形备份-17" fill="#7F91F7" x="4" y="14" width="1" height="1"></rect>
                    <rect id="矩形备份-18" fill="#7F91F7" x="2" y="16" width="1" height="1"></rect>
                    <rect id="矩形备份-20" fill="#7F91F7" x="2" y="18" width="1" height="1"></rect>
                    <rect id="矩形备份-19" fill="#7F91F7" x="3" y="17" width="1" height="1"></rect>
                    <rect id="矩形备份-21" fill="#9EA8DD" x="3" y="19" width="1" height="1"></rect>
                    <rect id="矩形备份-26" fill="#7F91F7" x="4" y="20" width="1" height="1"></rect>
                    <rect id="矩形备份-23" fill="#7F91F7" x="2" y="20" width="1" height="1"></rect>
                    <rect id="矩形备份-27" fill="#7F91F7" x="2" y="24" width="1" height="1"></rect>
                    <rect id="矩形备份-29" fill="#7F91F7" x="2" y="28" width="1" height="1"></rect>
                    <rect id="矩形备份-22" fill="#7F91F7" x="3" y="21" width="1" height="1"></rect>
                    <rect id="矩形备份-28" fill="#7F91F7" x="3" y="25" width="1" height="1"></rect>
                    <rect id="矩形备份-30" fill="#7F91F7" x="4" y="30" width="1" height="1"></rect>
                    <rect id="矩形备份-31" fill="#9EA8DD" x="5" y="26" width="1" height="1"></rect>
                    <rect id="矩形备份-32" fill="#7F91F7" x="6" y="27" width="1" height="1"></rect>
                    <rect id="矩形备份-33" fill="#7F91F7" x="6" y="29" width="1" height="1"></rect>
                    <rect id="矩形备份-34" fill="#7F91F7" x="7" y="25" width="1" height="1"></rect>
                    <rect id="矩形备份-35" fill="#7F91F7" x="8" y="28" width="1" height="1"></rect>
                    <rect id="矩形备份-36" fill="#BCC5F5" x="8" y="30" width="1" height="1"></rect>
                    <rect id="矩形备份-37" fill="#7F91F7" x="10" y="29" width="1" height="1"></rect>
                    <rect id="矩形备份-38" fill="#7F91F7" x="11" y="30" width="1" height="1"></rect>
                    <rect id="矩形备份-40" fill="#7F91F7" x="17" y="31" width="1" height="1"></rect>
                    <rect id="矩形备份-116" fill="#9EA8DD" x="18" y="30" width="1" height="1"></rect>
                    <rect id="矩形备份-41" fill="#7F91F7" x="23" y="27" width="1" height="1"></rect>
                    <rect id="矩形备份-42" fill="#7F91F7" x="24" y="27" width="1" height="1"></rect>
                    <rect id="矩形备份-43" fill="#7F91F7" x="23" y="28" width="1" height="1"></rect>
                    <rect id="矩形备份-47" fill="#7F91F7" x="25" y="31" width="1" height="1"></rect>
                    <rect id="矩形备份-48" fill="#7F91F7" x="29" y="31" width="1" height="1"></rect>
                    <rect id="矩形备份-50" fill="#7F91F7" x="26" y="29" width="1" height="1"></rect>
                    <rect id="矩形备份-51" fill="#7F91F7" x="27" y="29" width="1" height="1"></rect>
                    <rect id="矩形备份-52" fill="#7F91F7" x="28" y="28" width="1" height="1"></rect>
                    <rect id="矩形备份-53" fill="#7F91F7" x="28" y="27" width="1" height="1"></rect>
                    <rect id="矩形备份-54" fill="#7F91F7" x="29" y="27" width="1" height="1"></rect>
                    <rect id="矩形备份-55" fill="#7F91F7" x="29" y="24" width="1" height="1"></rect>
                    <rect id="矩形备份-56" fill="#9EA8DD" x="27" y="25" width="1" height="1"></rect>
                    <rect id="矩形备份-57" fill="#7F91F7" x="28" y="25" width="1" height="1"></rect>
                    <rect id="矩形备份-58" fill="#7F91F7" x="30" y="25" width="1" height="1"></rect>
                    <rect id="矩形备份-59" fill="#7F91F7" x="31" y="23" width="1" height="1"></rect>
                    <rect id="矩形备份-61" fill="#7F91F7" x="29" y="20" width="1" height="1"></rect>
                    <rect id="矩形备份-62" fill="#BCC5F5" x="30" y="20" width="1" height="1"></rect>
                    <rect id="矩形备份-63" fill="#7F91F7" x="31" y="19" width="1" height="1"></rect>
                    <rect id="矩形备份-64" fill="#7F91F7" x="32" y="18" width="1" height="1"></rect>
                    <rect id="矩形备份-65" fill="#9EA8DD" x="28" y="16" width="1" height="1"></rect>
                    <rect id="矩形备份-66" fill="#7F91F7" x="29" y="16" width="1" height="1"></rect>
                    <rect id="矩形备份-67" fill="#7F91F7" x="31" y="15" width="1" height="1"></rect>
                    <rect id="矩形备份-68" fill="#7F91F7" x="30" y="14" width="1" height="1"></rect>
                    <rect id="矩形备份-69" fill="#7F91F7" x="29" y="13" width="1" height="1"></rect>
                    <rect id="矩形备份-70" fill="#9EA8DD" x="27" y="12" width="1" height="1"></rect>
                    <rect id="矩形备份-71" fill="#7F91F7" x="28" y="11" width="1" height="1"></rect>
                    <rect id="矩形备份-77" fill="#7F91F7" x="28" y="8" width="1" height="1"></rect>
                    <rect id="矩形备份-78" fill="#7F91F7" x="27" y="8" width="1" height="1"></rect>
                    <rect id="矩形备份-79" fill="#9EA8DD" x="26" y="7" width="1" height="1"></rect>
                    <rect id="矩形备份-80" fill="#7F91F7" x="27" y="6" width="1" height="1"></rect>
                    <rect id="矩形备份-81" fill="#7F91F7" x="28" y="5" width="1" height="1"></rect>
                    <rect id="矩形备份-82" fill="#BCC5F5" x="29" y="6" width="1" height="1"></rect>
                    <rect id="矩形备份-83" fill="#7F91F7" x="30" y="5" width="1" height="1"></rect>
                    <rect id="矩形备份-84" fill="#7F91F7" x="31" y="6" width="1" height="1"></rect>
                    <rect id="矩形备份-85" fill="#7F91F7" x="31" y="7" width="1" height="1"></rect>
                    <rect id="矩形备份-86" fill="#9EA8DD" x="32" y="6" width="1" height="1"></rect>
                    <rect id="矩形备份-87" fill="#9EA8DD" x="31" y="3" width="1" height="1"></rect>
                    <rect id="矩形备份-88" fill="#7F91F7" x="30" y="3" width="1" height="1"></rect>
                    <rect id="矩形备份-89" fill="#7F91F7" x="28" y="1" width="1" height="1"></rect>
                    <rect id="矩形备份-90" fill="#9EA8DD" x="26" y="3" width="1" height="1"></rect>
                    <rect id="矩形备份-91" fill="#7F91F7" x="25" y="2" width="1" height="1"></rect>
                    <rect id="矩形备份-92" fill="#7F91F7" x="24" y="3" width="1" height="1"></rect>
                    <rect id="矩形备份-93" fill="#9EA8DD" x="25" y="5" width="1" height="1"></rect>
                    <rect id="矩形备份-94" fill="#7F91F7" x="23" y="4" width="1" height="1"></rect>
                    <rect id="矩形备份-95" fill="#9EA8DD" x="21" y="4" width="1" height="1"></rect>
                    <rect id="矩形备份-96" fill="#7F91F7" x="18" y="4" width="1" height="1"></rect>
                    <rect id="矩形备份-99" fill="#7F91F7" x="20" y="3" width="1" height="1"></rect>
                    <rect id="矩形备份-100" fill="#7F91F7" x="22" y="2" width="1" height="1"></rect>
                    <rect id="矩形备份-101" fill="#7F91F7" x="21" y="1" width="1" height="1"></rect>
                    <rect id="矩形备份-102" fill="#BCC5F5" x="18" y="1" width="1" height="1"></rect>
                    <rect id="矩形备份-103" fill="#7F91F7" x="17" y="1" width="1" height="1"></rect>
                    <rect id="矩形备份-104" fill="#9EA8DD" x="13" y="2" width="1" height="1"></rect>
                    <rect id="矩形备份-105" fill="#7F91F7" x="14" y="2" width="1" height="1"></rect>
                    <rect id="矩形备份-106" fill="#7F91F7" x="15" y="3" width="1" height="1"></rect>
                    <rect id="矩形备份-107" fill="#7F91F7" x="12" y="3" width="1" height="1"></rect>
                    <rect id="矩形备份-108" fill="#7F91F7" x="11" y="4" width="1" height="1"></rect>
                    <rect id="矩形备份-109" fill="#7F91F7" x="9" y="6" width="1" height="1"></rect>
                    <rect id="矩形备份-110" fill="#7F91F7" x="13" y="5" width="1" height="1"></rect>
                    <rect id="矩形备份-111" fill="#7F91F7" x="15" y="7" width="1" height="1"></rect>
                    <rect id="矩形备份-112" fill="#7F91F7" x="17" y="7" width="1" height="1"></rect>
                    <rect id="矩形备份-113" fill="#BCC5F5" x="18" y="9" width="1" height="1"></rect>
                    <rect id="矩形备份-114" fill="#7F91F7" x="16" y="9" width="1" height="1"></rect>
                    <rect id="矩形备份-115" fill="#7F91F7" x="17" y="10" width="1" height="1"></rect>
                    <rect id="矩形备份-98" fill="#7F91F7" x="19" y="5" width="1" height="1"></rect>
                    <rect id="矩形备份-97" fill="#9EA8DD" x="17" y="5" width="1" height="1"></rect>
                    <rect id="矩形备份-72" fill="#7F91F7" x="31" y="12" width="1" height="1"></rect>
                    <rect id="矩形备份-73" fill="#7F91F7" x="32" y="14" width="1" height="1"></rect>
                    <rect id="矩形备份-74" fill="#7F91F7" x="31" y="10" width="1" height="1"></rect>
                    <rect id="矩形备份-75" fill="#7F91F7" x="31" y="9" width="1" height="1"></rect>
                    <rect id="矩形备份-76" fill="#7F91F7" x="32" y="10" width="1" height="1"></rect>
                    <rect id="矩形备份-60" fill="#7F91F7" x="31" y="24" width="1" height="1"></rect>
                    <rect id="矩形备份-49" fill="#7F91F7" x="30" y="31" width="1" height="1"></rect>
                    <rect id="矩形备份-44" fill="#7F91F7" x="21" y="30" width="1" height="1"></rect>
                    <rect id="矩形备份-45" fill="#7F91F7" x="22" y="31" width="1" height="1"></rect>
                    <rect id="矩形备份-46" fill="#7F91F7" x="20" y="26" width="1" height="1"></rect>
                    <rect id="矩形备份-39" fill="#7F91F7" x="12" y="28" width="1" height="1"></rect>
                    <rect id="矩形备份-24" fill="#7F91F7" x="4" y="22" width="1" height="1"></rect>
                    <rect id="矩形备份-25" fill="#9EA8DD" x="5" y="23" width="1" height="1"></rect>
                </g>
            </g>
        </g>
    </g>
</svg>