<?xml version="1.0" encoding="UTF-8"?>
<svg width="34px" height="34px" viewBox="0 0 34 34" version="1.1" xmlns="http://www.w3.org/2000/svg" xmlns:xlink="http://www.w3.org/1999/xlink">
    <title>background_5</title>
    <g id="页面-1" stroke="none" stroke-width="1" fill="none" fill-rule="evenodd">
        <g id="My-Fish" transform="translate(-6.000000, -313.000000)">
            <g id="Backgrounds" transform="translate(6.000000, 275.000000)">
                <g id="5" transform="translate(0.000000, 38.000000)">
                    <rect id="矩形" fill="#000000" x="0" y="0" width="34" height="34"></rect>
                    <rect id="矩形" fill="#FFFFFF" x="3" y="2" width="1" height="1"></rect>
                    <rect id="矩形备份" fill="#FFFFFF" x="5" y="4" width="1" height="1"></rect>
                    <rect id="矩形备份-2" fill="#C3C3C3" x="6" y="3" width="1" height="1"></rect>
                    <rect id="矩形备份-3" fill="#FFFFFF" x="6" y="2" width="1" height="1"></rect>
                    <rect id="矩形备份-4" fill="#C3C3C3" x="8" y="2" width="1" height="1"></rect>
                    <rect id="矩形备份-5" fill="#FFFFFF" x="7" y="5" width="1" height="1"></rect>
                    <rect id="矩形备份-6" fill="#E4E2E2" x="6" y="6" width="1" height="1"></rect>
                    <rect id="矩形备份-7" fill="#FFFFFF" x="3" y="7" width="1" height="1"></rect>
                    <rect id="矩形备份-8" fill="#FFFFFF" x="3" y="8" width="1" height="1"></rect>
                    <rect id="矩形备份-9" fill="#E4E2E2" x="4" y="8" width="1" height="1"></rect>
                    <rect id="矩形备份-10" fill="#C3C3C3" x="6" y="18" width="1" height="1"></rect>
                    <rect id="矩形备份-11" fill="#FFFFFF" x="6" y="10" width="1" height="1"></rect>
                    <rect id="矩形备份-12" fill="#FFFFFF" x="3" y="11" width="1" height="1"></rect>
                    <rect id="矩形备份-13" fill="#FFFFFF" x="4" y="11" width="1" height="1"></rect>
                    <rect id="矩形备份-14" fill="#FFFFFF" x="4" y="12" width="1" height="1"></rect>
                    <rect id="矩形备份-15" fill="#FFFFFF" x="5" y="12" width="1" height="1"></rect>
                    <rect id="矩形备份-16" fill="#FFFFFF" x="6" y="13" width="1" height="1"></rect>
                    <rect id="矩形备份-17" fill="#FFFFFF" x="4" y="14" width="1" height="1"></rect>
                    <rect id="矩形备份-18" fill="#C3C3C3" x="2" y="16" width="1" height="1"></rect>
                    <rect id="矩形备份-20" fill="#E4E2E2" x="2" y="18" width="1" height="1"></rect>
                    <rect id="矩形备份-19" fill="#FFFFFF" x="3" y="17" width="1" height="1"></rect>
                    <rect id="矩形备份-21" fill="#FFFFFF" x="3" y="22" width="1" height="1"></rect>
                    <rect id="矩形备份-26" fill="#C3C3C3" x="4" y="20" width="1" height="1"></rect>
                    <rect id="矩形备份-23" fill="#E4E2E2" x="2" y="20" width="1" height="1"></rect>
                    <rect id="矩形备份-27" fill="#FFFFFF" x="2" y="24" width="1" height="1"></rect>
                    <rect id="矩形备份-29" fill="#FFFFFF" x="2" y="28" width="1" height="1"></rect>
                    <rect id="矩形备份-22" fill="#C3C3C3" x="4" y="16" width="1" height="1"></rect>
                    <rect id="矩形备份-28" fill="#FFFFFF" x="3" y="26" width="1" height="1"></rect>
                    <rect id="矩形备份-30" fill="#FFFFFF" x="4" y="30" width="1" height="1"></rect>
                    <rect id="矩形备份-31" fill="#FFFFFF" x="5" y="26" width="1" height="1"></rect>
                    <rect id="矩形备份-32" fill="#E4E2E2" x="15" y="29" width="1" height="1"></rect>
                    <rect id="矩形备份-33" fill="#FFFFFF" x="8" y="29" width="1" height="1"></rect>
                    <rect id="矩形备份-34" fill="#E4E2E2" x="7" y="25" width="1" height="1"></rect>
                    <rect id="矩形备份-35" fill="#FFFFFF" x="9" y="27" width="1" height="1"></rect>
                    <rect id="矩形备份-36" fill="#FFFFFF" x="8" y="30" width="1" height="1"></rect>
                    <rect id="矩形备份-37" fill="#FFFFFF" x="10" y="26" width="1" height="1"></rect>
                    <rect id="矩形备份-38" fill="#FFFFFF" x="11" y="30" width="1" height="1"></rect>
                    <rect id="矩形备份-40" fill="#FFFFFF" x="17" y="31" width="1" height="1"></rect>
                    <rect id="矩形备份-116" fill="#FFFFFF" x="16" y="30" width="1" height="1"></rect>
                    <rect id="矩形备份-41" fill="#FFFFFF" x="22" y="28" width="1" height="1"></rect>
                    <rect id="矩形备份-42" fill="#FFFFFF" x="23" y="27" width="1" height="1"></rect>
                    <rect id="矩形备份-43" fill="#FFFFFF" x="22" y="26" width="1" height="1"></rect>
                    <rect id="矩形备份-47" fill="#C3C3C3" x="19" y="28" width="1" height="1"></rect>
                    <rect id="矩形备份-48" fill="#FFFFFF" x="29" y="31" width="1" height="1"></rect>
                    <rect id="矩形备份-50" fill="#FFFFFF" x="26" y="29" width="1" height="1"></rect>
                    <rect id="矩形备份-51" fill="#FFFFFF" x="27" y="29" width="1" height="1"></rect>
                    <rect id="矩形备份-52" fill="#FFFFFF" x="28" y="28" width="1" height="1"></rect>
                    <rect id="矩形备份-53" fill="#C3C3C3" x="27" y="31" width="1" height="1"></rect>
                    <rect id="矩形备份-54" fill="#FFFFFF" x="29" y="27" width="1" height="1"></rect>
                    <rect id="矩形备份-55" fill="#FFFFFF" x="29" y="24" width="1" height="1"></rect>
                    <rect id="矩形备份-56" fill="#FFFFFF" x="27" y="25" width="1" height="1"></rect>
                    <rect id="矩形备份-57" fill="#FFFFFF" x="28" y="25" width="1" height="1"></rect>
                    <rect id="矩形备份-58" fill="#FFFFFF" x="30" y="25" width="1" height="1"></rect>
                    <rect id="矩形备份-59" fill="#FFFFFF" x="31" y="23" width="1" height="1"></rect>
                    <rect id="矩形备份-61" fill="#FFFFFF" x="28" y="20" width="1" height="1"></rect>
                    <rect id="矩形备份-62" fill="#C3C3C3" x="31" y="27" width="1" height="1"></rect>
                    <rect id="矩形备份-63" fill="#FFFFFF" x="31" y="19" width="1" height="1"></rect>
                    <rect id="矩形备份-64" fill="#FFFFFF" x="32" y="18" width="1" height="1"></rect>
                    <rect id="矩形备份-65" fill="#FFFFFF" x="29" y="17" width="1" height="1"></rect>
                    <rect id="矩形备份-66" fill="#FFFFFF" x="29" y="16" width="1" height="1"></rect>
                    <rect id="矩形备份-67" fill="#FFFFFF" x="31" y="15" width="1" height="1"></rect>
                    <rect id="矩形备份-68" fill="#FFFFFF" x="26" y="11" width="1" height="1"></rect>
                    <rect id="矩形备份-69" fill="#FFFFFF" x="29" y="13" width="1" height="1"></rect>
                    <rect id="矩形备份-70" fill="#FFFFFF" x="25" y="9" width="1" height="1"></rect>
                    <rect id="矩形备份-71" fill="#FFFFFF" x="28" y="11" width="1" height="1"></rect>
                    <rect id="矩形备份-77" fill="#FFFFFF" x="28" y="8" width="1" height="1"></rect>
                    <rect id="矩形备份-78" fill="#FFFFFF" x="27" y="8" width="1" height="1"></rect>
                    <rect id="矩形备份-79" fill="#FFFFFF" x="26" y="7" width="1" height="1"></rect>
                    <rect id="矩形备份-80" fill="#C3C3C3" x="27" y="6" width="1" height="1"></rect>
                    <rect id="矩形备份-81" fill="#FFFFFF" x="28" y="5" width="1" height="1"></rect>
                    <rect id="矩形备份-82" fill="#FFFFFF" x="29" y="6" width="1" height="1"></rect>
                    <rect id="矩形备份-83" fill="#FFFFFF" x="30" y="5" width="1" height="1"></rect>
                    <rect id="矩形备份-84" fill="#FFFFFF" x="31" y="6" width="1" height="1"></rect>
                    <rect id="矩形备份-85" fill="#FFFFFF" x="31" y="7" width="1" height="1"></rect>
                    <rect id="矩形备份-86" fill="#FFFFFF" x="32" y="6" width="1" height="1"></rect>
                    <rect id="矩形备份-87" fill="#FFFFFF" x="31" y="3" width="1" height="1"></rect>
                    <rect id="矩形备份-88" fill="#FFFFFF" x="30" y="3" width="1" height="1"></rect>
                    <rect id="矩形备份-89" fill="#FFFFFF" x="28" y="1" width="1" height="1"></rect>
                    <rect id="矩形备份-90" fill="#FFFFFF" x="26" y="3" width="1" height="1"></rect>
                    <rect id="矩形备份-91" fill="#FFFFFF" x="25" y="2" width="1" height="1"></rect>
                    <rect id="矩形备份-92" fill="#C3C3C3" x="24" y="3" width="1" height="1"></rect>
                    <rect id="矩形备份-93" fill="#FFFFFF" x="25" y="5" width="1" height="1"></rect>
                    <rect id="矩形备份-94" fill="#FFFFFF" x="23" y="4" width="1" height="1"></rect>
                    <rect id="矩形备份-95" fill="#FFFFFF" x="21" y="4" width="1" height="1"></rect>
                    <rect id="矩形备份-96" fill="#C3C3C3" x="18" y="3" width="1" height="1"></rect>
                    <rect id="矩形备份-99" fill="#C3C3C3" x="20" y="3" width="1" height="1"></rect>
                    <rect id="矩形备份-100" fill="#FFFFFF" x="22" y="2" width="1" height="1"></rect>
                    <rect id="矩形备份-101" fill="#FFFFFF" x="21" y="1" width="1" height="1"></rect>
                    <rect id="矩形备份-102" fill="#FFFFFF" x="18" y="1" width="1" height="1"></rect>
                    <rect id="矩形备份-103" fill="#C3C3C3" x="7" y="22" width="1" height="1"></rect>
                    <rect id="矩形备份-104" fill="#FFFFFF" x="13" y="2" width="1" height="1"></rect>
                    <rect id="矩形备份-105" fill="#C3C3C3" x="29" y="22" width="1" height="1"></rect>
                    <rect id="矩形备份-106" fill="#FFFFFF" x="15" y="3" width="1" height="1"></rect>
                    <rect id="矩形备份-107" fill="#FFFFFF" x="12" y="3" width="1" height="1"></rect>
                    <rect id="矩形备份-108" fill="#FFFFFF" x="11" y="4" width="1" height="1"></rect>
                    <rect id="矩形备份-109" fill="#FFFFFF" x="9" y="6" width="1" height="1"></rect>
                    <rect id="矩形备份-110" fill="#FFFFFF" x="13" y="5" width="1" height="1"></rect>
                    <rect id="矩形备份-111" fill="#FFFFFF" x="15" y="7" width="1" height="1"></rect>
                    <rect id="矩形备份-112" fill="#FFFFFF" x="17" y="7" width="1" height="1"></rect>
                    <rect id="矩形备份-113" fill="#C3C3C3" x="18" y="9" width="1" height="1"></rect>
                    <rect id="矩形备份-114" fill="#FFFFFF" x="16" y="9" width="1" height="1"></rect>
                    <rect id="矩形备份-115" fill="#E4E2E2" x="10" y="8" width="1" height="1"></rect>
                    <rect id="矩形备份-98" fill="#FFFFFF" x="19" y="5" width="1" height="1"></rect>
                    <rect id="矩形备份-97" fill="#C3C3C3" x="17" y="5" width="1" height="1"></rect>
                    <rect id="矩形备份-72" fill="#FFFFFF" x="31" y="12" width="1" height="1"></rect>
                    <rect id="矩形备份-73" fill="#FFFFFF" x="32" y="14" width="1" height="1"></rect>
                    <rect id="矩形备份-74" fill="#FFFFFF" x="31" y="10" width="1" height="1"></rect>
                    <rect id="矩形备份-75" fill="#FFFFFF" x="31" y="9" width="1" height="1"></rect>
                    <rect id="矩形备份-76" fill="#FFFFFF" x="32" y="10" width="1" height="1"></rect>
                    <rect id="矩形备份-60" fill="#FFFFFF" x="31" y="24" width="1" height="1"></rect>
                    <rect id="矩形备份-49" fill="#FFFFFF" x="30" y="31" width="1" height="1"></rect>
                    <rect id="矩形备份-44" fill="#FFFFFF" x="23" y="30" width="1" height="1"></rect>
                    <rect id="矩形备份-45" fill="#FFFFFF" x="22" y="31" width="1" height="1"></rect>
                    <rect id="矩形备份-46" fill="#FFFFFF" x="20" y="26" width="1" height="1"></rect>
                    <rect id="矩形备份-39" fill="#FFFFFF" x="13" y="27" width="1" height="1"></rect>
                    <rect id="矩形备份-24" fill="#E4E2E2" x="4" y="22" width="1" height="1"></rect>
                    <rect id="矩形备份-25" fill="#FFFFFF" x="5" y="23" width="1" height="1"></rect>
                </g>
            </g>
        </g>
    </g>
</svg>