<?xml version="1.0" encoding="UTF-8"?>
<svg width="34px" height="34px" viewBox="0 0 34 34" version="1.1" xmlns="http://www.w3.org/2000/svg" xmlns:xlink="http://www.w3.org/1999/xlink">
    <title>fin_7</title>
    <g id="页面-1" stroke="none" stroke-width="1" fill="none" fill-rule="evenodd" opacity="0.699999988">
        <g id="My-Fish" transform="translate(-84.000000, -460.000000)">
            <g id="Fins" transform="translate(6.000000, 421.000000)">
                <g id="7" transform="translate(78.000000, 39.000000)">
                    <rect id="矩形" x="0" y="0" width="34" height="34"></rect>
                    <g id="编组-3" transform="translate(10.000000, 8.000000)" fill="#FADA6C">
                        <rect id="矩形备份-207" x="1" y="4" width="1" height="1"></rect>
                        <rect id="矩形备份-198" x="2" y="2" width="1" height="1"></rect>
                        <rect id="矩形备份-199" x="0" y="4" width="1" height="1"></rect>
                        <rect id="矩形备份-200" x="1" y="3" width="1" height="1"></rect>
                        <rect id="矩形备份-210" x="2" y="4" width="1" height="1"></rect>
                        <rect id="矩形备份-212" x="3" y="4" width="1" height="1"></rect>
                        <rect id="矩形备份-213" x="3" y="1" width="1" height="1"></rect>
                        <rect id="矩形备份-217" x="4" y="0" width="1" height="1"></rect>
                        <rect id="矩形备份-214" x="6" y="2" width="1" height="1"></rect>
                        <rect id="矩形备份-218" x="5" y="1" width="1" height="1"></rect>
                        <rect id="矩形备份-215" x="6" y="3" width="1" height="1"></rect>
                        <rect id="矩形备份-216" x="6" y="4" width="1" height="1"></rect>
                    </g>
                </g>
            </g>
        </g>
    </g>
</svg>