<?xml version="1.0" encoding="UTF-8"?>
<svg width="34px" height="34px" viewBox="0 0 34 34" version="1.1" xmlns="http://www.w3.org/2000/svg" xmlns:xlink="http://www.w3.org/1999/xlink">
    <title>fin_1</title>
    <g id="页面-1" stroke="none" stroke-width="1" fill="none" fill-rule="evenodd">
        <g id="My-Fish" transform="translate(-45.000000, -421.000000)">
            <g id="Fins" transform="translate(6.000000, 421.000000)">
                <g id="1" transform="translate(39.000000, 0.000000)">
                    <rect id="矩形" x="0" y="0" width="34" height="34"></rect>
                    <g id="编组" transform="translate(9.000000, 9.000000)">
                        <rect id="矩形备份-41" fill="#FC8D66" x="1" y="2" width="1" height="1"></rect>
                        <rect id="矩形备份-200" fill="#FC8D66" x="1" y="3" width="1" height="1"></rect>
                        <rect id="矩形备份-42" fill="#FC8D66" x="2" y="1" width="1" height="1"></rect>
                        <rect id="矩形备份-186" fill="#FFFFFF" x="2" y="2" width="1" height="1"></rect>
                        <rect id="矩形备份-201" fill="#FC8D66" x="2" y="3" width="1" height="1"></rect>
                        <rect id="矩形备份-196" fill="#FFFFFF" x="4" y="2" width="1" height="1"></rect>
                        <rect id="矩形备份-202" fill="#FC8D66" x="4" y="3" width="1" height="1"></rect>
                        <rect id="矩形备份-197" fill="#FFFFFF" x="3" y="2" width="1" height="1"></rect>
                        <rect id="矩形备份-203" fill="#FC8D66" x="3" y="3" width="1" height="1"></rect>
                        <rect id="矩形备份-198" fill="#FFFFFF" x="3" y="1" width="1" height="1"></rect>
                        <rect id="矩形备份-184" fill="#FC8D66" x="3" y="0" width="1" height="1"></rect>
                        <rect id="矩形备份-185" fill="#FC8D66" x="4" y="1" width="1" height="1"></rect>
                        <rect id="矩形备份-195" fill="#FC8D66" x="6" y="3" width="1" height="1"></rect>
                        <rect id="矩形备份-187" fill="#FC8D66" x="5" y="2" width="1" height="1"></rect>
                        <rect id="矩形备份-204" fill="#FC8D66" x="5" y="3" width="1" height="1"></rect>
                        <rect id="矩形备份-199" fill="#FC8D66" x="0" y="3" width="1" height="1"></rect>
                    </g>
                </g>
            </g>
        </g>
    </g>
</svg>