<?xml version="1.0" encoding="UTF-8"?>
<svg width="34px" height="34px" viewBox="0 0 34 34" version="1.1" xmlns="http://www.w3.org/2000/svg" xmlns:xlink="http://www.w3.org/1999/xlink">
    <title>frame_6</title>
    <g id="页面-1" stroke="none" stroke-width="1" fill="none" fill-rule="evenodd">
        <g id="My-Fish" transform="translate(-45.000000, -168.000000)">
            <g id="Frames" transform="translate(6.000000, 129.000000)">
                <g id="6" transform="translate(39.000000, 39.000000)">
                    <g id="编组">
                        <rect id="矩形" fill="#E7AC25" x="0" y="0" width="1" height="1"></rect>
                        <rect id="矩形备份" fill="#E7AC25" x="0" y="5" width="1" height="1"></rect>
                        <rect id="矩形备份-10" fill="#E7AC25" x="0" y="10" width="1" height="1"></rect>
                        <rect id="矩形备份-2" fill="#E7AC25" x="0" y="1" width="1" height="1"></rect>
                        <rect id="矩形备份-6" fill="#E7AC25" x="0" y="6" width="1" height="1"></rect>
                        <rect id="矩形备份-11" fill="#E7AC25" x="0" y="11" width="1" height="1"></rect>
                        <rect id="矩形备份-3" fill="#FAC346" x="0" y="2" width="1" height="1"></rect>
                        <rect id="矩形备份-7" fill="#FAC346" x="0" y="7" width="1" height="1"></rect>
                        <rect id="矩形备份-12" fill="#FAC346" x="0" y="12" width="1" height="1"></rect>
                        <rect id="矩形备份-5" fill="#FFE098" x="0" y="4" width="1" height="1"></rect>
                        <rect id="矩形备份-8" fill="#FFE098" x="0" y="9" width="1" height="1"></rect>
                        <rect id="矩形备份-13" fill="#FFE098" x="0" y="14" width="1" height="1"></rect>
                        <rect id="矩形备份-4" fill="#F2C662" x="0" y="3" width="1" height="1"></rect>
                        <rect id="矩形备份-9" fill="#F2C662" x="0" y="8" width="1" height="1"></rect>
                        <rect id="矩形备份-14" fill="#F2C662" x="0" y="13" width="1" height="1"></rect>
                        <rect id="矩形备份-19" fill="#E7AC25" x="0" y="15" width="1" height="1"></rect>
                        <rect id="矩形备份-18" fill="#E7AC25" x="0" y="16" width="1" height="1"></rect>
                        <rect id="矩形备份-17" fill="#FAC346" x="0" y="17" width="1" height="1"></rect>
                        <rect id="矩形备份-16" fill="#FFE098" x="0" y="19" width="1" height="1"></rect>
                        <rect id="矩形备份-15" fill="#F2C662" x="0" y="18" width="1" height="1"></rect>
                        <rect id="矩形备份-24" fill="#E7AC25" x="0" y="20" width="1" height="1"></rect>
                        <rect id="矩形备份-23" fill="#E7AC25" x="0" y="21" width="1" height="1"></rect>
                        <rect id="矩形备份-22" fill="#FAC346" x="0" y="22" width="1" height="1"></rect>
                        <rect id="矩形备份-21" fill="#FFE098" x="0" y="24" width="1" height="1"></rect>
                        <rect id="矩形备份-20" fill="#F2C662" x="0" y="23" width="1" height="1"></rect>
                        <rect id="矩形备份-29" fill="#E7AC25" x="0" y="25" width="1" height="1"></rect>
                        <rect id="矩形备份-28" fill="#E7AC25" x="0" y="26" width="1" height="1"></rect>
                        <rect id="矩形备份-27" fill="#FAC346" x="0" y="27" width="1" height="1"></rect>
                        <rect id="矩形备份-26" fill="#FFE098" x="0" y="29" width="1" height="1"></rect>
                        <rect id="矩形备份-31" fill="#FFE098" x="1" y="33" width="1" height="1"></rect>
                        <rect id="矩形备份-38" fill="#FFE098" x="6" y="33" width="1" height="1"></rect>
                        <rect id="矩形备份-25" fill="#F2C662" x="0" y="28" width="1" height="1"></rect>
                        <rect id="矩形备份-34" fill="#E7AC25" x="0" y="30" width="1" height="1"></rect>
                        <rect id="矩形备份-35" fill="#E7AC25" x="2" y="33" width="1" height="1"></rect>
                        <rect id="矩形备份-39" fill="#E7AC25" x="7" y="33" width="1" height="1"></rect>
                        <rect id="矩形备份-33" fill="#E7AC25" x="0" y="31" width="1" height="1"></rect>
                        <rect id="矩形备份-36" fill="#E7AC25" x="3" y="33" width="1" height="1"></rect>
                        <rect id="矩形备份-40" fill="#E7AC25" x="8" y="33" width="1" height="1"></rect>
                        <rect id="矩形备份-32" fill="#FAC346" x="0" y="32" width="1" height="1"></rect>
                        <rect id="矩形备份-37" fill="#FAC346" x="4" y="33" width="1" height="1"></rect>
                        <rect id="矩形备份-41" fill="#FAC346" x="9" y="33" width="1" height="1"></rect>
                        <rect id="矩形备份-30" fill="#F2C662" x="0" y="33" width="1" height="1"></rect>
                        <rect id="矩形备份-42" fill="#F2C662" x="5" y="33" width="1" height="1"></rect>
                        <rect id="矩形备份-47" fill="#FFE098" x="11" y="33" width="1" height="1"></rect>
                        <rect id="矩形备份-46" fill="#E7AC25" x="12" y="33" width="1" height="1"></rect>
                        <rect id="矩形备份-45" fill="#E7AC25" x="13" y="33" width="1" height="1"></rect>
                        <rect id="矩形备份-44" fill="#FAC346" x="14" y="33" width="1" height="1"></rect>
                        <rect id="矩形备份-43" fill="#F2C662" x="10" y="33" width="1" height="1"></rect>
                        <rect id="矩形备份-52" fill="#FFE098" x="16" y="33" width="1" height="1"></rect>
                        <rect id="矩形备份-51" fill="#E7AC25" x="17" y="33" width="1" height="1"></rect>
                        <rect id="矩形备份-50" fill="#E7AC25" x="18" y="33" width="1" height="1"></rect>
                        <rect id="矩形备份-49" fill="#FAC346" x="19" y="33" width="1" height="1"></rect>
                        <rect id="矩形备份-48" fill="#F2C662" x="15" y="33" width="1" height="1"></rect>
                        <rect id="矩形备份-57" fill="#FFE098" x="21" y="33" width="1" height="1"></rect>
                        <rect id="矩形备份-56" fill="#E7AC25" x="22" y="33" width="1" height="1"></rect>
                        <rect id="矩形备份-55" fill="#E7AC25" x="23" y="33" width="1" height="1"></rect>
                        <rect id="矩形备份-54" fill="#FAC346" x="24" y="33" width="1" height="1"></rect>
                        <rect id="矩形备份-53" fill="#F2C662" x="20" y="33" width="1" height="1"></rect>
                        <rect id="矩形备份-62" fill="#FFE098" x="26" y="33" width="1" height="1"></rect>
                        <rect id="矩形备份-63" fill="#FFE098" x="31" y="33" width="1" height="1"></rect>
                        <rect id="矩形备份-61" fill="#E7AC25" x="27" y="33" width="1" height="1"></rect>
                        <rect id="矩形备份-64" fill="#E7AC25" x="32" y="33" width="1" height="1"></rect>
                        <rect id="矩形备份-60" fill="#E7AC25" x="28" y="33" width="1" height="1"></rect>
                        <rect id="矩形备份-65" fill="#E7AC25" x="33" y="33" width="1" height="1"></rect>
                        <rect id="矩形备份-71" fill="#E7AC25" x="33" y="28" width="1" height="1"></rect>
                        <rect id="矩形备份-67" fill="#E7AC25" x="33" y="32" width="1" height="1"></rect>
                        <rect id="矩形备份-72" fill="#E7AC25" x="33" y="27" width="1" height="1"></rect>
                        <rect id="矩形备份-68" fill="#FAC346" x="33" y="31" width="1" height="1"></rect>
                        <rect id="矩形备份-73" fill="#FAC346" x="33" y="26" width="1" height="1"></rect>
                        <rect id="矩形备份-69" fill="#F2C662" x="33" y="30" width="1" height="1"></rect>
                        <rect id="矩形备份-74" fill="#F2C662" x="33" y="25" width="1" height="1"></rect>
                        <rect id="矩形备份-70" fill="#FFE098" x="33" y="29" width="1" height="1"></rect>
                        <rect id="矩形备份-75" fill="#FFE098" x="33" y="24" width="1" height="1"></rect>
                        <rect id="矩形备份-80" fill="#E7AC25" x="33" y="23" width="1" height="1"></rect>
                        <rect id="矩形备份-79" fill="#E7AC25" x="33" y="22" width="1" height="1"></rect>
                        <rect id="矩形备份-78" fill="#FAC346" x="33" y="21" width="1" height="1"></rect>
                        <rect id="矩形备份-77" fill="#F2C662" x="33" y="20" width="1" height="1"></rect>
                        <rect id="矩形备份-76" fill="#FFE098" x="33" y="19" width="1" height="1"></rect>
                        <rect id="矩形备份-85" fill="#E7AC25" x="33" y="18" width="1" height="1"></rect>
                        <rect id="矩形备份-84" fill="#E7AC25" x="33" y="17" width="1" height="1"></rect>
                        <rect id="矩形备份-83" fill="#FAC346" x="33" y="16" width="1" height="1"></rect>
                        <rect id="矩形备份-82" fill="#F2C662" x="33" y="15" width="1" height="1"></rect>
                        <rect id="矩形备份-81" fill="#FFE098" x="33" y="14" width="1" height="1"></rect>
                        <rect id="矩形备份-90" fill="#E7AC25" x="33" y="13" width="1" height="1"></rect>
                        <rect id="矩形备份-89" fill="#E7AC25" x="33" y="12" width="1" height="1"></rect>
                        <rect id="矩形备份-88" fill="#FAC346" x="33" y="11" width="1" height="1"></rect>
                        <rect id="矩形备份-87" fill="#F2C662" x="33" y="10" width="1" height="1"></rect>
                        <rect id="矩形备份-86" fill="#FFE098" x="33" y="9" width="1" height="1"></rect>
                        <rect id="矩形备份-95" fill="#E7AC25" x="33" y="8" width="1" height="1"></rect>
                        <rect id="矩形备份-94" fill="#E7AC25" x="33" y="7" width="1" height="1"></rect>
                        <rect id="矩形备份-93" fill="#FAC346" x="33" y="6" width="1" height="1"></rect>
                        <rect id="矩形备份-92" fill="#F2C662" x="33" y="5" width="1" height="1"></rect>
                        <rect id="矩形备份-91" fill="#FFE098" x="33" y="4" width="1" height="1"></rect>
                        <rect id="矩形备份-96" fill="#FFE098" x="32" y="0" width="1" height="1"></rect>
                        <rect id="矩形备份-105" fill="#FFE098" x="27" y="0" width="1" height="1"></rect>
                        <rect id="矩形备份-100" fill="#E7AC25" x="33" y="3" width="1" height="1"></rect>
                        <rect id="矩形备份-101" fill="#E7AC25" x="31" y="0" width="1" height="1"></rect>
                        <rect id="矩形备份-106" fill="#E7AC25" x="26" y="0" width="1" height="1"></rect>
                        <rect id="矩形备份-99" fill="#E7AC25" x="33" y="2" width="1" height="1"></rect>
                        <rect id="矩形备份-102" fill="#E7AC25" x="30" y="0" width="1" height="1"></rect>
                        <rect id="矩形备份-107" fill="#E7AC25" x="25" y="0" width="1" height="1"></rect>
                        <rect id="矩形备份-98" fill="#FAC346" x="33" y="1" width="1" height="1"></rect>
                        <rect id="矩形备份-104" fill="#FAC346" x="28" y="0" width="1" height="1"></rect>
                        <rect id="矩形备份-108" fill="#FAC346" x="23" y="0" width="1" height="1"></rect>
                        <rect id="矩形备份-103" fill="#FAC346" x="29" y="0" width="1" height="1"></rect>
                        <rect id="矩形备份-109" fill="#FAC346" x="24" y="0" width="1" height="1"></rect>
                        <rect id="矩形备份-114" fill="#FFE098" x="22" y="0" width="1" height="1"></rect>
                        <rect id="矩形备份-113" fill="#E7AC25" x="21" y="0" width="1" height="1"></rect>
                        <rect id="矩形备份-112" fill="#E7AC25" x="20" y="0" width="1" height="1"></rect>
                        <rect id="矩形备份-111" fill="#FAC346" x="18" y="0" width="1" height="1"></rect>
                        <rect id="矩形备份-110" fill="#FAC346" x="19" y="0" width="1" height="1"></rect>
                        <rect id="矩形备份-119" fill="#FFE098" x="17" y="0" width="1" height="1"></rect>
                        <rect id="矩形备份-118" fill="#E7AC25" x="16" y="0" width="1" height="1"></rect>
                        <rect id="矩形备份-117" fill="#E7AC25" x="15" y="0" width="1" height="1"></rect>
                        <rect id="矩形备份-116" fill="#FAC346" x="13" y="0" width="1" height="1"></rect>
                        <rect id="矩形备份-115" fill="#FAC346" x="14" y="0" width="1" height="1"></rect>
                        <rect id="矩形备份-124" fill="#FFE098" x="12" y="0" width="1" height="1"></rect>
                        <rect id="矩形备份-123" fill="#E7AC25" x="11" y="0" width="1" height="1"></rect>
                        <rect id="矩形备份-122" fill="#E7AC25" x="10" y="0" width="1" height="1"></rect>
                        <rect id="矩形备份-121" fill="#FAC346" x="8" y="0" width="1" height="1"></rect>
                        <rect id="矩形备份-120" fill="#FAC346" x="9" y="0" width="1" height="1"></rect>
                        <rect id="矩形备份-129" fill="#FFE098" x="7" y="0" width="1" height="1"></rect>
                        <rect id="矩形备份-130" fill="#FFE098" x="2" y="0" width="1" height="1"></rect>
                        <rect id="矩形备份-128" fill="#E7AC25" x="6" y="0" width="1" height="1"></rect>
                        <rect id="矩形备份-131" fill="#E7AC25" x="1" y="0" width="1" height="1"></rect>
                        <rect id="矩形备份-127" fill="#E7AC25" x="5" y="0" width="1" height="1"></rect>
                        <rect id="矩形备份-126" fill="#FAC346" x="3" y="0" width="1" height="1"></rect>
                        <rect id="矩形备份-125" fill="#FAC346" x="4" y="0" width="1" height="1"></rect>
                        <rect id="矩形备份-97" fill="#F2C662" x="33" y="0" width="1" height="1"></rect>
                        <rect id="矩形备份-59" fill="#FAC346" x="29" y="33" width="1" height="1"></rect>
                        <rect id="矩形备份-58" fill="#F2C662" x="25" y="33" width="1" height="1"></rect>
                        <rect id="矩形备份-66" fill="#F2C662" x="30" y="33" width="1" height="1"></rect>
                    </g>
                    <rect id="矩形" stroke="#E1C074" x="1.5" y="1.5" width="31" height="31"></rect>
                </g>
            </g>
        </g>
    </g>
</svg>