<?xml version="1.0" encoding="UTF-8"?>
<svg width="34px" height="34px" viewBox="0 0 34 34" version="1.1" xmlns="http://www.w3.org/2000/svg" xmlns:xlink="http://www.w3.org/1999/xlink">
    <title>frame_b</title>
    <g id="页面-1" stroke="none" stroke-width="1" fill="none" fill-rule="evenodd">
        <g id="My-Fish" transform="translate(-45.000000, -207.000000)">
            <g id="Frames" transform="translate(6.000000, 129.000000)">
                <g id="b" transform="translate(39.000000, 78.000000)">
                    <rect id="矩形" fill="#FFFFFF" x="0" y="2.27373675e-13" width="1" height="1"></rect>
                    <rect id="矩形备份-3" fill-opacity="0.519749781" fill="#1BBCF7" x="3" y="2.27373675e-13" width="1" height="1"></rect>
                    <rect id="矩形备份" fill="#FFFFFF" x="1" y="2.27373675e-13" width="1" height="1"></rect>
                    <rect id="矩形备份-4" fill="#000000" x="4" y="2.27373675e-13" width="1" height="1"></rect>
                    <rect id="矩形备份-2" fill="#000000" x="2" y="2.27373675e-13" width="1" height="1"></rect>
                    <rect id="矩形备份-5" fill="#FCC911" x="5" y="2.27373675e-13" width="1" height="1"></rect>
                    <rect id="矩形备份-8" fill="#000000" x="6" y="2.27373675e-13" width="1" height="1"></rect>
                    <rect id="矩形备份-7" fill="#F36464" x="7" y="2.27373675e-13" width="1" height="1"></rect>
                    <rect id="矩形备份-6" fill="#F36464" x="8" y="2.27373675e-13" width="1" height="1"></rect>
                    <rect id="矩形备份-11" fill="#000000" x="9" y="2.27373675e-13" width="1" height="1"></rect>
                    <rect id="矩形备份-10" fill="#9C74F7" x="10" y="2.27373675e-13" width="1" height="1"></rect>
                    <rect id="矩形备份-9" fill="#9C74F7" x="11" y="2.27373675e-13" width="1" height="1"></rect>
                    <rect id="矩形备份-14" fill="#9C74F7" x="12" y="2.27373675e-13" width="1" height="1"></rect>
                    <rect id="矩形备份-13" fill="#9C74F7" x="13" y="2.27373675e-13" width="1" height="1"></rect>
                    <rect id="矩形备份-12" fill="#000000" x="14" y="2.27373675e-13" width="1" height="1"></rect>
                    <rect id="矩形备份-17" fill="#3EF0B5" x="15" y="2.27373675e-13" width="1" height="1"></rect>
                    <rect id="矩形备份-16" fill="#3EF0B5" x="16" y="2.27373675e-13" width="1" height="1"></rect>
                    <rect id="矩形备份-15" fill="#3EF0B5" x="17" y="2.27373675e-13" width="1" height="1"></rect>
                    <rect id="矩形备份-20" fill="#3EF0B5" x="18" y="2.27373675e-13" width="1" height="1"></rect>
                    <rect id="矩形备份-19" fill="#3EF0B5" x="19" y="2.27373675e-13" width="1" height="1"></rect>
                    <rect id="矩形备份-18" fill="#3EF0B5" x="20" y="2.27373675e-13" width="1" height="1"></rect>
                    <rect id="矩形备份-23" fill="#000000" x="21" y="2.27373675e-13" width="1" height="1"></rect>
                    <rect id="矩形备份-22" fill="#3EA3F0" x="22" y="2.27373675e-13" width="1" height="1"></rect>
                    <rect id="矩形备份-21" fill="#000000" x="23" y="2.27373675e-13" width="1" height="1"></rect>
                    <rect id="矩形备份-26" fill="#000000" x="24" y="2.27373675e-13" width="1" height="1"></rect>
                    <rect id="矩形备份-25" fill="#000000" x="25" y="2.27373675e-13" width="1" height="1"></rect>
                    <rect id="矩形备份-24" fill="#000000" x="26" y="2.27373675e-13" width="1" height="1"></rect>
                    <rect id="矩形备份-29" fill="#9C74F7" x="27" y="2.27373675e-13" width="1" height="1"></rect>
                    <rect id="矩形备份-28" fill="#9C74F7" x="28" y="2.27373675e-13" width="1" height="1"></rect>
                    <rect id="矩形备份-27" fill="#9C74F7" x="29" y="2.27373675e-13" width="1" height="1"></rect>
                    <rect id="矩形备份-32" fill="#000000" x="30" y="2.27373675e-13" width="1" height="1"></rect>
                    <rect id="矩形备份-31" fill="#88DCFB" x="31" y="2.27373675e-13" width="1" height="1"></rect>
                    <rect id="矩形备份-30" fill="#88DCFB" x="32" y="2.27373675e-13" width="1" height="1"></rect>
                    <rect id="矩形备份-33" fill="#88DCFB" x="33" y="2.27373675e-13" width="1" height="1"></rect>
                    <rect id="矩形备份-34" fill="#88DCFB" x="33" y="1" width="1" height="1"></rect>
                    <rect id="矩形备份-35" fill="#88DCFB" x="33" y="2" width="1" height="1"></rect>
                    <rect id="矩形备份-36" fill="#88DCFB" x="33" y="3" width="1" height="1"></rect>
                    <rect id="矩形备份-37" fill="#88DCFB" x="33" y="4" width="1" height="1"></rect>
                    <rect id="矩形备份-38" fill="#000000" x="33" y="5" width="1" height="1"></rect>
                    <rect id="矩形备份-39" fill="#FCC911" x="33" y="6" width="1" height="1"></rect>
                    <rect id="矩形备份-40" fill="#FCC911" x="33" y="7" width="1" height="1"></rect>
                    <rect id="矩形备份-41" fill="#FCC911" x="33" y="8" width="1" height="1"></rect>
                    <rect id="矩形备份-42" fill="#000000" x="33" y="9" width="1" height="1"></rect>
                    <rect id="矩形备份-43" fill="#F36464" x="33" y="10" width="1" height="1"></rect>
                    <rect id="矩形备份-44" fill="#F36464" x="33" y="11" width="1" height="1"></rect>
                    <rect id="矩形备份-45" fill="#F36464" x="33" y="12" width="1" height="1"></rect>
                    <rect id="矩形备份-46" fill="#F36464" x="33" y="13" width="1" height="1"></rect>
                    <rect id="矩形备份-47" fill="#F36464" x="33" y="14" width="1" height="1"></rect>
                    <rect id="矩形备份-48" fill="#000000" x="33" y="15" width="1" height="1"></rect>
                    <rect id="矩形备份-49" fill="#9C74F7" x="33" y="16" width="1" height="1"></rect>
                    <rect id="矩形备份-50" fill="#9C74F7" x="33" y="17" width="1" height="1"></rect>
                    <rect id="矩形备份-51" fill="#000000" x="33" y="18" width="1" height="1"></rect>
                    <rect id="矩形备份-52" fill="#3EF0B5" x="33" y="19" width="1" height="1"></rect>
                    <rect id="矩形备份-53" fill="#000000" x="33" y="20" width="1" height="1"></rect>
                    <rect id="矩形备份-54" fill="#F36464" x="33" y="21" width="1" height="1"></rect>
                    <rect id="矩形备份-55" fill="#000000" x="33" y="22" width="1" height="1"></rect>
                    <rect id="矩形备份-56" fill="#3EA3F0" x="33" y="23" width="1" height="1"></rect>
                    <rect id="矩形备份-57" fill="#000000" x="33" y="24" width="1" height="1"></rect>
                    <rect id="矩形备份-58" fill="#FFFFFF" x="33" y="25" width="1" height="1"></rect>
                    <rect id="矩形备份-59" fill="#FFFFFF" x="33" y="26" width="1" height="1"></rect>
                    <rect id="矩形备份-60" fill="#FFFFFF" x="33" y="27" width="1" height="1"></rect>
                    <rect id="矩形备份-61" fill="#FFFFFF" x="33" y="28" width="1" height="1"></rect>
                    <rect id="矩形备份-62" fill="#FFFFFF" x="33" y="29" width="1" height="1"></rect>
                    <rect id="矩形备份-63" fill="#FFFFFF" x="33" y="30" width="1" height="1"></rect>
                    <rect id="矩形备份-64" fill="#000000" x="33" y="31" width="1" height="1"></rect>
                    <rect id="矩形备份-65" fill="#FCC911" x="33" y="32" width="1" height="1"></rect>
                    <rect id="矩形备份-66" fill="#FCC911" x="33" y="33" width="1" height="1"></rect>
                    <rect id="矩形备份-68" fill="#000000" x="31" y="33" width="1" height="1"></rect>
                    <rect id="矩形备份-67" fill="#FCC911" x="32" y="33" width="1" height="1"></rect>
                    <rect id="矩形备份-69" fill="#3EF0B5" x="30" y="33" width="1" height="1"></rect>
                    <rect id="矩形备份-71" fill="#3EF0B5" x="29" y="33" width="1" height="1"></rect>
                    <rect id="矩形备份-70" fill="#3EF0B5" x="28" y="33" width="1" height="1"></rect>
                    <rect id="矩形备份-73" fill="#000000" x="27" y="33" width="1" height="1"></rect>
                    <rect id="矩形备份-72" fill="#000000" x="26" y="33" width="1" height="1"></rect>
                    <rect id="矩形备份-75" fill="#000000" x="25" y="33" width="1" height="1"></rect>
                    <rect id="矩形备份-74" fill="#000000" x="24" y="33" width="1" height="1"></rect>
                    <rect id="矩形备份-77" fill="#000000" x="23" y="33" width="1" height="1"></rect>
                    <rect id="矩形备份-76" fill="#000000" x="22" y="33" width="1" height="1"></rect>
                    <rect id="矩形备份-79" fill="#F36464" x="21" y="33" width="1" height="1"></rect>
                    <rect id="矩形备份-78" fill="#F36464" x="20" y="33" width="1" height="1"></rect>
                    <rect id="矩形备份-81" fill="#F36464" x="19" y="33" width="1" height="1"></rect>
                    <rect id="矩形备份-80" fill="#F36464" x="18" y="33" width="1" height="1"></rect>
                    <rect id="矩形备份-83" fill="#F36464" x="17" y="33" width="1" height="1"></rect>
                    <rect id="矩形备份-82" fill="#F36464" x="16" y="33" width="1" height="1"></rect>
                    <rect id="矩形备份-85" fill="#F36464" x="15" y="33" width="1" height="1"></rect>
                    <rect id="矩形备份-84" fill="#F36464" x="14" y="33" width="1" height="1"></rect>
                    <rect id="矩形备份-87" fill="#F36464" x="13" y="33" width="1" height="1"></rect>
                    <rect id="矩形备份-86" fill="#F36464" x="12" y="33" width="1" height="1"></rect>
                    <rect id="矩形备份-89" fill="#000000" x="11" y="33" width="1" height="1"></rect>
                    <rect id="矩形备份-88" fill="#000000" x="10" y="33" width="1" height="1"></rect>
                    <rect id="矩形备份-91" fill="#000000" x="9" y="33" width="1" height="1"></rect>
                    <rect id="矩形备份-90" fill="#000000" x="8" y="33" width="1" height="1"></rect>
                    <rect id="矩形备份-93" fill="#000000" x="7" y="33" width="1" height="1"></rect>
                    <rect id="矩形备份-92" fill="#000000" x="6" y="33" width="1" height="1"></rect>
                    <rect id="矩形备份-95" fill="#3EF0B5" x="5" y="33" width="1" height="1"></rect>
                    <rect id="矩形备份-94" fill="#3EF0B5" x="4" y="33" width="1" height="1"></rect>
                    <rect id="矩形备份-97" fill="#3EF0B5" x="3" y="33" width="1" height="1"></rect>
                    <rect id="矩形备份-96" fill="#000000" x="2" y="33" width="1" height="1"></rect>
                    <rect id="矩形备份-99" fill="#88DCFB" x="1" y="33" width="1" height="1"></rect>
                    <rect id="矩形备份-98" fill="#88DCFB" x="0" y="33" width="1" height="1"></rect>
                    <rect id="矩形备份-101" fill="#000000" x="0" y="31" width="1" height="1"></rect>
                    <rect id="矩形备份-100" fill="#88DCFB" x="0" y="32" width="1" height="1"></rect>
                    <rect id="矩形备份-102" fill="#000000" x="0" y="30" width="1" height="1"></rect>
                    <rect id="矩形备份-104" fill="#FFFFFF" x="0" y="29" width="1" height="1"></rect>
                    <rect id="矩形备份-103" fill="#FFFFFF" x="0" y="28" width="1" height="1"></rect>
                    <rect id="矩形备份-106" fill="#FFFFFF" x="0" y="27" width="1" height="1"></rect>
                    <rect id="矩形备份-105" fill="#000000" x="0" y="26" width="1" height="1"></rect>
                    <rect id="矩形备份-108" fill="#000000" x="0" y="25" width="1" height="1"></rect>
                    <rect id="矩形备份-107" fill="#F36464" x="0" y="24" width="1" height="1"></rect>
                    <rect id="矩形备份-110" fill="#F36464" x="0" y="23" width="1" height="1"></rect>
                    <rect id="矩形备份-109" fill="#9C74F7" x="0" y="22" width="1" height="1"></rect>
                    <rect id="矩形备份-112" fill="#9C74F7" x="0" y="21" width="1" height="1"></rect>
                    <rect id="矩形备份-111" fill="#000000" x="0" y="20" width="1" height="1"></rect>
                    <rect id="矩形备份-114" fill="#000000" x="0" y="19" width="1" height="1"></rect>
                    <rect id="矩形备份-113" fill="#FFFFFF" x="0" y="18" width="1" height="1"></rect>
                    <rect id="矩形备份-116" fill="#000000" x="0" y="17" width="1" height="1"></rect>
                    <rect id="矩形备份-115" fill="#000000" x="0" y="16" width="1" height="1"></rect>
                    <rect id="矩形备份-118" fill="#000000" x="0" y="15" width="1" height="1"></rect>
                    <rect id="矩形备份-117" fill="#9C74F7" x="0" y="14" width="1" height="1"></rect>
                    <rect id="矩形备份-120" fill="#000000" x="0" y="13" width="1" height="1"></rect>
                    <rect id="矩形备份-119" fill="#6CC0DF" x="0" y="12" width="1" height="1"></rect>
                    <rect id="矩形备份-122" fill="#6CC0DF" x="0" y="11" width="1" height="1"></rect>
                    <rect id="矩形备份-121" fill="#000000" x="0" y="10" width="1" height="1"></rect>
                    <rect id="矩形备份-124" fill="#000000" x="0" y="9" width="1" height="1"></rect>
                    <rect id="矩形备份-123" fill="#000000" x="0" y="8" width="1" height="1"></rect>
                    <rect id="矩形备份-126" fill="#000000" x="0" y="7" width="1" height="1"></rect>
                    <rect id="矩形备份-125" fill="#000000" x="0" y="6" width="1" height="1"></rect>
                    <rect id="矩形备份-128" fill="#000000" x="0" y="5" width="1" height="1"></rect>
                    <rect id="矩形备份-127" fill="#000000" x="0" y="4" width="1" height="1"></rect>
                    <rect id="矩形备份-130" fill="#000000" x="0" y="3" width="1" height="1"></rect>
                    <rect id="矩形备份-129" fill="#000000" x="0" y="2" width="1" height="1"></rect>
                    <rect id="矩形备份-131" fill="#FFFFFF" x="0" y="1" width="1" height="1"></rect>
                    <rect id="矩形备份-194" fill="#000000" transform="translate(31.500000, 0.500000) rotate(-180.000000) translate(-31.500000, -0.500000) " x="31" y="0" width="1" height="1"></rect>
                </g>
            </g>
        </g>
    </g>
</svg>