<?xml version="1.0" encoding="UTF-8"?>
<svg width="34px" height="34px" viewBox="0 0 34 34" version="1.1" xmlns="http://www.w3.org/2000/svg" xmlns:xlink="http://www.w3.org/1999/xlink">
    <title>frame_9</title>
    <g id="页面-1" stroke="none" stroke-width="1" fill="none" fill-rule="evenodd">
        <g id="My-Fish" transform="translate(-162.000000, -168.000000)">
            <g id="Frames" transform="translate(6.000000, 129.000000)">
                <g id="9" transform="translate(156.000000, 39.000000)">
                    <rect id="矩形" fill="#000000" x="0" y="0" width="1" height="1"></rect>
                    <rect id="矩形备份-4" fill="#000000" x="1" y="0" width="1" height="1"></rect>
                    <rect id="矩形备份-5" fill="#FF96DE" x="2" y="0" width="1" height="1"></rect>
                    <rect id="矩形备份-15" fill="#FF96DE" x="5" y="0" width="1" height="1"></rect>
                    <rect id="矩形备份-11" fill="#FF96DE" x="2" y="1" width="1" height="1"></rect>
                    <rect id="矩形备份-69" fill="#FF96DE" x="4" y="1" width="1" height="1"></rect>
                    <rect id="矩形备份-7" fill="#FF96DE" x="1" y="1" width="1" height="1"></rect>
                    <rect id="矩形备份-232" fill="#FF96DE" x="1" y="2" width="1" height="1"></rect>
                    <rect id="矩形备份-6" fill="#FF96DE" x="3" y="0" width="1" height="1"></rect>
                    <rect id="矩形备份-16" fill="#FF96DE" x="6" y="0" width="1" height="1"></rect>
                    <rect id="矩形备份-18" fill="#FF96DE" x="8" y="0" width="1" height="1"></rect>
                    <rect id="矩形备份-28" fill="#FF96DE" x="7" y="0" width="1" height="1"></rect>
                    <rect id="矩形备份-17" fill="#FF96DE" x="9" y="0" width="1" height="1"></rect>
                    <rect id="矩形备份-24" fill="#FF96DE" x="11" y="0" width="1" height="1"></rect>
                    <rect id="矩形备份-32" fill="#FF96DE" x="10" y="0" width="1" height="1"></rect>
                    <rect id="矩形备份-20" fill="#FF96DE" x="12" y="0" width="1" height="1"></rect>
                    <rect id="矩形备份-33" fill="#FF96DE" x="13" y="0" width="1" height="1"></rect>
                    <rect id="矩形备份-34" fill="#FF96DE" x="16" y="0" width="1" height="1"></rect>
                    <rect id="矩形备份-26" fill="#FF96DE" x="14" y="0" width="1" height="1"></rect>
                    <rect id="矩形备份-36" fill="#FF96DE" x="17" y="0" width="1" height="1"></rect>
                    <rect id="矩形备份-25" fill="#FF96DE" x="15" y="0" width="1" height="1"></rect>
                    <rect id="矩形备份-40" fill="#FF96DE" x="18" y="0" width="1" height="1"></rect>
                    <rect id="矩形备份-44" fill="#FF96DE" x="19" y="0" width="1" height="1"></rect>
                    <rect id="矩形备份-42" fill="#FF96DE" x="20" y="0" width="1" height="1"></rect>
                    <rect id="矩形备份-41" fill="#FF96DE" x="21" y="0" width="1" height="1"></rect>
                    <rect id="矩形备份-50" fill="#FF96DE" x="22" y="0" width="1" height="1"></rect>
                    <rect id="矩形备份-49" fill="#FF96DE" x="23" y="0" width="1" height="1"></rect>
                    <rect id="矩形备份-48" fill="#FF96DE" x="24" y="0" width="1" height="1"></rect>
                    <rect id="矩形备份-57" fill="#FF96DE" x="25" y="0" width="1" height="1"></rect>
                    <rect id="矩形备份-56" fill="#FF96DE" x="26" y="0" width="1" height="1"></rect>
                    <rect id="矩形备份-52" fill="#FF96DE" x="27" y="0" width="1" height="1"></rect>
                    <rect id="矩形备份-64" fill="#FF96DE" x="28" y="0" width="1" height="1"></rect>
                    <rect id="矩形备份-60" fill="#FF96DE" x="29" y="0" width="1" height="1"></rect>
                    <rect id="矩形备份-58" fill="#2123E4" x="30" y="0" width="1" height="1"></rect>
                    <rect id="矩形备份-68" fill="#FF96DE" x="31" y="0" width="1" height="1"></rect>
                    <rect id="矩形备份-66" fill="#FF96DE" x="32" y="0" width="1" height="1"></rect>
                    <rect id="矩形备份-65" fill="#000000" x="33" y="0" width="1" height="1"></rect>
                    <rect id="矩形备份-14" fill="#2123E4" x="4" y="0" width="1" height="1"></rect>
                    <rect id="矩形备份-13" fill="#FF75D3" x="3" y="1" width="1" height="1"></rect>
                    <rect id="矩形备份-70" fill="#FF75D3" x="5" y="1" width="1" height="1"></rect>
                    <rect id="矩形备份-73" fill="#FF96DE" x="6" y="1" width="1" height="1"></rect>
                    <rect id="矩形备份-72" fill="#FF75D3" x="7" y="1" width="1" height="1"></rect>
                    <rect id="矩形备份-75" fill="#FF96DE" x="8" y="1" width="1" height="1"></rect>
                    <rect id="矩形备份-74" fill="#FF75D3" x="9" y="1" width="1" height="1"></rect>
                    <rect id="矩形备份-77" fill="#FF96DE" x="10" y="1" width="1" height="1"></rect>
                    <rect id="矩形备份-76" fill="#FF75D3" x="11" y="1" width="1" height="1"></rect>
                    <rect id="矩形备份-79" fill="#FF96DE" x="12" y="1" width="1" height="1"></rect>
                    <rect id="矩形备份-78" fill="#FF75D3" x="13" y="1" width="1" height="1"></rect>
                    <rect id="矩形备份-81" fill="#FF96DE" x="14" y="1" width="1" height="1"></rect>
                    <rect id="矩形备份-80" fill="#FF75D3" x="15" y="1" width="1" height="1"></rect>
                    <rect id="矩形备份-83" fill="#FF96DE" x="16" y="1" width="1" height="1"></rect>
                    <rect id="矩形备份-82" fill="#FF75D3" x="17" y="1" width="1" height="1"></rect>
                    <rect id="矩形备份-85" fill="#FF96DE" x="18" y="1" width="1" height="1"></rect>
                    <rect id="矩形备份-84" fill="#FF75D3" x="19" y="1" width="1" height="1"></rect>
                    <rect id="矩形备份-87" fill="#FF96DE" x="20" y="1" width="1" height="1"></rect>
                    <rect id="矩形备份-86" fill="#FF75D3" x="21" y="1" width="1" height="1"></rect>
                    <rect id="矩形备份-89" fill="#FF96DE" x="22" y="1" width="1" height="1"></rect>
                    <rect id="矩形备份-88" fill="#FF75D3" x="23" y="1" width="1" height="1"></rect>
                    <rect id="矩形备份-91" fill="#FF96DE" x="24" y="1" width="1" height="1"></rect>
                    <rect id="矩形备份-90" fill="#FF75D3" x="25" y="1" width="1" height="1"></rect>
                    <rect id="矩形备份-93" fill="#FF96DE" x="26" y="1" width="1" height="1"></rect>
                    <rect id="矩形备份-92" fill="#FF75D3" x="27" y="1" width="1" height="1"></rect>
                    <rect id="矩形备份-95" fill="#FF96DE" x="28" y="1" width="1" height="1"></rect>
                    <rect id="矩形备份-94" fill="#FF75D3" x="29" y="1" width="1" height="1"></rect>
                    <rect id="矩形备份-97" fill="#FF96DE" x="30" y="1" width="1" height="1"></rect>
                    <rect id="矩形备份-96" fill="#FF75D3" x="31" y="1" width="1" height="1"></rect>
                    <rect id="矩形备份-99" fill="#FF96DE" x="32" y="1" width="1" height="1"></rect>
                    <rect id="矩形备份-260" fill="#FF96DE" x="32" y="2" width="1" height="1"></rect>
                    <rect id="矩形备份-98" fill="#FF75D3" x="33" y="1" width="1" height="1"></rect>
                    <rect id="矩形备份-100" fill="#FF75D3" x="33" y="2" width="1" height="1"></rect>
                    <rect id="矩形备份-101" fill="#FF75D3" x="33" y="3" width="1" height="1"></rect>
                    <rect id="矩形备份-102" fill="#FF75D3" x="33" y="4" width="1" height="1"></rect>
                    <rect id="矩形备份-103" fill="#FF75D3" x="33" y="5" width="1" height="1"></rect>
                    <rect id="矩形备份-104" fill="#FF75D3" x="33" y="6" width="1" height="1"></rect>
                    <rect id="矩形备份-105" fill="#FF75D3" x="33" y="7" width="1" height="1"></rect>
                    <rect id="矩形备份-106" fill="#FF75D3" x="33" y="8" width="1" height="1"></rect>
                    <rect id="矩形备份-107" fill="#FF75D3" x="33" y="9" width="1" height="1"></rect>
                    <rect id="矩形备份-108" fill="#FF75D3" x="33" y="10" width="1" height="1"></rect>
                    <rect id="矩形备份-109" fill="#FF75D3" x="33" y="11" width="1" height="1"></rect>
                    <rect id="矩形备份-110" fill="#FF75D3" x="33" y="12" width="1" height="1"></rect>
                    <rect id="矩形备份-111" fill="#FF75D3" x="33" y="13" width="1" height="1"></rect>
                    <rect id="矩形备份-120" fill="#FF75D3" x="33" y="22" width="1" height="1"></rect>
                    <rect id="矩形备份-112" fill="#FF75D3" x="33" y="14" width="1" height="1"></rect>
                    <rect id="矩形备份-121" fill="#FF75D3" x="33" y="23" width="1" height="1"></rect>
                    <rect id="矩形备份-117" fill="#E041AD" x="33" y="19" width="1" height="1"></rect>
                    <rect id="矩形备份-113" fill="#FF75D3" x="33" y="15" width="1" height="1"></rect>
                    <rect id="矩形备份-122" fill="#FF75D3" x="33" y="24" width="1" height="1"></rect>
                    <rect id="矩形备份-118" fill="#E041AD" x="33" y="20" width="1" height="1"></rect>
                    <rect id="矩形备份-114" fill="#FF75D3" x="33" y="16" width="1" height="1"></rect>
                    <rect id="矩形备份-123" fill="#FF75D3" x="33" y="25" width="1" height="1"></rect>
                    <rect id="矩形备份-127" fill="#FF75D3" x="33" y="26" width="1" height="1"></rect>
                    <rect id="矩形备份-126" fill="#FF75D3" x="33" y="27" width="1" height="1"></rect>
                    <rect id="矩形备份-125" fill="#FF75D3" x="33" y="28" width="1" height="1"></rect>
                    <rect id="矩形备份-119" fill="#E041AD" x="33" y="21" width="1" height="1"></rect>
                    <rect id="矩形备份-115" fill="#2123E4" x="33" y="17" width="1" height="1"></rect>
                    <rect id="矩形备份-116" fill="#2123E4" x="33" y="18" width="1" height="1"></rect>
                    <rect id="矩形备份-242" fill="#2123E4" x="32" y="21" width="1" height="1"></rect>
                    <rect id="矩形备份-243" fill="#2123E4" x="32" y="19" width="1" height="1"></rect>
                    <rect id="矩形备份-8" fill="#FF75D3" x="0" y="4" width="1" height="1"></rect>
                    <rect id="矩形备份" fill="#FF75D3" x="0" y="2" width="1" height="1"></rect>
                    <rect id="矩形备份-9" fill="#2123E4" x="0" y="6" width="1" height="1"></rect>
                    <rect id="矩形备份-3" fill="#FF75D3" x="0" y="3" width="1" height="1"></rect>
                    <rect id="矩形备份-10" fill="#2123E4" x="0" y="7" width="1" height="1"></rect>
                    <rect id="矩形备份-2" fill="#000000" x="0" y="1" width="1" height="1"></rect>
                    <rect id="矩形备份-12" fill="#FF75D3" x="0" y="5" width="1" height="1"></rect>
                    <rect id="矩形备份-23" fill="#FF75D3" x="0" y="8" width="1" height="1"></rect>
                    <rect id="矩形备份-22" fill="#FF75D3" x="0" y="10" width="1" height="1"></rect>
                    <rect id="矩形备份-21" fill="#FF75D3" x="0" y="11" width="1" height="1"></rect>
                    <rect id="矩形备份-19" fill="#FF75D3" x="0" y="9" width="1" height="1"></rect>
                    <rect id="矩形备份-31" fill="#FF75D3" x="0" y="12" width="1" height="1"></rect>
                    <rect id="矩形备份-223" fill="#FF75D3" x="1" y="12" width="1" height="1"></rect>
                    <rect id="矩形备份-224" fill="#FF75D3" x="1" y="10" width="1" height="1"></rect>
                    <rect id="矩形备份-225" fill="#FF75D3" x="1" y="9" width="1" height="1"></rect>
                    <rect id="矩形备份-226" fill="#FF75D3" x="1" y="8" width="1" height="1"></rect>
                    <rect id="矩形备份-227" fill="#FF75D3" x="1" y="7" width="1" height="1"></rect>
                    <rect id="矩形备份-228" fill="#FF75D3" x="1" y="6" width="1" height="1"></rect>
                    <rect id="矩形备份-229" fill="#FF75D3" x="1" y="5" width="1" height="1"></rect>
                    <rect id="矩形备份-230" fill="#FF75D3" x="1" y="4" width="1" height="1"></rect>
                    <rect id="矩形备份-231" fill="#FF75D3" x="1" y="3" width="1" height="1"></rect>
                    <rect id="矩形备份-30" fill="#FF75D3" x="0" y="14" width="1" height="1"></rect>
                    <rect id="矩形备份-29" fill="#FF75D3" x="0" y="15" width="1" height="1"></rect>
                    <rect id="矩形备份-27" fill="#FF75D3" x="0" y="13" width="1" height="1"></rect>
                    <rect id="矩形备份-39" fill="#2123E4" x="0" y="16" width="1" height="1"></rect>
                    <rect id="矩形备份-38" fill="#FF75D3" x="0" y="18" width="1" height="1"></rect>
                    <rect id="矩形备份-37" fill="#FF75D3" x="0" y="19" width="1" height="1"></rect>
                    <rect id="矩形备份-35" fill="#2123E4" x="0" y="17" width="1" height="1"></rect>
                    <rect id="矩形备份-47" fill="#FF75D3" x="0" y="20" width="1" height="1"></rect>
                    <rect id="矩形备份-46" fill="#FF75D3" x="0" y="22" width="1" height="1"></rect>
                    <rect id="矩形备份-45" fill="#2123E4" x="0" y="23" width="1" height="1"></rect>
                    <rect id="矩形备份-43" fill="#2123E4" x="0" y="21" width="1" height="1"></rect>
                    <rect id="矩形备份-55" fill="#FF75D3" x="0" y="24" width="1" height="1"></rect>
                    <rect id="矩形备份-54" fill="#FF75D3" x="0" y="26" width="1" height="1"></rect>
                    <rect id="矩形备份-53" fill="#E041AD" x="0" y="27" width="1" height="1"></rect>
                    <rect id="矩形备份-51" fill="#FF75D3" x="0" y="25" width="1" height="1"></rect>
                    <rect id="矩形备份-63" fill="#FF75D3" x="0" y="28" width="1" height="1"></rect>
                    <rect id="矩形备份-62" fill="#E041AD" x="0" y="30" width="1" height="1"></rect>
                    <rect id="矩形备份-61" fill="#E041AD" x="0" y="31" width="1" height="1"></rect>
                    <rect id="矩形备份-59" fill="#E041AD" x="0" y="29" width="1" height="1"></rect>
                    <rect id="矩形备份-71" fill="#000000" x="0" y="32" width="1" height="1"></rect>
                    <rect id="矩形备份-67" fill="#000000" x="0" y="33" width="1" height="1"></rect>
                    <rect id="矩形备份-132" fill="#2123E4" x="1" y="33" width="1" height="1"></rect>
                    <rect id="矩形备份-133" fill="#E041AD" x="2" y="33" width="1" height="1"></rect>
                    <rect id="矩形备份-202" fill="#E041AD" x="1" y="32" width="1" height="1"></rect>
                    <rect id="矩形备份-203" fill="#2123E4" x="1" y="31" width="1" height="1"></rect>
                    <rect id="矩形备份-204" fill="#FF75D3" x="1" y="30" width="1" height="1"></rect>
                    <rect id="矩形备份-205" fill="#FF75D3" x="1" y="29" width="1" height="1"></rect>
                    <rect id="矩形备份-206" fill="#FF75D3" x="1" y="28" width="1" height="1"></rect>
                    <rect id="矩形备份-207" fill="#FF75D3" x="1" y="27" width="1" height="1"></rect>
                    <rect id="矩形备份-208" fill="#FF75D3" x="1" y="26" width="1" height="1"></rect>
                    <rect id="矩形备份-209" fill="#FF75D3" x="1" y="25" width="1" height="1"></rect>
                    <rect id="矩形备份-210" fill="#FF75D3" x="1" y="24" width="1" height="1"></rect>
                    <rect id="矩形备份-211" fill="#FF75D3" x="1" y="23" width="1" height="1"></rect>
                    <rect id="矩形备份-212" fill="#FF75D3" x="1" y="22" width="1" height="1"></rect>
                    <rect id="矩形备份-213" fill="#FF75D3" x="1" y="21" width="1" height="1"></rect>
                    <rect id="矩形备份-214" fill="#FF75D3" x="1" y="20" width="1" height="1"></rect>
                    <rect id="矩形备份-215" fill="#FF75D3" x="1" y="19" width="1" height="1"></rect>
                    <rect id="矩形备份-216" fill="#FF75D3" x="1" y="18" width="1" height="1"></rect>
                    <rect id="矩形备份-217" fill="#FF75D3" x="1" y="17" width="1" height="1"></rect>
                    <rect id="矩形备份-218" fill="#FF75D3" x="1" y="16" width="1" height="1"></rect>
                    <rect id="矩形备份-219" fill="#FF75D3" x="1" y="15" width="1" height="1"></rect>
                    <rect id="矩形备份-220" fill="#2123E4" x="1" y="13" width="1" height="1"></rect>
                    <rect id="矩形备份-222" fill="#2123E4" x="1" y="11" width="1" height="1"></rect>
                    <rect id="矩形备份-221" fill="#2123E4" x="1" y="14" width="1" height="1"></rect>
                    <rect id="矩形备份-134" fill="#2123E4" x="3" y="33" width="1" height="1"></rect>
                    <rect id="矩形备份-199" fill="#2123E4" x="3" y="32" width="1" height="1"></rect>
                    <rect id="矩形备份-200" fill="#2123E4" x="2" y="32" width="1" height="1"></rect>
                    <rect id="矩形备份-135" fill="#E041AD" x="4" y="33" width="1" height="1"></rect>
                    <rect id="矩形备份-137" fill="#E041AD" x="6" y="33" width="1" height="1"></rect>
                    <rect id="矩形备份-136" fill="#E041AD" x="5" y="33" width="1" height="1"></rect>
                    <rect id="矩形备份-138" fill="#E041AD" x="7" y="33" width="1" height="1"></rect>
                    <rect id="矩形备份-143" fill="#E041AD" x="12" y="33" width="1" height="1"></rect>
                    <rect id="矩形备份-140" fill="#E041AD" x="8" y="33" width="1" height="1"></rect>
                    <rect id="矩形备份-144" fill="#E041AD" x="13" y="33" width="1" height="1"></rect>
                    <rect id="矩形备份-139" fill="#E041AD" x="9" y="33" width="1" height="1"></rect>
                    <rect id="矩形备份-194" fill="#E041AD" x="9" y="32" width="1" height="1"></rect>
                    <rect id="矩形备份-195" fill="#E041AD" x="7" y="32" width="1" height="1"></rect>
                    <rect id="矩形备份-145" fill="#E041AD" x="14" y="33" width="1" height="1"></rect>
                    <rect id="矩形备份-142" fill="#E041AD" x="10" y="33" width="1" height="1"></rect>
                    <rect id="矩形备份-146" fill="#E041AD" x="15" y="33" width="1" height="1"></rect>
                    <rect id="矩形备份-150" fill="#E041AD" x="16" y="33" width="1" height="1"></rect>
                    <rect id="矩形备份-149" fill="#E041AD" x="17" y="33" width="1" height="1"></rect>
                    <rect id="矩形备份-148" fill="#E041AD" x="18" y="33" width="1" height="1"></rect>
                    <rect id="矩形备份-147" fill="#E041AD" x="19" y="33" width="1" height="1"></rect>
                    <rect id="矩形备份-154" fill="#E041AD" x="21" y="33" width="1" height="1"></rect>
                    <rect id="矩形备份-181" fill="#E041AD" x="21" y="32" width="1" height="1"></rect>
                    <rect id="矩形备份-153" fill="#E041AD" x="22" y="33" width="1" height="1"></rect>
                    <rect id="矩形备份-182" fill="#E041AD" x="22" y="32" width="1" height="1"></rect>
                    <rect id="矩形备份-152" fill="#E041AD" x="23" y="33" width="1" height="1"></rect>
                    <rect id="矩形备份-141" fill="#2123E4" x="11" y="33" width="1" height="1"></rect>
                    <rect id="矩形备份-192" fill="#2123E4" x="11" y="32" width="1" height="1"></rect>
                    <rect id="矩形备份-156" fill="#2123E4" x="24" y="33" width="1" height="1"></rect>
                    <rect id="矩形备份-180" fill="#2123E4" x="23" y="32" width="1" height="1"></rect>
                    <rect id="矩形备份-185" fill="#2123E4" x="18" y="32" width="1" height="1"></rect>
                    <rect id="矩形备份-186" fill="#2123E4" x="16" y="32" width="1" height="1"></rect>
                    <rect id="矩形备份-157" fill="#2123E4" x="25" y="33" width="1" height="1"></rect>
                    <rect id="矩形备份-158" fill="#2123E4" x="26" y="33" width="1" height="1"></rect>
                    <rect id="矩形备份-159" fill="#2123E4" x="27" y="33" width="1" height="1"></rect>
                    <rect id="矩形备份-160" fill="#2123E4" x="28" y="33" width="1" height="1"></rect>
                    <rect id="矩形备份-161" fill="#2123E4" x="29" y="33" width="1" height="1"></rect>
                    <rect id="矩形备份-162" fill="#2123E4" x="30" y="33" width="1" height="1"></rect>
                    <rect id="矩形备份-163" fill="#2123E4" x="31" y="33" width="1" height="1"></rect>
                    <rect id="矩形备份-155" fill="#2123E4" x="20" y="33" width="1" height="1"></rect>
                    <rect id="矩形备份-124" fill="#FF75D3" x="33" y="29" width="1" height="1"></rect>
                    <rect id="矩形备份-233" fill="#FF75D3" x="32" y="30" width="1" height="1"></rect>
                    <rect id="矩形备份-234" fill="#FF75D3" x="32" y="29" width="1" height="1"></rect>
                    <rect id="矩形备份-235" fill="#FF75D3" x="32" y="28" width="1" height="1"></rect>
                    <rect id="矩形备份-236" fill="#FF75D3" x="32" y="27" width="1" height="1"></rect>
                    <rect id="矩形备份-237" fill="#FF75D3" x="32" y="26" width="1" height="1"></rect>
                    <rect id="矩形备份-238" fill="#FF75D3" x="32" y="25" width="1" height="1"></rect>
                    <rect id="矩形备份-239" fill="#FF75D3" x="32" y="24" width="1" height="1"></rect>
                    <rect id="矩形备份-240" fill="#FF75D3" x="32" y="23" width="1" height="1"></rect>
                    <rect id="矩形备份-241" fill="#FF75D3" x="32" y="22" width="1" height="1"></rect>
                    <rect id="矩形备份-244" fill="#FF75D3" x="32" y="20" width="1" height="1"></rect>
                    <rect id="矩形备份-246" fill="#2123E4" x="32" y="17" width="1" height="1"></rect>
                    <rect id="矩形备份-245" fill="#FF75D3" x="32" y="18" width="1" height="1"></rect>
                    <rect id="矩形备份-248" fill="#FF75D3" x="32" y="15" width="1" height="1"></rect>
                    <rect id="矩形备份-247" fill="#FF75D3" x="32" y="16" width="1" height="1"></rect>
                    <rect id="矩形备份-249" fill="#FF75D3" x="32" y="14" width="1" height="1"></rect>
                    <rect id="矩形备份-250" fill="#FF75D3" x="32" y="13" width="1" height="1"></rect>
                    <rect id="矩形备份-251" fill="#FF75D3" x="32" y="12" width="1" height="1"></rect>
                    <rect id="矩形备份-252" fill="#FF75D3" x="32" y="11" width="1" height="1"></rect>
                    <rect id="矩形备份-253" fill="#FF75D3" x="32" y="10" width="1" height="1"></rect>
                    <rect id="矩形备份-254" fill="#FF75D3" x="32" y="9" width="1" height="1"></rect>
                    <rect id="矩形备份-255" fill="#FF75D3" x="32" y="8" width="1" height="1"></rect>
                    <rect id="矩形备份-256" fill="#FF75D3" x="32" y="7" width="1" height="1"></rect>
                    <rect id="矩形备份-257" fill="#FF75D3" x="32" y="6" width="1" height="1"></rect>
                    <rect id="矩形备份-259" fill="#FF75D3" x="32" y="4" width="1" height="1"></rect>
                    <rect id="矩形备份-261" fill="#FF75D3" x="32" y="3" width="1" height="1"></rect>
                    <rect id="矩形备份-258" fill="#2123E4" x="32" y="5" width="1" height="1"></rect>
                    <rect id="矩形备份-151" fill="#E041AD" x="32" y="33" width="1" height="1"></rect>
                    <rect id="矩形备份-164" fill="#FF75D3" x="32" y="32" width="1" height="1"></rect>
                    <rect id="矩形备份-166" fill="#E041AD" x="31" y="32" width="1" height="1"></rect>
                    <rect id="矩形备份-168" fill="#E041AD" x="30" y="32" width="1" height="1"></rect>
                    <rect id="矩形备份-167" fill="#FF75D3" x="30" y="32" width="1" height="1"></rect>
                    <rect id="矩形备份-169" fill="#FF75D3" x="29" y="32" width="1" height="1"></rect>
                    <rect id="矩形备份-171" fill="#E041AD" x="29" y="32" width="1" height="1"></rect>
                    <rect id="矩形备份-170" fill="#FF75D3" x="28" y="32" width="1" height="1"></rect>
                    <rect id="矩形备份-173" fill="#E041AD" x="28" y="32" width="1" height="1"></rect>
                    <rect id="矩形备份-172" fill="#FF75D3" x="27" y="32" width="1" height="1"></rect>
                    <rect id="矩形备份-175" fill="#E041AD" x="27" y="32" width="1" height="1"></rect>
                    <rect id="矩形备份-174" fill="#FF75D3" x="26" y="32" width="1" height="1"></rect>
                    <rect id="矩形备份-177" fill="#E041AD" x="26" y="32" width="1" height="1"></rect>
                    <rect id="矩形备份-176" fill="#FF75D3" x="25" y="32" width="1" height="1"></rect>
                    <rect id="矩形备份-179" fill="#E041AD" x="25" y="32" width="1" height="1"></rect>
                    <rect id="矩形备份-184" fill="#E041AD" x="19" y="32" width="1" height="1"></rect>
                    <rect id="矩形备份-187" fill="#E041AD" x="17" y="32" width="1" height="1"></rect>
                    <rect id="矩形备份-189" fill="#2123E4" x="14" y="32" width="1" height="1"></rect>
                    <rect id="矩形备份-188" fill="#E041AD" x="15" y="32" width="1" height="1"></rect>
                    <rect id="矩形备份-191" fill="#FF75D3" x="12" y="32" width="1" height="1"></rect>
                    <rect id="矩形备份-193" fill="#FF75D3" x="10" y="32" width="1" height="1"></rect>
                    <rect id="矩形备份-196" fill="#FF75D3" x="8" y="32" width="1" height="1"></rect>
                    <rect id="矩形备份-198" fill="#E041AD" x="5" y="32" width="1" height="1"></rect>
                    <rect id="矩形备份-197" fill="#FF75D3" x="6" y="32" width="1" height="1"></rect>
                    <rect id="矩形备份-201" fill="#FF75D3" x="4" y="32" width="1" height="1"></rect>
                    <rect id="矩形备份-190" fill="#E041AD" x="13" y="32" width="1" height="1"></rect>
                    <rect id="矩形备份-178" fill="#FF75D3" x="24" y="32" width="1" height="1"></rect>
                    <rect id="矩形备份-183" fill="#FF75D3" x="20" y="32" width="1" height="1"></rect>
                    <rect id="矩形备份-165" fill="#E041AD" x="32" y="31" width="1" height="1"></rect>
                    <rect id="矩形备份-128" fill="#E041AD" x="33" y="30" width="1" height="1"></rect>
                    <rect id="矩形备份-129" fill="#E041AD" x="33" y="31" width="1" height="1"></rect>
                    <rect id="矩形备份-130" fill="#2123E4" x="33" y="32" width="1" height="1"></rect>
                    <rect id="矩形备份-131" fill="#000000" x="33" y="33" width="1" height="1"></rect>
                </g>
            </g>
        </g>
    </g>
</svg>