<?xml version="1.0" encoding="UTF-8"?>
<svg width="34px" height="34px" viewBox="0 0 34 34" version="1.1" xmlns="http://www.w3.org/2000/svg" xmlns:xlink="http://www.w3.org/1999/xlink">
    <title>frame_4</title>
    <g id="页面-1" stroke="none" stroke-width="1" fill="none" fill-rule="evenodd">
        <g id="My-Fish" transform="translate(-162.000000, -129.000000)">
            <g id="Frames" transform="translate(6.000000, 129.000000)">
                <g id="4" transform="translate(156.000000, 0.000000)">
                    <rect id="矩形" fill="#000000" x="1" y="0" width="1" height="1"></rect>
                    <rect id="矩形备份-35" fill="#000000" x="5" y="0" width="1" height="1"></rect>
                    <rect id="矩形备份" fill="#000000" x="2" y="1" width="1" height="1"></rect>
                    <rect id="矩形备份-36" fill="#000000" x="6" y="1" width="1" height="1"></rect>
                    <rect id="矩形备份-33" fill="#000000" x="3" y="0" width="1" height="1"></rect>
                    <rect id="矩形备份-37" fill="#000000" x="7" y="0" width="1" height="1"></rect>
                    <rect id="矩形备份-34" fill="#000000" x="4" y="1" width="1" height="1"></rect>
                    <rect id="矩形备份-38" fill="#000000" x="8" y="1" width="1" height="1"></rect>
                    <rect id="矩形备份-42" fill="#000000" x="9" y="0" width="1" height="1"></rect>
                    <rect id="矩形备份-41" fill="#000000" x="10" y="1" width="1" height="1"></rect>
                    <rect id="矩形备份-40" fill="#000000" x="11" y="0" width="1" height="1"></rect>
                    <rect id="矩形备份-39" fill="#000000" x="12" y="1" width="1" height="1"></rect>
                    <rect id="矩形备份-46" fill="#000000" x="13" y="0" width="1" height="1"></rect>
                    <rect id="矩形备份-45" fill="#000000" x="14" y="1" width="1" height="1"></rect>
                    <rect id="矩形备份-44" fill="#000000" x="15" y="0" width="1" height="1"></rect>
                    <rect id="矩形备份-43" fill="#000000" x="16" y="1" width="1" height="1"></rect>
                    <rect id="矩形备份-50" fill="#000000" x="17" y="0" width="1" height="1"></rect>
                    <rect id="矩形备份-49" fill="#000000" x="18" y="1" width="1" height="1"></rect>
                    <rect id="矩形备份-48" fill="#000000" x="19" y="0" width="1" height="1"></rect>
                    <rect id="矩形备份-47" fill="#000000" x="20" y="1" width="1" height="1"></rect>
                    <rect id="矩形备份-54" fill="#000000" x="21" y="0" width="1" height="1"></rect>
                    <rect id="矩形备份-53" fill="#000000" x="22" y="1" width="1" height="1"></rect>
                    <rect id="矩形备份-52" fill="#000000" x="23" y="0" width="1" height="1"></rect>
                    <rect id="矩形备份-51" fill="#000000" x="24" y="1" width="1" height="1"></rect>
                    <rect id="矩形备份-58" fill="#000000" x="25" y="0" width="1" height="1"></rect>
                    <rect id="矩形备份-57" fill="#000000" x="26" y="1" width="1" height="1"></rect>
                    <rect id="矩形备份-56" fill="#000000" x="27" y="0" width="1" height="1"></rect>
                    <rect id="矩形备份-55" fill="#000000" x="28" y="1" width="1" height="1"></rect>
                    <rect id="矩形备份-62" fill="#000000" x="29" y="0" width="1" height="1"></rect>
                    <rect id="矩形备份-61" fill="#000000" x="30" y="1" width="1" height="1"></rect>
                    <rect id="矩形备份-59" fill="#000000" x="32" y="3" width="1" height="1"></rect>
                    <rect id="矩形备份-93" fill="#000000" x="32" y="1" width="1" height="1"></rect>
                    <rect id="矩形备份-126" fill="#000000" x="31" y="0" width="1" height="1"></rect>
                    <rect id="矩形备份-94" fill="#000000" x="33" y="0" width="1" height="1"></rect>
                    <rect id="矩形备份-64" fill="#000000" x="32" y="5" width="1" height="1"></rect>
                    <rect id="矩形备份-63" fill="#000000" x="33" y="2" width="1" height="1"></rect>
                    <rect id="矩形备份-65" fill="#000000" x="33" y="4" width="1" height="1"></rect>
                    <rect id="矩形备份-67" fill="#000000" x="32" y="7" width="1" height="1"></rect>
                    <rect id="矩形备份-66" fill="#000000" x="33" y="6" width="1" height="1"></rect>
                    <rect id="矩形备份-69" fill="#000000" x="32" y="9" width="1" height="1"></rect>
                    <rect id="矩形备份-68" fill="#000000" x="33" y="8" width="1" height="1"></rect>
                    <rect id="矩形备份-71" fill="#000000" x="32" y="11" width="1" height="1"></rect>
                    <rect id="矩形备份-70" fill="#000000" x="33" y="10" width="1" height="1"></rect>
                    <rect id="矩形备份-73" fill="#000000" x="32" y="13" width="1" height="1"></rect>
                    <rect id="矩形备份-72" fill="#000000" x="33" y="12" width="1" height="1"></rect>
                    <rect id="矩形备份-75" fill="#000000" x="32" y="15" width="1" height="1"></rect>
                    <rect id="矩形备份-74" fill="#000000" x="33" y="14" width="1" height="1"></rect>
                    <rect id="矩形备份-77" fill="#000000" x="32" y="17" width="1" height="1"></rect>
                    <rect id="矩形备份-76" fill="#000000" x="33" y="16" width="1" height="1"></rect>
                    <rect id="矩形备份-79" fill="#000000" x="32" y="19" width="1" height="1"></rect>
                    <rect id="矩形备份-78" fill="#000000" x="33" y="18" width="1" height="1"></rect>
                    <rect id="矩形备份-81" fill="#000000" x="32" y="21" width="1" height="1"></rect>
                    <rect id="矩形备份-80" fill="#000000" x="33" y="20" width="1" height="1"></rect>
                    <rect id="矩形备份-83" fill="#000000" x="32" y="23" width="1" height="1"></rect>
                    <rect id="矩形备份-82" fill="#000000" x="33" y="22" width="1" height="1"></rect>
                    <rect id="矩形备份-85" fill="#000000" x="32" y="25" width="1" height="1"></rect>
                    <rect id="矩形备份-84" fill="#000000" x="33" y="24" width="1" height="1"></rect>
                    <rect id="矩形备份-87" fill="#000000" x="32" y="27" width="1" height="1"></rect>
                    <rect id="矩形备份-86" fill="#000000" x="33" y="26" width="1" height="1"></rect>
                    <rect id="矩形备份-89" fill="#000000" x="32" y="29" width="1" height="1"></rect>
                    <rect id="矩形备份-88" fill="#000000" x="33" y="28" width="1" height="1"></rect>
                    <rect id="矩形备份-91" fill="#000000" x="32" y="31" width="1" height="1"></rect>
                    <rect id="矩形备份-90" fill="#000000" x="33" y="30" width="1" height="1"></rect>
                    <rect id="矩形备份-125" fill="#000000" x="32" y="33" width="1" height="1"></rect>
                    <rect id="矩形备份-124" fill="#000000" x="31" y="32" width="1" height="1"></rect>
                    <rect id="矩形备份-96" fill="#000000" x="27" y="32" width="1" height="1"></rect>
                    <rect id="矩形备份-100" fill="#000000" x="23" y="32" width="1" height="1"></rect>
                    <rect id="矩形备份-95" fill="#000000" x="30" y="33" width="1" height="1"></rect>
                    <rect id="矩形备份-99" fill="#000000" x="29" y="32" width="1" height="1"></rect>
                    <rect id="矩形备份-101" fill="#000000" x="25" y="32" width="1" height="1"></rect>
                    <rect id="矩形备份-97" fill="#000000" x="26" y="33" width="1" height="1"></rect>
                    <rect id="矩形备份-102" fill="#000000" x="22" y="33" width="1" height="1"></rect>
                    <rect id="矩形备份-92" fill="#000000" x="33" y="32" width="1" height="1"></rect>
                    <rect id="矩形备份-98" fill="#000000" x="28" y="33" width="1" height="1"></rect>
                    <rect id="矩形备份-103" fill="#000000" x="24" y="33" width="1" height="1"></rect>
                    <rect id="矩形备份-107" fill="#000000" x="19" y="32" width="1" height="1"></rect>
                    <rect id="矩形备份-106" fill="#000000" x="21" y="32" width="1" height="1"></rect>
                    <rect id="矩形备份-105" fill="#000000" x="18" y="33" width="1" height="1"></rect>
                    <rect id="矩形备份-104" fill="#000000" x="20" y="33" width="1" height="1"></rect>
                    <rect id="矩形备份-111" fill="#000000" x="15" y="32" width="1" height="1"></rect>
                    <rect id="矩形备份-110" fill="#000000" x="17" y="32" width="1" height="1"></rect>
                    <rect id="矩形备份-109" fill="#000000" x="14" y="33" width="1" height="1"></rect>
                    <rect id="矩形备份-108" fill="#000000" x="16" y="33" width="1" height="1"></rect>
                    <rect id="矩形备份-115" fill="#000000" x="11" y="32" width="1" height="1"></rect>
                    <rect id="矩形备份-114" fill="#000000" x="13" y="32" width="1" height="1"></rect>
                    <rect id="矩形备份-113" fill="#000000" x="10" y="33" width="1" height="1"></rect>
                    <rect id="矩形备份-112" fill="#000000" x="12" y="33" width="1" height="1"></rect>
                    <rect id="矩形备份-119" fill="#000000" x="7" y="32" width="1" height="1"></rect>
                    <rect id="矩形备份-118" fill="#000000" x="9" y="32" width="1" height="1"></rect>
                    <rect id="矩形备份-117" fill="#000000" x="6" y="33" width="1" height="1"></rect>
                    <rect id="矩形备份-116" fill="#000000" x="8" y="33" width="1" height="1"></rect>
                    <rect id="矩形备份-123" fill="#000000" x="3" y="32" width="1" height="1"></rect>
                    <rect id="矩形备份-122" fill="#000000" x="5" y="32" width="1" height="1"></rect>
                    <rect id="矩形备份-121" fill="#000000" x="2" y="33" width="1" height="1"></rect>
                    <rect id="矩形备份-120" fill="#000000" x="4" y="33" width="1" height="1"></rect>
                    <rect id="矩形备份-60" fill="#000000" x="0" y="1" width="1" height="1"></rect>
                    <rect id="矩形备份-129" fill="#FFFFFF" x="0" y="0" width="1" height="1"></rect>
                    <rect id="矩形备份-130" fill="#FFFFFF" x="1" y="1" width="1" height="1"></rect>
                    <rect id="矩形备份-132" fill="#FFFFFF" x="1" y="3" width="1" height="1"></rect>
                    <rect id="矩形备份-131" fill="#000000" x="1" y="2" width="1" height="1"></rect>
                    <rect id="矩形备份-4" fill="#000000" x="0" y="3" width="1" height="1"></rect>
                    <rect id="矩形备份-3" fill="#FFFFFF" x="0" y="2" width="1" height="1"></rect>
                    <rect id="矩形备份-133" fill="#FFFFFF" x="0" y="4" width="1" height="1"></rect>
                    <rect id="矩形备份-135" fill="#FFFFFF" x="1" y="5" width="1" height="1"></rect>
                    <rect id="矩形备份-134" fill="#FFFFFF" x="0" y="6" width="1" height="1"></rect>
                    <rect id="矩形备份-137" fill="#FFFFFF" x="1" y="7" width="1" height="1"></rect>
                    <rect id="矩形备份-136" fill="#FFFFFF" x="0" y="8" width="1" height="1"></rect>
                    <rect id="矩形备份-139" fill="#FFFFFF" x="1" y="9" width="1" height="1"></rect>
                    <rect id="矩形备份-138" fill="#FFFFFF" x="0" y="10" width="1" height="1"></rect>
                    <rect id="矩形备份-141" fill="#FFFFFF" x="1" y="11" width="1" height="1"></rect>
                    <rect id="矩形备份-140" fill="#FFFFFF" x="0" y="12" width="1" height="1"></rect>
                    <rect id="矩形备份-143" fill="#FFFFFF" x="1" y="13" width="1" height="1"></rect>
                    <rect id="矩形备份-142" fill="#FFFFFF" x="0" y="14" width="1" height="1"></rect>
                    <rect id="矩形备份-145" fill="#FFFFFF" x="1" y="15" width="1" height="1"></rect>
                    <rect id="矩形备份-144" fill="#FFFFFF" x="0" y="16" width="1" height="1"></rect>
                    <rect id="矩形备份-147" fill="#FFFFFF" x="1" y="17" width="1" height="1"></rect>
                    <rect id="矩形备份-146" fill="#FFFFFF" x="0" y="18" width="1" height="1"></rect>
                    <rect id="矩形备份-149" fill="#FFFFFF" x="1" y="19" width="1" height="1"></rect>
                    <rect id="矩形备份-148" fill="#FFFFFF" x="0" y="20" width="1" height="1"></rect>
                    <rect id="矩形备份-151" fill="#FFFFFF" x="1" y="21" width="1" height="1"></rect>
                    <rect id="矩形备份-150" fill="#FFFFFF" x="0" y="22" width="1" height="1"></rect>
                    <rect id="矩形备份-153" fill="#FFFFFF" x="1" y="23" width="1" height="1"></rect>
                    <rect id="矩形备份-152" fill="#FFFFFF" x="0" y="24" width="1" height="1"></rect>
                    <rect id="矩形备份-155" fill="#FFFFFF" x="1" y="25" width="1" height="1"></rect>
                    <rect id="矩形备份-154" fill="#FFFFFF" x="0" y="26" width="1" height="1"></rect>
                    <rect id="矩形备份-157" fill="#FFFFFF" x="1" y="27" width="1" height="1"></rect>
                    <rect id="矩形备份-156" fill="#FFFFFF" x="0" y="28" width="1" height="1"></rect>
                    <rect id="矩形备份-159" fill="#FFFFFF" x="1" y="29" width="1" height="1"></rect>
                    <rect id="矩形备份-158" fill="#FFFFFF" x="0" y="30" width="1" height="1"></rect>
                    <rect id="矩形备份-161" fill="#FFFFFF" x="1" y="31" width="1" height="1"></rect>
                    <rect id="矩形备份-162" fill="#FFFFFF" x="1" y="33" width="1" height="1"></rect>
                    <rect id="矩形备份-164" fill="#FFFFFF" x="3" y="33" width="1" height="1"></rect>
                    <rect id="矩形备份-163" fill="#FFFFFF" x="2" y="32" width="1" height="1"></rect>
                    <rect id="矩形备份-165" fill="#FFFFFF" x="4" y="32" width="1" height="1"></rect>
                    <rect id="矩形备份-167" fill="#FFFFFF" x="5" y="33" width="1" height="1"></rect>
                    <rect id="矩形备份-166" fill="#FFFFFF" x="6" y="32" width="1" height="1"></rect>
                    <rect id="矩形备份-169" fill="#FFFFFF" x="7" y="33" width="1" height="1"></rect>
                    <rect id="矩形备份-168" fill="#FFFFFF" x="8" y="32" width="1" height="1"></rect>
                    <rect id="矩形备份-171" fill="#FFFFFF" x="9" y="33" width="1" height="1"></rect>
                    <rect id="矩形备份-170" fill="#FFFFFF" x="10" y="32" width="1" height="1"></rect>
                    <rect id="矩形备份-173" fill="#FFFFFF" x="11" y="33" width="1" height="1"></rect>
                    <rect id="矩形备份-172" fill="#FFFFFF" x="12" y="32" width="1" height="1"></rect>
                    <rect id="矩形备份-175" fill="#FFFFFF" x="13" y="33" width="1" height="1"></rect>
                    <rect id="矩形备份-174" fill="#FFFFFF" x="14" y="32" width="1" height="1"></rect>
                    <rect id="矩形备份-177" fill="#FFFFFF" x="15" y="33" width="1" height="1"></rect>
                    <rect id="矩形备份-176" fill="#FFFFFF" x="16" y="32" width="1" height="1"></rect>
                    <rect id="矩形备份-179" fill="#FFFFFF" x="17" y="33" width="1" height="1"></rect>
                    <rect id="矩形备份-178" fill="#FFFFFF" x="18" y="32" width="1" height="1"></rect>
                    <rect id="矩形备份-181" fill="#FFFFFF" x="19" y="33" width="1" height="1"></rect>
                    <rect id="矩形备份-180" fill="#FFFFFF" x="20" y="32" width="1" height="1"></rect>
                    <rect id="矩形备份-183" fill="#FFFFFF" x="21" y="33" width="1" height="1"></rect>
                    <rect id="矩形备份-182" fill="#FFFFFF" x="22" y="32" width="1" height="1"></rect>
                    <rect id="矩形备份-185" fill="#FFFFFF" x="23" y="33" width="1" height="1"></rect>
                    <rect id="矩形备份-184" fill="#FFFFFF" x="24" y="32" width="1" height="1"></rect>
                    <rect id="矩形备份-187" fill="#FFFFFF" x="25" y="33" width="1" height="1"></rect>
                    <rect id="矩形备份-186" fill="#FFFFFF" x="26" y="32" width="1" height="1"></rect>
                    <rect id="矩形备份-189" fill="#FFFFFF" x="27" y="33" width="1" height="1"></rect>
                    <rect id="矩形备份-188" fill="#FFFFFF" x="28" y="32" width="1" height="1"></rect>
                    <rect id="矩形备份-191" fill="#FFFFFF" x="29" y="33" width="1" height="1"></rect>
                    <rect id="矩形备份-190" fill="#FFFFFF" x="30" y="32" width="1" height="1"></rect>
                    <rect id="矩形备份-193" fill="#FFFFFF" x="31" y="33" width="1" height="1"></rect>
                    <rect id="矩形备份-192" fill="#FFFFFF" x="32" y="32" width="1" height="1"></rect>
                    <rect id="矩形备份-196" fill="#FFFFFF" x="32" y="30" width="1" height="1"></rect>
                    <rect id="矩形备份-195" fill="#FFFFFF" x="33" y="31" width="1" height="1"></rect>
                    <rect id="矩形备份-197" fill="#FFFFFF" x="33" y="29" width="1" height="1"></rect>
                    <rect id="矩形备份-199" fill="#FFFFFF" x="32" y="28" width="1" height="1"></rect>
                    <rect id="矩形备份-198" fill="#FFFFFF" x="33" y="27" width="1" height="1"></rect>
                    <rect id="矩形备份-201" fill="#FFFFFF" x="32" y="26" width="1" height="1"></rect>
                    <rect id="矩形备份-200" fill="#FFFFFF" x="33" y="25" width="1" height="1"></rect>
                    <rect id="矩形备份-203" fill="#FFFFFF" x="32" y="24" width="1" height="1"></rect>
                    <rect id="矩形备份-202" fill="#FFFFFF" x="33" y="23" width="1" height="1"></rect>
                    <rect id="矩形备份-205" fill="#FFFFFF" x="32" y="22" width="1" height="1"></rect>
                    <rect id="矩形备份-204" fill="#FFFFFF" x="33" y="21" width="1" height="1"></rect>
                    <rect id="矩形备份-207" fill="#FFFFFF" x="32" y="20" width="1" height="1"></rect>
                    <rect id="矩形备份-206" fill="#FFFFFF" x="33" y="19" width="1" height="1"></rect>
                    <rect id="矩形备份-209" fill="#FFFFFF" x="32" y="18" width="1" height="1"></rect>
                    <rect id="矩形备份-208" fill="#FFFFFF" x="33" y="17" width="1" height="1"></rect>
                    <rect id="矩形备份-211" fill="#FFFFFF" x="32" y="16" width="1" height="1"></rect>
                    <rect id="矩形备份-210" fill="#FFFFFF" x="33" y="15" width="1" height="1"></rect>
                    <rect id="矩形备份-213" fill="#FFFFFF" x="32" y="14" width="1" height="1"></rect>
                    <rect id="矩形备份-212" fill="#FFFFFF" x="33" y="13" width="1" height="1"></rect>
                    <rect id="矩形备份-215" fill="#FFFFFF" x="32" y="12" width="1" height="1"></rect>
                    <rect id="矩形备份-214" fill="#FFFFFF" x="33" y="11" width="1" height="1"></rect>
                    <rect id="矩形备份-217" fill="#FFFFFF" x="32" y="10" width="1" height="1"></rect>
                    <rect id="矩形备份-216" fill="#FFFFFF" x="33" y="9" width="1" height="1"></rect>
                    <rect id="矩形备份-219" fill="#FFFFFF" x="32" y="8" width="1" height="1"></rect>
                    <rect id="矩形备份-218" fill="#FFFFFF" x="33" y="7" width="1" height="1"></rect>
                    <rect id="矩形备份-221" fill="#FFFFFF" x="32" y="6" width="1" height="1"></rect>
                    <rect id="矩形备份-220" fill="#FFFFFF" x="33" y="5" width="1" height="1"></rect>
                    <rect id="矩形备份-223" fill="#FFFFFF" x="32" y="4" width="1" height="1"></rect>
                    <rect id="矩形备份-222" fill="#FFFFFF" x="33" y="3" width="1" height="1"></rect>
                    <rect id="矩形备份-225" fill="#FFFFFF" x="32" y="2" width="1" height="1"></rect>
                    <rect id="矩形备份-224" fill="#FFFFFF" x="33" y="1" width="1" height="1"></rect>
                    <rect id="矩形备份-226" fill="#FFFFFF" x="32" y="0" width="1" height="1"></rect>
                    <rect id="矩形备份-228" fill="#FFFFFF" x="30" y="0" width="1" height="1"></rect>
                    <rect id="矩形备份-227" fill="#FFFFFF" x="31" y="1" width="1" height="1"></rect>
                    <rect id="矩形备份-229" fill="#FFFFFF" x="29" y="1" width="1" height="1"></rect>
                    <rect id="矩形备份-231" fill="#FFFFFF" x="28" y="0" width="1" height="1"></rect>
                    <rect id="矩形备份-230" fill="#FFFFFF" x="27" y="1" width="1" height="1"></rect>
                    <rect id="矩形备份-233" fill="#FFFFFF" x="26" y="0" width="1" height="1"></rect>
                    <rect id="矩形备份-232" fill="#FFFFFF" x="25" y="1" width="1" height="1"></rect>
                    <rect id="矩形备份-235" fill="#FFFFFF" x="24" y="0" width="1" height="1"></rect>
                    <rect id="矩形备份-234" fill="#FFFFFF" x="23" y="1" width="1" height="1"></rect>
                    <rect id="矩形备份-237" fill="#FFFFFF" x="22" y="0" width="1" height="1"></rect>
                    <rect id="矩形备份-236" fill="#FFFFFF" x="21" y="1" width="1" height="1"></rect>
                    <rect id="矩形备份-239" fill="#FFFFFF" x="20" y="0" width="1" height="1"></rect>
                    <rect id="矩形备份-238" fill="#FFFFFF" x="19" y="1" width="1" height="1"></rect>
                    <rect id="矩形备份-241" fill="#FFFFFF" x="18" y="0" width="1" height="1"></rect>
                    <rect id="矩形备份-240" fill="#FFFFFF" x="17" y="1" width="1" height="1"></rect>
                    <rect id="矩形备份-243" fill="#FFFFFF" x="16" y="0" width="1" height="1"></rect>
                    <rect id="矩形备份-242" fill="#FFFFFF" x="15" y="1" width="1" height="1"></rect>
                    <rect id="矩形备份-245" fill="#FFFFFF" x="14" y="0" width="1" height="1"></rect>
                    <rect id="矩形备份-244" fill="#FFFFFF" x="13" y="1" width="1" height="1"></rect>
                    <rect id="矩形备份-247" fill="#FFFFFF" x="12" y="0" width="1" height="1"></rect>
                    <rect id="矩形备份-246" fill="#FFFFFF" x="11" y="1" width="1" height="1"></rect>
                    <rect id="矩形备份-249" fill="#FFFFFF" x="10" y="0" width="1" height="1"></rect>
                    <rect id="矩形备份-248" fill="#FFFFFF" x="9" y="1" width="1" height="1"></rect>
                    <rect id="矩形备份-251" fill="#FFFFFF" x="8" y="0" width="1" height="1"></rect>
                    <rect id="矩形备份-250" fill="#FFFFFF" x="7" y="1" width="1" height="1"></rect>
                    <rect id="矩形备份-253" fill="#FFFFFF" x="6" y="0" width="1" height="1"></rect>
                    <rect id="矩形备份-252" fill="#FFFFFF" x="5" y="1" width="1" height="1"></rect>
                    <rect id="矩形备份-255" fill="#FFFFFF" x="4" y="0" width="1" height="1"></rect>
                    <rect id="矩形备份-254" fill="#FFFFFF" x="3" y="1" width="1" height="1"></rect>
                    <rect id="矩形备份-256" fill="#FFFFFF" x="2" y="0" width="1" height="1"></rect>
                    <rect id="矩形备份-194" fill="#FFFFFF" x="33" y="33" width="1" height="1"></rect>
                    <rect id="矩形备份-160" fill="#FFFFFF" x="0" y="32" width="1" height="1"></rect>
                    <rect id="矩形备份-5" fill="#000000" x="1" y="4" width="1" height="1"></rect>
                    <rect id="矩形备份-7" fill="#000000" x="0" y="5" width="1" height="1"></rect>
                    <rect id="矩形备份-6" fill="#000000" x="1" y="6" width="1" height="1"></rect>
                    <rect id="矩形备份-9" fill="#000000" x="0" y="7" width="1" height="1"></rect>
                    <rect id="矩形备份-8" fill="#000000" x="1" y="8" width="1" height="1"></rect>
                    <rect id="矩形备份-11" fill="#000000" x="0" y="9" width="1" height="1"></rect>
                    <rect id="矩形备份-10" fill="#000000" x="1" y="10" width="1" height="1"></rect>
                    <rect id="矩形备份-13" fill="#000000" x="0" y="11" width="1" height="1"></rect>
                    <rect id="矩形备份-12" fill="#000000" x="1" y="12" width="1" height="1"></rect>
                    <rect id="矩形备份-15" fill="#000000" x="0" y="13" width="1" height="1"></rect>
                    <rect id="矩形备份-14" fill="#000000" x="1" y="14" width="1" height="1"></rect>
                    <rect id="矩形备份-17" fill="#000000" x="0" y="15" width="1" height="1"></rect>
                    <rect id="矩形备份-16" fill="#000000" x="1" y="16" width="1" height="1"></rect>
                    <rect id="矩形备份-19" fill="#000000" x="0" y="17" width="1" height="1"></rect>
                    <rect id="矩形备份-18" fill="#000000" x="1" y="18" width="1" height="1"></rect>
                    <rect id="矩形备份-21" fill="#000000" x="0" y="19" width="1" height="1"></rect>
                    <rect id="矩形备份-20" fill="#000000" x="1" y="20" width="1" height="1"></rect>
                    <rect id="矩形备份-23" fill="#000000" x="0" y="21" width="1" height="1"></rect>
                    <rect id="矩形备份-22" fill="#000000" x="1" y="22" width="1" height="1"></rect>
                    <rect id="矩形备份-25" fill="#000000" x="0" y="23" width="1" height="1"></rect>
                    <rect id="矩形备份-24" fill="#000000" x="1" y="24" width="1" height="1"></rect>
                    <rect id="矩形备份-27" fill="#000000" x="0" y="25" width="1" height="1"></rect>
                    <rect id="矩形备份-26" fill="#000000" x="1" y="26" width="1" height="1"></rect>
                    <rect id="矩形备份-29" fill="#000000" x="0" y="27" width="1" height="1"></rect>
                    <rect id="矩形备份-28" fill="#000000" x="1" y="28" width="1" height="1"></rect>
                    <rect id="矩形备份-31" fill="#000000" x="0" y="29" width="1" height="1"></rect>
                    <rect id="矩形备份-127" fill="#000000" x="1" y="30" width="1" height="1"></rect>
                    <rect id="矩形备份-128" fill="#000000" x="0" y="31" width="1" height="1"></rect>
                    <rect id="矩形备份-30" fill="#000000" x="1" y="32" width="1" height="1"></rect>
                    <rect id="矩形备份-32" fill="#000000" x="0" y="33" width="1" height="1"></rect>
                </g>
            </g>
        </g>
    </g>
</svg>