<?xml version="1.0" encoding="UTF-8"?>
<svg width="34px" height="34px" viewBox="0 0 34 34" version="1.1" xmlns="http://www.w3.org/2000/svg" xmlns:xlink="http://www.w3.org/1999/xlink">
    <title>skin_3</title>
    <g id="页面-1" stroke="none" stroke-width="1" fill="none" fill-rule="evenodd">
        <g id="My-Fish" transform="translate(-123.000000, -28.000000)">
            <g id="Skins" transform="translate(6.000000, 28.000000)">
                <g id="3" transform="translate(117.000000, 0.000000)">
                    <rect id="矩形" x="0" y="0" width="34" height="34"></rect>
                    <g id="编组" transform="translate(4.000000, 13.000000)">
                        <rect id="矩形" fill="#6DCFE7" opacity="0.800000012" x="0" y="3" width="1" height="1"></rect>
                        <rect id="矩形备份" fill="#6DCFE7" x="1" y="3" width="1" height="1"></rect>
                        <rect id="矩形备份-3" fill="#6DCFE7" opacity="0.800000012" x="1" y="2" width="1" height="1"></rect>
                        <rect id="矩形备份-4" fill="#6DCFE7" opacity="0.800000012" x="2" y="2" width="1" height="1"></rect>
                        <rect id="矩形备份-5" fill="#6DCFE7" x="3" y="2" width="1" height="1"></rect>
                        <rect id="矩形备份-8" fill="#6DCFE7" opacity="0.800000012" x="3" y="1" width="1" height="1"></rect>
                        <rect id="矩形备份-9" fill="#6DCFE7" opacity="0.800000012" x="4" y="1" width="1" height="1"></rect>
                        <rect id="矩形备份-10" fill="#6DCFE7" x="5" y="1" width="1" height="1"></rect>
                        <rect id="矩形备份-91" fill="#6DCFE7" opacity="0.800000012" x="5" y="0" width="1" height="1"></rect>
                        <rect id="矩形备份-89" fill="#6DCFE7" x="6" y="1" width="1" height="1"></rect>
                        <rect id="矩形备份-90" fill="#6DCFE7" opacity="0.800000012" x="6" y="0" width="1" height="1"></rect>
                        <rect id="矩形备份-11" fill="#6DCFE7" x="6" y="2" width="1" height="1"></rect>
                        <rect id="矩形备份-136" fill="#6DCFE7" x="6" y="3" width="1" height="1"></rect>
                        <rect id="矩形备份-12" fill="#6DCFE7" x="7" y="2" width="1" height="1"></rect>
                        <rect id="矩形备份-149" fill="#6DCFE7" x="7" y="1" width="1" height="1"></rect>
                        <rect id="矩形备份-151" fill="#6DCFE7" x="9" y="1" width="1" height="1"></rect>
                        <rect id="矩形备份-137" fill="#6DCFE7" x="7" y="3" width="1" height="1"></rect>
                        <rect id="矩形备份-14" fill="#6DCFE7" x="8" y="2" width="1" height="1"></rect>
                        <rect id="矩形备份-154" fill="#6DCFE7" x="9" y="2" width="1" height="1"></rect>
                        <rect id="矩形备份-150" fill="#6DCFE7" x="8" y="1" width="1" height="1"></rect>
                        <rect id="矩形备份-152" fill="#6DCFE7" x="10" y="1" width="1" height="1"></rect>
                        <rect id="矩形备份-138" fill="#6DCFE7" x="8" y="3" width="1" height="1"></rect>
                        <rect id="矩形备份-155" fill="#6DCFE7" x="9" y="3" width="1" height="1"></rect>
                        <rect id="矩形备份-16" fill="#6DCFE7" opacity="0.800000012" x="12" y="1" width="1" height="1"></rect>
                        <rect id="矩形备份-153" fill="#6DCFE7" x="11" y="1" width="1" height="1"></rect>
                        <rect id="矩形备份-18" fill="#6DCFE7" opacity="0.800000012" x="11" y="0" width="1" height="1"></rect>
                        <rect id="矩形备份-22" fill="#6DCFE7" opacity="0.800000012" x="14" y="2" width="1" height="1"></rect>
                        <rect id="矩形备份-25" fill="#6DCFE7" opacity="0.800000012" x="15" y="2" width="1" height="1"></rect>
                        <rect id="矩形备份-23" fill="#6DCFE7" opacity="0.800000012" x="13" y="1" width="1" height="1"></rect>
                        <rect id="矩形备份-24" fill="#6DCFE7" opacity="0.800000012" x="16" y="3" width="1" height="1"></rect>
                        <rect id="矩形备份-183" fill="#F9BF49" x="15" y="3" width="1" height="1"></rect>
                        <rect id="矩形备份-182" fill="#6DCFE7" x="14" y="3" width="1" height="1"></rect>
                        <rect id="矩形备份-26" fill="#6DCFE7" opacity="0.800000012" x="17" y="3" width="1" height="1"></rect>
                        <rect id="矩形备份-27" fill="#6DCFE7" opacity="0.800000012" x="18" y="4" width="1" height="1"></rect>
                        <rect id="矩形备份-59" fill="#6DCFE7" opacity="0.800000012" x="18" y="5" width="1" height="1"></rect>
                        <rect id="矩形备份-60" fill="#F9BF49" x="18" y="6" width="1" height="1"></rect>
                        <rect id="矩形备份-61" fill="#6DCFE7" x="17" y="6" width="1" height="1"></rect>
                        <rect id="矩形备份-174" fill="#F9BF49" x="17" y="5" width="1" height="1"></rect>
                        <rect id="矩形备份-62" fill="#6DCFE7" opacity="0.800000012" x="17" y="7" width="1" height="1"></rect>
                        <rect id="矩形备份-63" fill="#6DCFE7" opacity="0.800000012" x="16" y="7" width="1" height="1"></rect>
                        <rect id="矩形备份-109" fill="#6DCFE7" opacity="0.800000012" x="15" y="7" width="1" height="1"></rect>
                        <rect id="矩形备份-108" fill="#6DCFE7" x="16" y="6" width="1" height="1"></rect>
                        <rect id="矩形备份-175" fill="#6DCFE7" x="16" y="5" width="1" height="1"></rect>
                        <rect id="矩形备份-110" fill="#6DCFE7" x="15" y="6" width="1" height="1"></rect>
                        <rect id="矩形备份-176" fill="#6DCFE7" x="15" y="5" width="1" height="1"></rect>
                        <rect id="矩形备份-112" fill="#6DCFE7" opacity="0.800000012" x="14" y="7" width="1" height="1"></rect>
                        <rect id="矩形备份-111" fill="#6DCFE7" x="14" y="6" width="1" height="1"></rect>
                        <rect id="矩形备份-177" fill="#6DCFE7" x="14" y="5" width="1" height="1"></rect>
                        <rect id="矩形备份-181" fill="#6DCFE7" x="17" y="4" width="1" height="1"></rect>
                        <rect id="矩形备份-180" fill="#F9BF49" x="16" y="4" width="1" height="1"></rect>
                        <rect id="矩形备份-179" fill="#6DCFE7" x="15" y="4" width="1" height="1"></rect>
                        <rect id="矩形备份-178" fill="#F9BF49" x="14" y="4" width="1" height="1"></rect>
                        <rect id="矩形备份-114" fill="#6DCFE7" opacity="0.800000012" x="13" y="7" width="1" height="1"></rect>
                        <rect id="矩形备份-113" fill="#6DCFE7" x="13" y="6" width="1" height="1"></rect>
                        <rect id="矩形备份-116" fill="#6DCFE7" opacity="0.800000012" x="12" y="7" width="1" height="1"></rect>
                        <rect id="矩形备份-115" fill="#F9BF49" x="12" y="6" width="1" height="1"></rect>
                        <rect id="矩形备份-118" fill="#F9BF49" x="11" y="7" width="1" height="1"></rect>
                        <rect id="矩形备份-117" fill="#6DCFE7" x="11" y="6" width="1" height="1"></rect>
                        <rect id="矩形备份-120" fill="#F9BF49" x="10" y="7" width="1" height="1"></rect>
                        <rect id="矩形备份-119" fill="#6DCFE7" x="10" y="6" width="1" height="1"></rect>
                        <rect id="矩形备份-122" fill="#F9BF49" x="9" y="7" width="1" height="1"></rect>
                        <rect id="矩形备份-121" fill="#6DCFE7" x="9" y="6" width="1" height="1"></rect>
                        <rect id="矩形备份-124" fill="#6DCFE7" opacity="0.800000012" x="8" y="7" width="1" height="1"></rect>
                        <rect id="矩形备份-123" fill="#6DCFE7" x="8" y="6" width="1" height="1"></rect>
                        <rect id="矩形备份-126" fill="#6DCFE7" opacity="0.800000012" x="7" y="7" width="1" height="1"></rect>
                        <rect id="矩形备份-125" fill="#6DCFE7" x="7" y="6" width="1" height="1"></rect>
                        <rect id="矩形备份-128" fill="#6DCFE7" opacity="0.800000012" x="6" y="7" width="1" height="1"></rect>
                        <rect id="矩形备份-127" fill="#6DCFE7" x="6" y="6" width="1" height="1"></rect>
                        <rect id="矩形备份-64" fill="#391828" x="15" y="8" width="1" height="1"></rect>
                        <rect id="矩形备份-66" fill="#391828" x="14" y="9" width="1" height="1"></rect>
                        <rect id="矩形备份-94" fill="#391828" x="12" y="9" width="1" height="1"></rect>
                        <rect id="矩形备份-67" fill="#391828" x="13" y="9" width="1" height="1"></rect>
                        <rect id="矩形备份-95" fill="#391828" x="11" y="9" width="1" height="1"></rect>
                        <rect id="矩形备份-97" fill="#391828" x="10" y="9" width="1" height="1"></rect>
                        <rect id="矩形备份-96" fill="#391828" x="9" y="9" width="1" height="1"></rect>
                        <rect id="矩形备份-99" fill="#391828" x="8" y="9" width="1" height="1"></rect>
                        <rect id="矩形备份-100" fill="#391828" x="8" y="8" width="1" height="1"></rect>
                        <rect id="矩形备份-102" fill="#391828" x="10" y="8" width="1" height="1"></rect>
                        <rect id="矩形备份-98" fill="#391828" x="7" y="9" width="1" height="1"></rect>
                        <rect id="矩形备份-101" fill="#391828" x="7" y="8" width="1" height="1"></rect>
                        <rect id="矩形备份-103" fill="#391828" x="9" y="8" width="1" height="1"></rect>
                        <rect id="矩形备份-105" fill="#391828" x="12" y="8" width="1" height="1"></rect>
                        <rect id="矩形备份-104" fill="#391828" x="11" y="8" width="1" height="1"></rect>
                        <rect id="矩形备份-107" fill="#391828" x="14" y="8" width="1" height="1"></rect>
                        <rect id="矩形备份-106" fill="#391828" x="13" y="8" width="1" height="1"></rect>
                        <rect id="矩形备份-68" fill="#5860A7" x="12" y="10" width="1" height="1"></rect>
                        <rect id="矩形备份-191" fill="#5860A7" x="13" y="10" width="1" height="1"></rect>
                        <rect id="矩形备份-194" fill="#5860A7" x="13" y="11" width="1" height="1"></rect>
                        <rect id="矩形备份-93" fill="#5860A7" x="12" y="11" width="1" height="1"></rect>
                        <rect id="矩形备份-69" fill="#5860A7" x="11" y="10" width="1" height="1"></rect>
                        <rect id="矩形备份-70" fill="#5860A7" x="10" y="10" width="1" height="1"></rect>
                        <rect id="矩形备份-71" fill="#5860A7" x="9" y="10" width="1" height="1"></rect>
                        <rect id="矩形备份-192" fill="#5860A7" x="10" y="11" width="1" height="1"></rect>
                        <rect id="矩形备份-193" fill="#5860A7" x="11" y="11" width="1" height="1"></rect>
                        <rect id="矩形备份-72" fill="#391828" x="8" y="10" width="1" height="1"></rect>
                        <rect id="矩形备份-73" fill="#391828" x="7" y="10" width="1" height="1"></rect>
                        <rect id="矩形备份-74" fill="#391828" x="6" y="10" width="1" height="1"></rect>
                        <rect id="矩形备份-75" fill="#391828" x="5" y="10" width="1" height="1"></rect>
                        <rect id="矩形备份-76" fill="#391828" x="4" y="9" width="1" height="1"></rect>
                        <rect id="矩形备份-83" fill="#391828" x="4" y="8" width="1" height="1"></rect>
                        <rect id="矩形备份-84" fill="#391828" x="5" y="8" width="1" height="1"></rect>
                        <rect id="矩形备份-85" fill="#391828" x="6" y="8" width="1" height="1"></rect>
                        <rect id="矩形备份-86" fill="#391828" x="6" y="9" width="1" height="1"></rect>
                        <rect id="矩形备份-87" fill="#391828" x="5" y="9" width="1" height="1"></rect>
                        <rect id="矩形备份-77" fill="#391828" x="3" y="9" width="1" height="1"></rect>
                        <rect id="矩形备份-92" fill="#391828" x="3" y="8" width="1" height="1"></rect>
                        <rect id="矩形备份-78" fill="#391828" x="2" y="9" width="1" height="1"></rect>
                        <rect id="矩形备份-79" fill="#391828" x="2" y="8" width="1" height="1"></rect>
                        <rect id="矩形备份-80" fill="#391828" x="1" y="8" width="1" height="1"></rect>
                        <rect id="矩形备份-81" fill="#391828" x="0" y="8" width="1" height="1"></rect>
                        <rect id="矩形备份-65" fill="#391828" x="16" y="8" width="1" height="1"></rect>
                        <rect id="矩形备份-13" fill="#6DCFE7" opacity="0.800000012" x="7" y="0" width="1" height="1"></rect>
                        <rect id="矩形备份-15" fill="#6DCFE7" opacity="0.800000012" x="8" y="0" width="1" height="1"></rect>
                        <rect id="矩形备份-17" fill="#6DCFE7" opacity="0.800000012" x="9" y="0" width="1" height="1"></rect>
                        <rect id="矩形备份-19" fill="#6DCFE7" opacity="0.800000012" x="10" y="0" width="1" height="1"></rect>
                        <rect id="矩形备份-6" fill="#6DCFE7" x="4" y="2" width="1" height="1"></rect>
                        <rect id="矩形备份-7" fill="#6DCFE7" x="5" y="2" width="1" height="1"></rect>
                        <rect id="矩形备份-139" fill="#6DCFE7" x="5" y="3" width="1" height="1"></rect>
                        <rect id="矩形备份-143" fill="#6DCFE7" x="6" y="4" width="1" height="1"></rect>
                        <rect id="矩形备份-142" fill="#6DCFE7" x="7" y="4" width="1" height="1"></rect>
                        <rect id="矩形备份-141" fill="#6DCFE7" x="8" y="4" width="1" height="1"></rect>
                        <rect id="矩形备份-156" fill="#6DCFE7" x="9" y="4" width="1" height="1"></rect>
                        <rect id="矩形备份-140" fill="#F9F9F9" x="5" y="4" width="1" height="1"></rect>
                        <rect id="矩形备份-147" fill="#6DCFE7" x="6" y="5" width="1" height="1"></rect>
                        <rect id="矩形备份-146" fill="#6DCFE7" x="7" y="5" width="1" height="1"></rect>
                        <rect id="矩形备份-145" fill="#6DCFE7" x="8" y="5" width="1" height="1"></rect>
                        <rect id="矩形备份-157" fill="#6DCFE7" x="9" y="5" width="1" height="1"></rect>
                        <rect id="矩形备份-161" fill="#6DCFE7" x="10" y="2" width="1" height="1"></rect>
                        <rect id="矩形备份-160" fill="#6DCFE7" x="10" y="3" width="1" height="1"></rect>
                        <rect id="矩形备份-159" fill="#6DCFE7" x="10" y="4" width="1" height="1"></rect>
                        <rect id="矩形备份-158" fill="#6DCFE7" x="10" y="5" width="1" height="1"></rect>
                        <rect id="矩形备份-165" fill="#6DCFE7" x="11" y="2" width="1" height="1"></rect>
                        <rect id="矩形备份-164" fill="#6DCFE7" x="11" y="3" width="1" height="1"></rect>
                        <rect id="矩形备份-163" fill="#6DCFE7" x="11" y="4" width="1" height="1"></rect>
                        <rect id="矩形备份-162" fill="#6DCFE7" x="11" y="5" width="1" height="1"></rect>
                        <rect id="矩形备份-169" fill="#6DCFE7" x="12" y="2" width="1" height="1"></rect>
                        <rect id="矩形备份-168" fill="#6DCFE7" x="12" y="3" width="1" height="1"></rect>
                        <rect id="矩形备份-167" fill="#6DCFE7" x="12" y="4" width="1" height="1"></rect>
                        <rect id="矩形备份-166" fill="#6DCFE7" x="12" y="5" width="1" height="1"></rect>
                        <rect id="矩形备份-173" fill="#6DCFE7" x="13" y="2" width="1" height="1"></rect>
                        <rect id="矩形备份-172" fill="#6DCFE7" x="13" y="3" width="1" height="1"></rect>
                        <rect id="矩形备份-171" fill="#6DCFE7" x="13" y="4" width="1" height="1"></rect>
                        <rect id="矩形备份-170" fill="#F9BF49" x="13" y="5" width="1" height="1"></rect>
                        <rect id="矩形备份-144" fill="#6DCFE7" x="5" y="5" width="1" height="1"></rect>
                        <rect id="矩形备份-2" fill="#6DCFE7" opacity="0.800000012" x="1" y="4" width="1" height="1"></rect>
                        <rect id="矩形备份-20" fill="#6DCFE7" x="3" y="5" width="1" height="1"></rect>
                        <rect id="矩形备份-135" fill="#6DCFE7" x="4" y="5" width="1" height="1"></rect>
                        <rect id="矩形备份-129" fill="#6DCFE7" x="3" y="4" width="1" height="1"></rect>
                        <rect id="矩形备份-133" fill="#6DCFE7" x="2" y="4" width="1" height="1"></rect>
                        <rect id="矩形备份-134" fill="#6DCFE7" x="2" y="3" width="1" height="1"></rect>
                        <rect id="矩形备份-130" fill="#6DCFE7" x="4" y="4" width="1" height="1"></rect>
                        <rect id="矩形备份-131" fill="#6DCFE7" x="4" y="3" width="1" height="1"></rect>
                        <rect id="矩形备份-132" fill="#6DCFE7" x="3" y="3" width="1" height="1"></rect>
                        <rect id="矩形备份-88" fill="#6DCFE7" opacity="0.800000012" x="2" y="5" width="1" height="1"></rect>
                        <rect id="矩形备份-21" fill="#6DCFE7" x="4" y="6" width="1" height="1"></rect>
                        <rect id="矩形备份-189" fill="#6DCFE7" opacity="0.800000012" x="4" y="7" width="1" height="1"></rect>
                        <rect id="矩形备份-190" fill="#6DCFE7" opacity="0.800000012" x="3" y="7" width="1" height="1"></rect>
                        <rect id="矩形备份-188" fill="#6DCFE7" opacity="0.800000012" x="3" y="6" width="1" height="1"></rect>
                        <rect id="矩形备份-148" fill="#6DCFE7" x="5" y="6" width="1" height="1"></rect>
                        <rect id="矩形备份-82" fill="#6DCFE7" opacity="0.800000012" x="5" y="7" width="1" height="1"></rect>
                    </g>
                </g>
            </g>
        </g>
    </g>
</svg>