<?xml version="1.0" encoding="UTF-8"?>
<svg width="34px" height="34px" viewBox="0 0 34 34" version="1.1" xmlns="http://www.w3.org/2000/svg" xmlns:xlink="http://www.w3.org/1999/xlink">
    <title>tail_2</title>
    <g id="页面-1" stroke="none" stroke-width="1" fill="none" fill-rule="evenodd">
        <g id="My-Fish" transform="translate(-84.000000, -629.000000)">
            <g id="Tails" transform="translate(6.000000, 629.000000)">
                <g id="2" transform="translate(78.000000, 0.000000)">
                    <rect id="矩形" x="0" y="0" width="34" height="34"></rect>
                    <g id="编组" transform="translate(23.000000, 15.000000)" fill="#D5DFFC">
                        <rect id="矩形备份-28" x="0" y="3" width="1" height="1"></rect>
                        <rect id="矩形备份-29" x="1" y="3" width="1" height="1"></rect>
                        <rect id="矩形备份-32" x="2" y="3" width="1" height="1"></rect>
                        <rect id="矩形备份-38" x="3" y="3" width="1" height="1"></rect>
                        <rect id="矩形备份-30" x="1" y="2" width="1" height="1"></rect>
                        <rect id="矩形备份-43" x="1" y="4" width="1" height="1"></rect>
                        <rect id="矩形备份-31" x="2" y="2" width="1" height="1"></rect>
                        <rect id="矩形备份-45" x="2" y="4" width="1" height="1"></rect>
                        <rect id="矩形备份-46" x="3" y="5" width="1" height="1"></rect>
                        <rect id="矩形备份-47" x="3" y="4" width="1" height="1"></rect>
                        <rect id="矩形备份-57" x="4" y="5" width="1" height="1"></rect>
                        <rect id="矩形备份-195" x="5" y="5" width="1" height="1"></rect>
                        <rect id="矩形备份-197" x="5" y="6" width="1" height="1"></rect>
                        <rect id="矩形备份-199" x="6" y="6" width="1" height="1"></rect>
                        <rect id="矩形备份-200" x="6" y="5" width="1" height="1"></rect>
                        <rect id="矩形备份-33" x="3" y="1" width="1" height="1"></rect>
                        <rect id="矩形备份-40" x="4" y="3" width="1" height="1"></rect>
                        <rect id="矩形备份-48" x="4" y="4" width="1" height="1"></rect>
                        <rect id="矩形备份-44" x="4" y="2" width="1" height="1"></rect>
                        <rect id="矩形备份-39" x="3" y="2" width="1" height="1"></rect>
                        <rect id="矩形备份-36" x="4" y="1" width="1" height="1"></rect>
                        <rect id="矩形备份-35" x="5" y="1" width="1" height="1"></rect>
                        <rect id="矩形备份-37" x="6" y="0" width="1" height="1"></rect>
                        <rect id="矩形备份-42" x="6" y="1" width="1" height="1"></rect>
                        <rect id="矩形备份-41" x="5" y="0" width="1" height="1"></rect>
                    </g>
                </g>
            </g>
        </g>
    </g>
</svg>